<svg width="108" height="108" viewBox="0 0 108 108" fill="none" xmlns="http://www.w3.org/2000/svg">
<circle cx="54" cy="54" r="54" fill="#272C65"/>
<path d="M51.8526 29.1041C53.3169 27.632 55.6948 27.632 57.1591 29.1041L75.9018 47.9475C77.3661 49.4197 77.3661 51.8104 75.9018 53.2826C74.4375 54.7547 72.0595 54.7547 70.5953 53.2826L58.2485 40.8577V76.9899C58.2485 79.0745 56.5734 80.7586 54.5 80.7586C52.4266 80.7586 50.7515 79.0745 50.7515 76.9899V40.8695L38.4047 53.2708C36.9405 54.7429 34.5625 54.7429 33.0982 53.2708C31.6339 51.7986 31.6339 49.4079 33.0982 47.9357L51.8409 29.0923L51.8526 29.1041Z" fill="white"/>
</svg>
