<svg width="30" height="36" viewBox="0 0 30 36" fill="none" xmlns="http://www.w3.org/2000/svg">
<path fill-rule="evenodd" clip-rule="evenodd" d="M25.1593 1.22008C23.7633 0.438082 22.5133 0.059082 21.3393 0.059082C19.5783 0.059082 18.2883 0.911082 17.0413 1.73608C16.7333 1.93908 16.4273 2.14108 16.1163 2.32908C14.6723 3.20108 13.1243 3.28008 12.1973 3.23508V2.69908H9.6563V4.10808C8.4063 4.25808 7.1563 4.99608 6.2723 6.13208C5.1303 7.59808 4.6703 9.43808 4.3983 10.8771C3.6303 14.9211 3.7743 19.1061 3.9133 23.1521C3.9973 25.6201 4.0853 28.1631 3.9653 30.6601C3.4653 30.2321 2.6363 30.0851 1.9693 30.3471C1.3313 30.5981 0.822298 31.1941 0.607298 31.9431C0.392298 32.6921 0.504298 33.4791 0.908298 34.0471C1.3223 34.6321 2.0353 34.9811 2.8143 34.9811C3.4413 34.9811 4.0133 34.7611 4.4283 34.3691C4.7983 34.7961 5.3553 35.0601 5.9233 35.0601C6.0483 35.0601 6.1733 35.0471 6.2933 35.0211C6.9213 34.8881 7.4643 34.4021 7.7113 33.7941C8.3043 34.3061 9.0783 34.5601 9.8183 34.4481C10.7603 34.3031 11.5603 33.5331 11.7203 32.6161C11.8933 31.6301 11.2753 30.5891 10.3733 30.3431C9.8483 30.2001 9.2573 30.3651 8.8503 30.7051C9.2493 25.1311 9.0993 19.5051 8.4033 13.9621L8.3793 13.7671C8.2233 12.5371 8.0623 11.2661 8.3383 10.0801C8.5423 9.20508 9.0323 8.44008 9.6563 7.98308V8.48808H12.1973V8.06308C12.4513 8.07008 12.7273 8.09008 13.0283 8.12208L13.2923 12.5691C13.3433 13.4311 13.5093 14.4671 14.3463 14.8321C14.5153 14.9061 14.7003 14.9441 14.8983 14.9441C15.2283 14.9441 15.5913 14.8421 16.0093 14.6321C16.9713 14.1481 17.8153 13.4041 18.4353 12.5021C18.4433 12.5361 18.4513 12.5701 18.4593 12.6031L18.4983 12.7711C18.4403 12.8181 18.3823 12.8651 18.3223 12.9101L18.2183 12.9891V13.1221C18.2183 13.1441 18.2223 13.6821 18.5323 14.7261C18.5663 14.8421 18.6033 14.9401 18.6453 15.0291L18.5273 15.1191L18.7243 15.3361C18.8683 15.4951 19.0283 15.6201 19.1993 15.7311C18.4183 17.4711 17.8303 19.2571 17.4153 21.1841L17.3463 21.5031L18.2303 21.5041C18.2453 21.6811 18.2603 21.8561 18.2773 22.0391C18.3633 22.9121 18.4603 23.9021 18.3293 25.5111C18.1963 27.1251 18.0943 28.1861 17.9913 29.2451C17.9393 29.7801 17.8873 30.3151 17.8313 30.9211C17.8013 31.2541 17.7693 31.5991 17.6113 31.8661C17.4303 32.1721 17.0973 32.3601 16.7443 32.5601C16.6613 32.6071 16.5803 32.6531 16.4993 32.7021C16.2243 32.8661 15.8553 33.1431 15.6563 33.5271C15.5693 33.6971 15.5753 33.8981 15.6723 34.0661C15.7713 34.2371 15.9533 34.3431 16.1453 34.3431L18.4803 34.0921C18.7243 34.0671 19.0573 34.0301 19.3093 33.8041C19.6653 33.4831 19.6663 32.9811 19.6683 32.5771L19.6693 32.4591C19.6783 31.6721 19.9183 30.9231 20.1723 30.1291C20.2793 29.7961 20.3853 29.4621 20.4753 29.1251C20.8333 27.7691 20.9093 26.3471 20.9823 24.9721C21.0343 23.9851 21.0943 22.9721 21.2543 21.9931C21.4153 22.9721 21.4743 23.9851 21.5273 24.9721C21.6003 26.3471 21.6753 27.7691 22.0343 29.1261C22.1233 29.4621 22.2303 29.7961 22.3363 30.1291C22.5903 30.9231 22.8303 31.6721 22.8393 32.4591L22.8403 32.5761C22.8423 32.9801 22.8443 33.4831 23.1993 33.8041C23.4523 34.0301 23.7853 34.0671 24.0283 34.0921L26.3053 34.3401L26.3643 34.3431C26.5563 34.3431 26.7373 34.2371 26.8373 34.0661C26.9343 33.8981 26.9403 33.6971 26.8523 33.5271C26.6543 33.1431 26.2843 32.8661 26.0093 32.7021C25.9293 32.6531 25.8473 32.6071 25.7643 32.5601C25.4113 32.3601 25.0783 32.1721 24.8973 31.8661C24.7403 31.5991 24.7083 31.2541 24.6773 30.9211C24.6213 30.3191 24.5703 29.7871 24.5183 29.2541C24.4163 28.1921 24.3123 27.1301 24.1803 25.5111C24.0483 23.9021 24.1453 22.9141 24.2313 22.0421C24.2493 21.8601 24.2633 21.6861 24.2783 21.5111L24.9673 21.5121L23.5613 16.5671C23.4943 16.3321 23.4153 16.1071 23.3073 15.8951L24.6273 12.5521C25.1463 14.8931 25.7233 17.2801 26.7263 19.4941C26.7643 19.5771 26.8003 19.6611 26.8373 19.7471C27.0263 20.1911 27.2403 20.6951 27.6883 20.9771C27.8633 21.0871 28.0663 21.1471 28.2593 21.1471C28.5983 21.1471 28.8813 20.9691 29.0593 20.6441C29.3113 20.1841 29.1783 19.6481 29.0563 19.2851C28.8903 18.7901 28.7163 18.4411 28.5323 18.0711C28.2773 17.5561 28.0123 17.0241 27.7223 16.0031C27.3153 14.5711 26.9743 13.2781 26.9133 11.9411C26.9033 11.7081 26.9003 11.4741 26.8973 11.2401C26.8903 10.6611 26.8833 10.0631 26.7583 9.47708C26.6893 9.15008 26.5503 8.92308 26.3903 8.75708C27.5903 8.36608 29.2713 8.04808 29.2903 8.04508L29.4993 8.00608V2.29308H29.2453C27.7073 2.29308 25.1633 1.22008 25.1593 1.22008ZM9.6563 5.01408C8.3133 5.70708 7.2023 6.65408 6.4333 7.79108C5.4513 9.24508 5.0433 10.9931 5.3143 12.5901C5.3603 12.8651 5.4273 13.1421 5.4923 13.4091C5.6503 14.0581 5.7983 14.6721 5.6853 15.2821C5.6223 15.6211 5.4743 15.9601 5.3313 16.2871C5.1023 16.8111 4.8653 17.3521 4.9383 17.9481C4.9833 18.3171 5.1423 18.6461 5.2963 18.9631C5.4553 19.2911 5.6053 19.6011 5.6243 19.9341C5.6473 20.3331 5.4793 20.7131 5.3023 21.1171C5.1303 21.5081 4.9513 21.9141 4.9433 22.3621C4.9353 22.7821 5.0783 23.1691 5.2163 23.5441C5.3483 23.9021 5.4733 24.2391 5.4663 24.5881C5.4593 24.9621 5.3023 25.3211 5.1363 25.7001C4.9303 26.1701 4.7163 26.6571 4.7993 27.1921C4.8483 27.5071 4.9953 27.7881 5.1383 28.0591C5.3073 28.3831 5.4683 28.6901 5.4323 29.0101C5.4073 29.2391 5.2813 29.4491 5.1493 29.6731C5.0193 29.8911 4.8843 30.1181 4.8293 30.3841C4.7653 30.6971 4.8213 30.9991 4.8763 31.2931C4.9073 31.4621 4.9373 31.6211 4.9443 31.7791C4.9643 32.2301 4.7463 32.6951 4.3593 33.0221C3.9733 33.3501 3.4883 33.4811 3.0623 33.3731C2.6523 33.2681 2.3193 32.9621 2.2353 32.6111C2.1903 32.4221 2.2313 32.1981 2.3443 32.0251C2.4373 31.8811 2.5663 31.7891 2.7093 31.7671C2.8873 31.7391 3.0583 31.8611 3.1493 31.9951C3.2163 32.0961 3.2323 32.2021 3.2263 32.2981C3.2103 32.5871 3.5043 32.6211 3.5623 32.4291C3.6243 32.2231 3.5793 31.9911 3.4413 31.7861C3.2553 31.5081 2.9453 31.3581 2.6553 31.4041C2.4123 31.4421 2.1973 31.5901 2.0473 31.8211C1.8793 32.0801 1.8193 32.4091 1.8893 32.6981C2.0053 33.1861 2.4323 33.5911 2.9773 33.7291C3.1033 33.7611 3.2333 33.7771 3.3643 33.7771C3.7873 33.7771 4.2243 33.6131 4.5853 33.3061C5.0583 32.9061 5.3263 32.3281 5.3003 31.7611C5.2923 31.5771 5.2583 31.3971 5.2263 31.2231C5.1763 30.9541 5.1283 30.7001 5.1783 30.4611C5.2203 30.2561 5.3343 30.0661 5.4533 29.8651C5.6003 29.6171 5.7523 29.3611 5.7873 29.0521C5.8353 28.6171 5.6403 28.2441 5.4513 27.8841C5.3183 27.6291 5.1913 27.3881 5.1523 27.1341C5.0853 26.7081 5.2683 26.2921 5.4603 25.8511C5.6353 25.4551 5.8143 25.0441 5.8233 24.5961C5.8313 24.1761 5.6883 23.7881 5.5493 23.4131C5.4173 23.0551 5.2923 22.7171 5.2993 22.3691C5.3063 21.9971 5.4623 21.6431 5.6273 21.2681C5.8143 20.8421 6.0083 20.4021 5.9803 19.9121C5.9573 19.5041 5.7833 19.1461 5.6153 18.7991C5.4683 18.4961 5.3293 18.2091 5.2923 17.9021C5.2313 17.4091 5.4383 16.9371 5.6563 16.4381C5.8083 16.0921 5.9643 15.7331 6.0363 15.3521C6.1633 14.6611 5.9983 13.9791 5.8383 13.3201C5.7753 13.0591 5.7093 12.7881 5.6643 12.5271C5.4103 11.0251 5.7963 9.37608 6.7253 8.00208C7.4313 6.96008 8.4373 6.08208 9.6563 5.42408V5.81408C8.7153 6.49708 7.7873 7.25508 7.0613 8.21208C6.0553 9.53608 5.6093 11.0811 5.8373 12.4481C5.8963 12.8031 6.0003 13.1531 6.1003 13.4911C6.2823 14.1041 6.4533 14.6821 6.3743 15.2721C6.3353 15.5681 6.2323 15.8541 6.1253 16.1571C5.9703 16.5921 5.8093 17.0421 5.8483 17.5281C5.8793 17.9301 6.0423 18.2921 6.2013 18.6421C6.3573 18.9881 6.5053 19.3151 6.5233 19.6631C6.5443 20.0731 6.3843 20.4661 6.2153 20.8831C6.0403 21.3111 5.8613 21.7531 5.8763 22.2351C5.8903 22.6561 6.0493 23.0371 6.2053 23.4061C6.3523 23.7581 6.4923 24.0921 6.5033 24.4421C6.5173 24.8781 6.3273 25.3331 6.1443 25.7721C5.8813 26.4001 5.6093 27.0511 5.9023 27.6991C5.9893 27.8931 6.1173 28.0541 6.2413 28.2101C6.3783 28.3811 6.5083 28.5431 6.5653 28.7301C6.6813 29.1001 6.5053 29.4851 6.3193 29.8931C6.1803 30.1981 6.0363 30.5141 5.9963 30.8551C5.9443 31.3011 6.0843 31.7401 6.2083 32.1281C6.3413 32.5451 6.4393 32.8921 6.3913 33.2391C6.3483 33.5531 6.1203 33.8921 5.8143 33.9161C5.6783 33.9251 5.5283 33.8331 5.4473 33.6871C5.4183 33.6371 5.3613 33.5071 5.4143 33.4221C5.4563 33.3781 5.5283 33.3621 5.6033 33.3781C5.6463 33.3871 5.6883 33.4011 5.7113 33.4301C5.8833 33.6551 6.1673 33.4491 6.0383 33.2601C5.9573 33.1411 5.8313 33.0521 5.6783 33.0191C5.4833 32.9761 5.2893 33.0291 5.1413 33.1881C5.0103 33.3851 5.0093 33.6401 5.1383 33.8701C5.2783 34.1231 5.5373 34.2841 5.7943 34.2841C5.8103 34.2841 5.8253 34.2831 5.8413 34.2831C6.3453 34.2431 6.6823 33.7421 6.7443 33.2911C6.8073 32.8311 6.6633 32.3771 6.5463 32.0131C6.4293 31.6451 6.3073 31.2641 6.3503 30.8981C6.3833 30.6161 6.5143 30.3281 6.6423 30.0491C6.8493 29.5951 7.0633 29.1261 6.9053 28.6181C6.8263 28.3641 6.6693 28.1671 6.5173 27.9761C6.4023 27.8321 6.2933 27.6961 6.2243 27.5451C6.0003 27.0451 6.2293 26.4971 6.4713 25.9171C6.6713 25.4411 6.8763 24.9481 6.8603 24.4301C6.8463 24.0101 6.6863 23.6281 6.5313 23.2601C6.3833 22.9081 6.2443 22.5741 6.2323 22.2231C6.2203 21.8211 6.3773 21.4351 6.5433 21.0261C6.7213 20.5891 6.9053 20.1371 6.8793 19.6431C6.8573 19.2241 6.6883 18.8491 6.5243 18.4871C6.3723 18.1511 6.2293 17.8351 6.2023 17.4991C6.1713 17.0931 6.3113 16.7001 6.4593 16.2841C6.5693 15.9761 6.6823 15.6571 6.7283 15.3221C6.8173 14.6521 6.6263 14.0071 6.4413 13.3841C6.3443 13.0561 6.2433 12.7181 6.1883 12.3861C5.9773 11.1201 6.3983 9.68108 7.3413 8.43808C7.9883 7.58708 8.8103 6.89408 9.6563 6.26608V6.63408C8.7053 7.27708 7.9673 7.97808 7.4413 8.77608C6.7003 9.89908 6.3903 11.2151 6.5923 12.3871C6.6543 12.7481 6.7633 13.1021 6.8683 13.4461C7.0653 14.0861 7.2503 14.6901 7.1453 15.3011C7.1063 15.5311 7.0253 15.7581 6.9403 15.9981C6.7883 16.4261 6.6313 16.8691 6.7223 17.3431C6.7743 17.6161 6.9033 17.8531 7.0273 18.0821C7.1423 18.2921 7.2503 18.4901 7.2933 18.7021C7.3693 19.0731 7.2443 19.4521 7.1123 19.8531C7.0013 20.1901 6.8853 20.5391 6.8843 20.9071C6.8813 21.3311 7.0283 21.7191 7.1703 22.0941C7.2463 22.2951 7.3173 22.4851 7.3693 22.6801C7.5053 23.2071 7.4863 23.7671 7.4483 24.3911L7.4103 24.9821C7.3773 25.4911 7.3453 26.0001 7.3243 26.5101C7.2723 27.7981 7.2993 29.1011 7.4033 30.3841C7.4513 30.9811 7.5193 31.6131 7.7673 32.1971C8.0493 32.8611 8.5323 33.3411 9.0943 33.5131C9.2353 33.5561 9.3773 33.5761 9.5183 33.5761C9.9173 33.5761 10.2933 33.4091 10.5113 33.1131C10.6883 32.8751 10.7443 32.5351 10.6583 32.2281C10.5833 31.9581 10.4073 31.7511 10.1763 31.6621C9.8533 31.5371 9.5293 31.7131 9.3513 31.9441C9.1963 32.1471 9.1323 32.3911 9.2223 32.5891C9.3533 32.8751 9.6043 32.6851 9.5513 32.4401C9.5263 32.3221 9.6023 32.2081 9.6313 32.1721C9.7283 32.0461 9.9043 31.9491 10.0513 32.0061C10.2213 32.0721 10.2903 32.2371 10.3153 32.3301C10.3703 32.5251 10.3353 32.7451 10.2283 32.8901C9.9853 33.2191 9.5223 33.2611 9.1963 33.1601C8.7353 33.0191 8.3343 32.6141 8.0943 32.0501C7.8683 31.5171 7.8043 30.9201 7.7583 30.3541C7.6553 29.0861 7.6293 27.7981 7.6813 26.5261C7.7013 26.0191 7.7343 25.5121 7.7663 25.0061L7.8043 24.4141C7.8433 23.7561 7.8643 23.1651 7.7123 22.5851C7.6573 22.3701 7.5783 22.1621 7.5023 21.9611C7.3673 21.6021 7.2393 21.2631 7.2403 20.9091C7.2423 20.6001 7.3433 20.2941 7.4493 19.9711C7.5913 19.5411 7.7373 19.0961 7.6413 18.6271C7.5873 18.3591 7.4613 18.1271 7.3383 17.9021C7.2233 17.6891 7.1133 17.4881 7.0713 17.2721C7.0013 16.8991 7.1343 16.5221 7.2753 16.1241C7.3623 15.8801 7.4513 15.6271 7.4963 15.3651C7.6173 14.6651 7.4093 13.9891 7.2083 13.3351C7.1063 13.0031 7.0013 12.6601 6.9433 12.3231C6.7573 11.2441 7.0463 10.0271 7.7353 8.98308C8.2003 8.27908 8.8383 7.65208 9.6563 7.07308V7.36008C8.7933 7.85208 8.1063 8.83108 7.8443 9.95708C7.5463 11.2381 7.7133 12.5581 7.8753 13.8341L7.8993 14.0301C8.6383 19.9161 8.7583 25.8981 8.2543 31.8101L8.7603 31.8581C8.8103 31.3021 9.3783 30.8141 9.9753 30.8141C10.0673 30.8141 10.1573 30.8261 10.2423 30.8491C10.8883 31.0251 11.3453 31.8071 11.2203 32.5241C11.0973 33.2261 10.4773 33.8181 9.7443 33.9291C9.0313 34.0391 8.2763 33.7191 7.7753 33.1281L7.4133 32.7001L7.3323 33.2621C7.2473 33.8621 6.7673 34.3861 6.1913 34.5081C5.6193 34.6301 4.9683 34.3341 4.6663 33.8261L4.4773 33.5071L4.2513 33.7991C3.9343 34.2111 3.3973 34.4571 2.8143 34.4571C2.1973 34.4571 1.6373 34.1881 1.3183 33.7381C1.0083 33.3011 0.924298 32.6851 1.0943 32.0921C1.2643 31.4991 1.6593 31.0291 2.1503 30.8371C2.3173 30.7711 2.5053 30.7371 2.6943 30.7371C3.1703 30.7371 3.7413 30.9671 3.9443 31.4831L4.3593 32.5381L4.4333 31.4021C4.6103 28.6531 4.5143 25.8471 4.4213 23.1341C4.2823 19.1171 4.1393 14.9631 4.8963 10.9771C5.1583 9.59708 5.5953 7.83708 6.6683 6.46008C7.4563 5.44808 8.5563 4.77708 9.6563 4.62808V5.01408ZM11.6893 7.79308V7.96408H10.1643V7.68408V4.06308V3.22308H11.6893V7.79308ZM18.6593 11.1031L18.3263 11.7051C17.7453 12.7581 16.8433 13.6301 15.7863 14.1611C15.2623 14.4251 14.8573 14.4871 14.5443 14.3501C13.9643 14.0971 13.8413 13.2481 13.7993 12.5371L13.5413 8.18008L13.5103 7.67208C13.4903 7.34408 13.4683 6.97208 13.5963 6.67408C13.6223 6.61508 13.6573 6.56008 13.6973 6.51108C13.7093 6.49708 13.7233 6.48708 13.7353 6.47408C13.7663 6.44108 13.7993 6.41008 13.8343 6.38608C13.8493 6.37508 13.8653 6.36808 13.8803 6.35908C13.9153 6.33908 13.9503 6.32308 13.9863 6.31308C14.0033 6.30808 14.0203 6.30408 14.0383 6.30208C14.0833 6.29608 14.1293 6.29208 14.1713 6.30508C14.2093 6.31708 14.2443 6.33508 14.2763 6.35908C14.4973 6.52608 14.5543 6.96608 14.5603 7.33508L14.5633 7.51408L14.6253 11.2581C14.6313 11.5441 14.6413 12.1391 15.0803 12.4131C15.3693 12.5921 15.7933 12.5461 16.1003 12.3121C16.3543 12.1181 16.5133 11.8451 16.6533 11.6051L17.7143 9.78008L17.7153 9.78108L17.9603 9.35708C18.2333 8.88908 18.5113 8.45708 18.9193 8.31008C19.1143 8.24008 19.3393 8.23508 19.5783 8.23108C19.9033 8.22508 20.2393 8.21808 20.5553 8.04708C20.6603 7.99108 20.7503 7.91608 20.8353 7.83208C20.8513 7.81608 20.8683 7.80108 20.8833 7.78408C20.9623 7.69808 21.0313 7.59908 21.0903 7.48808C21.0943 7.48008 21.1003 7.47608 21.1043 7.46808C21.1733 7.47208 21.2413 7.47608 21.3093 7.47808C21.5423 7.48508 21.7733 7.48608 22.0063 7.47908C22.0293 7.57608 22.0603 7.65408 22.0953 7.72508C22.1033 7.74208 22.1123 7.75908 22.1213 7.77408C22.1583 7.83908 22.2003 7.89608 22.2503 7.93708C22.3473 8.01908 22.4503 8.08708 22.5573 8.14508C22.5613 8.14708 22.5633 8.15008 22.5673 8.15208C22.5473 8.18508 22.5263 8.21808 22.5073 8.25208C22.2923 8.60608 22.0663 8.95508 21.8243 9.29408C21.7973 9.33108 21.7683 9.36808 21.7413 9.40608C21.4943 9.74508 21.2373 10.0761 20.9653 10.3961C20.9493 10.4151 20.9343 10.4341 20.9193 10.4531C20.6443 10.7751 20.3543 11.0821 20.0573 11.3821C20.0113 11.4281 19.9663 11.4751 19.9193 11.5211C19.6293 11.8061 19.3283 12.0791 19.0193 12.3411C18.9913 12.3631 18.9633 12.3861 18.9363 12.4091C18.8873 12.2011 18.8373 11.9921 18.7953 11.7821L18.6593 11.1031ZM15.0873 8.49608C15.7043 8.67608 16.3103 8.94808 16.8923 9.32108C17.0173 9.40008 17.1413 9.46508 17.2653 9.53308L16.2173 11.3351C16.0963 11.5441 15.9703 11.7591 15.7973 11.8911C15.6543 12.0001 15.4573 12.0361 15.3433 11.9651C15.1673 11.8551 15.1393 11.5411 15.1333 11.2491L15.0873 8.49608ZM22.5693 2.27608L22.6103 2.49708C22.6323 2.61408 22.6503 2.72708 22.6663 2.83908C22.6113 2.87608 22.5563 2.91108 22.4993 2.94408C22.4433 2.97708 22.3883 3.01208 22.3303 3.04208C22.2463 3.08408 22.1593 3.12008 22.0733 3.15408C22.0163 3.17808 21.9603 3.20408 21.9023 3.22408C21.8063 3.25708 21.7083 3.28008 21.6113 3.30308C21.5603 3.31508 21.5103 3.33108 21.4593 3.34108C21.3113 3.36808 21.1613 3.38508 21.0113 3.38808L20.9413 3.38908C20.8093 3.38908 20.6773 3.37708 20.5433 3.35908C20.2333 3.31608 19.9243 3.22708 19.6303 3.09008C19.2383 2.90608 18.8883 2.64908 18.6063 2.33808C19.2893 1.82208 20.1183 1.52908 20.9673 1.50808L21.0633 1.50708C21.2623 1.50708 21.4613 1.52608 21.6583 1.55608C21.7213 1.56508 21.7823 1.58108 21.8453 1.59408C21.9793 1.62108 22.1123 1.65208 22.2443 1.69308C22.3143 1.71408 22.3833 1.73908 22.4523 1.76408C22.5753 1.80908 22.6953 1.86008 22.8143 1.91708C22.8793 1.94908 22.9453 1.97908 23.0103 2.01408C23.0403 2.03108 23.0683 2.05208 23.0973 2.06908C22.9933 2.11608 22.8873 2.16108 22.7753 2.20108L22.5693 2.27608ZM22.1333 4.93608C21.5133 5.46208 20.4803 5.54208 19.8413 5.11208C19.7033 4.81108 19.6333 4.49608 19.6333 4.17708C19.6333 4.01108 19.6513 3.84508 19.6893 3.68008C19.7083 3.68708 19.7283 3.69208 19.7473 3.69908C19.7883 3.71408 19.8283 3.72608 19.8693 3.73908C19.9463 3.76308 20.0243 3.78608 20.1023 3.80608C20.1453 3.81608 20.1873 3.82608 20.2293 3.83508C20.3113 3.85208 20.3933 3.86608 20.4753 3.87708C20.5123 3.88308 20.5493 3.88908 20.5873 3.89308C20.7053 3.90508 20.8233 3.91308 20.9413 3.91308L21.0233 3.91208C21.1893 3.90808 21.3553 3.88808 21.5203 3.85908C21.5723 3.85108 21.6243 3.83608 21.6753 3.82508C21.7893 3.80008 21.9023 3.77008 22.0143 3.73408C22.0723 3.71508 22.1293 3.69408 22.1863 3.67308C22.2943 3.63108 22.3993 3.58408 22.5043 3.53308C22.5563 3.50808 22.6083 3.48408 22.6593 3.45608C22.6813 3.44308 22.7043 3.43508 22.7263 3.42208C22.7513 4.02108 22.6243 4.51808 22.1333 4.93608ZM19.4383 5.45508L19.4443 5.46508L19.4953 5.50308C19.8713 5.77908 20.3353 5.92408 20.8373 5.92408C21.4293 5.92408 22.0193 5.71108 22.4563 5.34008C23.2313 4.68108 23.2873 3.84808 23.2093 3.09508L23.2133 3.09308L23.1933 2.93708L23.1523 2.61508C23.3033 2.55108 23.4503 2.48208 23.5963 2.41308L23.8293 2.30408C23.8463 2.29708 23.8623 2.28908 23.8793 2.28108C23.9203 2.77508 23.9763 3.69208 23.8873 4.28108C23.8263 4.68608 23.7423 5.23908 23.9833 5.71308C24.0973 5.93708 24.3023 6.11608 24.5343 6.20908C24.2113 6.45308 23.8203 6.64508 23.3873 6.76708C23.0443 6.86508 22.6563 6.92308 22.2023 6.94708C21.9103 6.96208 21.6173 6.96408 21.3263 6.95408C21.2083 6.95008 21.0883 6.94308 20.9683 6.93308C20.4023 6.88508 20.0243 6.75808 19.7433 6.52308C19.5303 6.34408 19.3883 6.04308 19.3813 5.75608C19.3793 5.66808 19.3943 5.55908 19.4383 5.45508ZM23.0073 7.38708L22.9263 7.53808C22.8973 7.59208 22.8653 7.64608 22.8343 7.69908C22.8273 7.69608 22.8193 7.69408 22.8123 7.69008C22.7283 7.64708 22.6483 7.59608 22.5703 7.53108C22.5703 7.53108 22.5653 7.52508 22.5593 7.51608C22.5563 7.51208 22.5513 7.50108 22.5483 7.49408C22.5423 7.48408 22.5373 7.47308 22.5313 7.45708C22.5303 7.45508 22.5293 7.45008 22.5283 7.44908C22.6963 7.43308 22.8553 7.41308 23.0073 7.38708ZM19.0603 14.7001C19.0453 14.6611 19.0313 14.6191 19.0183 14.5731C18.8153 13.8911 18.7543 13.4461 18.7353 13.2461C18.7653 13.2211 18.7963 13.1961 18.8263 13.1711L18.9393 13.0811C20.5743 11.7841 21.9913 10.1461 23.0583 8.33808L23.2323 8.03508C23.2443 8.01408 23.2573 7.99308 23.2693 7.97208L23.6773 8.09108C23.6213 8.24908 23.5623 8.40608 23.5013 8.56108C22.7003 10.6261 21.4853 12.4921 19.8863 13.9911C19.6203 14.2401 19.3443 14.4751 19.0603 14.7001ZM23.8063 9.18408C23.8743 9.02308 23.9333 8.85608 23.9963 8.69108C24.0623 8.52008 24.1333 8.35408 24.1943 8.17908C24.2053 8.18408 24.2183 8.18808 24.2293 8.19308C24.3083 8.22608 24.3913 8.25708 24.4783 8.28608C24.4823 8.28808 24.4863 8.29008 24.4903 8.29108C24.4443 8.44208 24.3953 8.59108 24.3463 8.74008C24.2943 8.89708 24.2443 9.05608 24.1873 9.21108C24.1173 9.40408 24.0393 9.59308 23.9613 9.78308C23.9013 9.93208 23.8443 10.0831 23.7793 10.2301C23.6943 10.4231 23.6003 10.6121 23.5083 10.8021C23.4413 10.9411 23.3773 11.0811 23.3063 11.2181C23.2043 11.4161 23.0913 11.6081 22.9813 11.8011C22.9113 11.9251 22.8453 12.0511 22.7713 12.1731C22.6373 12.3951 22.4933 12.6101 22.3483 12.8261C22.2903 12.9141 22.2363 13.0041 22.1763 13.0901C21.9693 13.3881 21.7523 13.6791 21.5253 13.9631C21.4533 14.0541 21.3743 14.1391 21.3003 14.2281C21.1413 14.4191 20.9833 14.6111 20.8153 14.7951C20.7133 14.9081 20.6043 15.0141 20.4983 15.1231C20.3643 15.2621 20.2323 15.4021 20.0943 15.5371C20.0533 15.5301 20.0123 15.5241 19.9723 15.5141C19.9433 15.5071 19.9143 15.5021 19.8863 15.4931C19.8043 15.4691 19.7243 15.4371 19.6463 15.3991C19.6413 15.3961 19.6363 15.3951 19.6313 15.3921L19.6193 15.3851C19.5073 15.3271 19.4023 15.2591 19.3043 15.1781C19.4343 15.0761 19.5563 14.9651 19.6823 14.8581C19.8033 14.7571 19.9253 14.6601 20.0423 14.5541C20.1963 14.4161 20.3413 14.2701 20.4893 14.1251C20.5993 14.0171 20.7123 13.9121 20.8193 13.8001C20.9593 13.6521 21.0923 13.4951 21.2263 13.3411C21.3313 13.2211 21.4403 13.1051 21.5413 12.9811C21.6543 12.8431 21.7593 12.6951 21.8683 12.5511C22.3473 11.9181 22.7793 11.2411 23.1623 10.5231C23.2163 10.4241 23.2743 10.3271 23.3253 10.2261C23.4243 10.0301 23.5133 9.82708 23.6043 9.62608C23.6713 9.47908 23.7433 9.33408 23.8063 9.18408ZM20.4753 24.9431C20.4033 26.2911 20.3293 27.6851 19.9843 28.9881C19.8983 29.3151 19.7933 29.6401 19.6903 29.9651C19.4353 30.7611 19.1723 31.5851 19.1613 32.4531L19.1603 32.5761C19.1593 32.9051 19.1573 33.2451 18.9753 33.4091C18.8543 33.5181 18.6553 33.5471 18.4273 33.5721L16.1493 33.8191L16.1453 34.0811V33.8191L16.1053 33.7741C16.2473 33.4991 16.5373 33.2851 16.7543 33.1551C16.8313 33.1091 16.9103 33.0641 16.9893 33.0191C17.3843 32.7951 17.7933 32.5641 18.0453 32.1391C18.2633 31.7691 18.3033 31.3451 18.3373 30.9711C18.3933 30.3661 18.4443 29.8311 18.4973 29.2971C18.5993 28.2361 18.7023 27.1731 18.8353 25.5551C18.9713 23.8971 18.8713 22.8821 18.7833 21.9871C18.7673 21.8221 18.7513 21.6631 18.7373 21.5051L20.8183 21.5071C20.5973 22.6391 20.5353 23.8081 20.4753 24.9431ZM24.1713 30.9711C24.2063 31.3451 24.2453 31.7691 24.4643 32.1391C24.7153 32.5641 25.1243 32.7951 25.5193 33.0191C25.5983 33.0641 25.6773 33.1091 25.7543 33.1551C25.9723 33.2851 26.2623 33.4981 26.4013 33.7961C26.3953 33.8061 26.3813 33.8191 26.3643 33.8191L24.0813 33.5721C23.8533 33.5471 23.6553 33.5181 23.5343 33.4091C23.3513 33.2441 23.3503 32.9041 23.3493 32.5741L23.3473 32.4531C23.3373 31.5851 23.0743 30.7611 22.8193 29.9651C22.7153 29.6401 22.6113 29.3151 22.5243 28.9881C22.1803 27.6851 22.1063 26.2911 22.0343 24.9431C21.9743 23.8091 21.9123 22.6401 21.6903 21.5081L23.7713 21.5111C23.7573 21.6671 23.7413 21.8251 23.7253 21.9891C23.6383 22.8841 23.5383 23.8981 23.6743 25.5551C23.8063 27.1781 23.9103 28.2421 24.0133 29.3071C24.0643 29.8381 24.1163 30.3691 24.1713 30.9711ZM24.2893 20.9871L21.0553 20.9831L17.9813 20.9791C18.3663 19.2851 18.8853 17.7011 19.5493 16.1811L20.0823 16.1791C20.1403 16.1781 21.4903 16.1661 22.1643 15.6481C22.1813 15.6351 22.1983 15.6221 22.2133 15.6091C22.2693 15.6261 22.3243 15.6451 22.3733 15.6671C22.4053 15.6811 22.4423 15.6921 22.4713 15.7091C22.5623 15.7601 22.6433 15.8191 22.7083 15.8911C22.7473 15.9351 22.7803 15.9851 22.8123 16.0361L22.8533 16.1341L22.8593 16.1361C22.9473 16.3091 23.0143 16.5051 23.0743 16.7151L24.2893 20.9871ZM22.9513 15.4091C22.9453 15.4051 22.9383 15.4011 22.9323 15.3971C22.8563 15.3341 22.7723 15.2781 22.6813 15.2291C22.6753 15.2271 22.6713 15.2221 22.6653 15.2191C22.6873 15.1991 22.7063 15.1761 22.7273 15.1551C22.8083 15.0761 22.8883 14.9951 22.9653 14.9101C22.9993 14.8731 23.0333 14.8321 23.0663 14.7941C23.1323 14.7161 23.1983 14.6351 23.2633 14.5521C23.2793 14.5301 23.2973 14.5111 23.3143 14.4891L22.9513 15.4091ZM23.0253 14.0131C22.9483 14.1231 22.8703 14.2261 22.7913 14.3231C22.2823 14.9561 21.7043 15.4311 20.9043 15.5721C20.8603 15.5801 20.8153 15.5881 20.7713 15.5951C20.8423 15.5221 20.9073 15.4441 20.9773 15.3711C22.5383 13.7131 23.7753 11.7351 24.5903 9.58308C24.6693 9.37608 24.7403 9.16808 24.8103 8.95808C24.8793 8.75308 24.9523 8.54908 25.0143 8.34008L25.1303 8.37208L25.1263 8.44408C24.9863 10.4641 24.3583 12.1291 23.0253 14.0131ZM26.4063 11.9661C26.4693 13.3601 26.8193 14.6861 27.2353 16.1511C27.5383 17.2181 27.8263 17.7981 28.0803 18.3101C28.2553 18.6631 28.4213 18.9971 28.5753 19.4571C28.7183 19.8821 28.7313 20.1771 28.6173 20.3871C28.4723 20.6501 28.1923 20.6811 27.9533 20.5301C27.6413 20.3341 27.4773 19.9471 27.3023 19.5371C27.2643 19.4471 27.2263 19.3581 27.1873 19.2721C26.0903 16.8531 25.5083 14.1951 24.9423 11.6131C24.9523 11.5871 24.9603 11.5601 24.9703 11.5341C25.1433 11.0841 25.2833 10.6211 25.3893 10.1491C25.4163 10.0341 25.6803 8.88608 25.6013 8.84908C25.6423 8.86808 25.6903 8.88508 25.7313 8.90708C26.0453 9.07808 26.1943 9.27008 26.2623 9.58908C26.3753 10.1231 26.3823 10.6691 26.3893 11.2461C26.3923 11.4871 26.3953 11.7271 26.4063 11.9661ZM28.9913 7.57008C28.4293 7.68108 26.8763 8.00808 25.8623 8.38908C25.7933 8.35508 25.7223 8.32308 25.6493 8.29108C25.6513 8.25708 25.6543 8.22308 25.6553 8.18808L25.6653 7.97608L24.9083 7.76908L24.6533 7.73708L24.6403 7.78508C24.6083 7.77508 24.5743 7.76508 24.5443 7.75408C24.5153 7.74308 24.4863 7.73308 24.4573 7.72108C24.3543 7.68008 24.2563 7.63708 24.1673 7.58908L23.8883 7.48208L23.8503 7.59708L23.0843 7.37408C23.2363 7.34608 23.3823 7.31208 23.5213 7.27308C24.0913 7.11208 24.8883 6.76408 25.4483 6.02208L25.0623 5.68308C24.9203 5.84108 24.5503 5.70008 24.4333 5.47008C24.2823 5.17308 24.3243 4.79308 24.3893 4.36208C24.5263 3.45608 24.3593 1.94308 24.3523 1.87908L24.3153 1.55308L24.0153 1.66208C23.8953 1.70608 23.7813 1.75408 23.6693 1.80408C23.6553 1.79508 23.6393 1.78808 23.6253 1.77808C23.4553 1.66408 23.2783 1.55908 23.0963 1.46908C23.0713 1.45708 23.0453 1.44508 23.0203 1.43308C22.8333 1.34408 22.6413 1.26608 22.4453 1.20308C22.4233 1.19608 22.4013 1.19108 22.3803 1.18408C22.1773 1.12308 21.9713 1.07308 21.7623 1.03908C21.7483 1.03708 21.7343 1.03708 21.7203 1.03408C21.5023 1.00208 21.2833 0.983082 21.0633 0.983082L20.9553 0.984082C19.9063 1.01008 18.8843 1.40608 18.0783 2.10008L17.8883 2.26208L18.0413 2.46308C18.1243 2.57208 18.2153 2.67608 18.3113 2.77508C18.3423 2.80708 18.3773 2.83708 18.4093 2.86808C18.4773 2.93408 18.5453 2.99708 18.6183 3.05708C18.6593 3.09108 18.7023 3.12208 18.7453 3.15508C18.8143 3.20708 18.8853 3.25808 18.9583 3.30608C19.0053 3.33608 19.0523 3.36508 19.1003 3.39308C19.1343 3.41308 19.1663 3.43608 19.2003 3.45508C19.1273 3.63208 19.0523 3.84008 19.0483 4.19008C19.0453 4.54308 19.0853 4.83308 19.1163 4.99708C18.9523 5.20308 18.8663 5.47108 18.8733 5.76808C18.8833 6.20908 19.0943 6.65408 19.4233 6.92908C19.7623 7.21408 20.1723 7.34208 20.5323 7.40508C20.4703 7.47808 20.4003 7.54008 20.3193 7.58308C20.1103 7.69708 19.8473 7.70208 19.5693 7.70708C19.3013 7.71208 19.0243 7.71708 18.7523 7.81508C18.1833 8.02008 17.8473 8.53408 17.5243 9.08808L17.5233 9.09008C17.4033 9.02408 17.2813 8.95308 17.1603 8.87608C16.4913 8.44808 15.7913 8.13508 15.0783 7.94408L15.0683 7.32008C15.0533 6.46008 14.7993 5.94908 14.3143 5.80208C13.8713 5.66808 13.3443 5.97108 13.1323 6.46208C13.0893 6.56108 13.0593 6.66308 13.0373 6.76508C13.0303 6.80108 13.0273 6.83708 13.0213 6.87308C13.0113 6.94108 13.0003 7.00708 12.9953 7.07408C12.9923 7.11708 12.9923 7.15808 12.9913 7.20008C12.9893 7.26108 12.9883 7.32208 12.9893 7.38108C12.9903 7.42608 12.9923 7.46708 12.9943 7.51108C12.9953 7.53608 12.9953 7.56308 12.9963 7.58808C12.7153 7.56008 12.4503 7.54208 12.1973 7.53508V3.76108C13.1803 3.80308 14.8343 3.71008 16.3733 2.78208C16.6903 2.59008 17.0013 2.38408 17.3153 2.17708C18.5013 1.39308 19.7273 0.583082 21.3393 0.583082C22.4263 0.583082 23.5963 0.942082 24.9413 1.69208C25.0443 1.73608 27.3553 2.71108 28.9913 2.80908V7.57008Z" fill="black"/>
</svg>
