<svg width="32" height="36" viewBox="0 0 32 36" fill="none" xmlns="http://www.w3.org/2000/svg">
<g clip-path="url(#clip0_81_982)">
<path fill-rule="evenodd" clip-rule="evenodd" d="M31.4886 10.8711C31.5806 11.6541 31.1916 12.4811 30.5706 12.9591C29.0066 14.1681 26.9356 13.4551 25.2046 13.1181C25.5186 15.8811 24.7526 18.7241 23.0616 20.9851C22.6646 24.1801 22.3986 26.9111 22.5916 32.4801C23.4466 32.7271 23.6846 34.4281 23.7246 34.7791L23.7566 35.0591H21.9276H21.4156H18.5626V32.9611L18.7006 32.8901C18.7006 32.8901 18.8106 32.8341 18.9826 32.7621C19.0576 31.3081 19.0726 29.8271 18.7546 28.3971C18.4796 27.1611 17.9766 25.9551 17.4126 24.8231C15.0736 25.4891 12.5426 25.4161 10.2736 24.5251C8.67264 26.6421 7.76364 28.7531 8.13764 32.4561C9.06964 32.6021 9.32164 34.4151 9.36364 34.7791L9.39464 35.0591H7.28164H6.76964H3.91564V32.9611L4.05364 32.8891C4.05364 32.8891 4.08264 32.8741 4.12964 32.8531L4.19864 31.8611C4.33464 29.9391 4.58464 27.9431 4.29464 26.0221C3.99264 24.0251 2.98964 22.2501 2.50564 20.3071C1.19864 21.1101 0.355639 18.6601 0.525639 17.7631C0.780639 16.4101 2.07564 15.4891 3.44664 15.7041C4.26464 14.7131 5.40664 14.0881 6.68364 13.9211C8.17364 13.7261 9.66064 14.0611 11.1516 14.0381C13.7036 13.9991 16.1126 12.6461 17.6236 10.6281C15.5476 10.2381 13.8516 8.74814 13.4386 6.66414C13.0906 4.91014 13.6096 2.96214 14.8806 1.67814C16.4736 0.0671405 18.9566 -0.18186 21.0866 0.24014C23.2826 0.67514 25.6396 1.79914 26.4986 3.99614C27.1276 4.56414 27.4476 5.41914 27.6546 6.10914L27.7106 6.29614C27.8846 6.88114 28.0556 7.48514 28.3896 8.00314C28.7326 8.53514 29.2386 8.81714 29.7986 9.08414C29.6636 9.01914 29.7176 9.04514 29.7986 9.08414C30.5856 9.45614 31.3776 9.92914 31.4886 10.8711ZM22.6136 20.7431C24.2626 18.5681 25.0336 15.6971 24.6936 13.0271C24.6666 13.0231 24.6396 13.0201 24.6126 13.0161C24.5706 14.6721 24.3376 16.4241 23.6536 17.9501C23.2416 18.8681 22.6656 19.4681 21.9856 20.1901C21.4206 20.7911 21.1566 21.6171 21.0096 22.4091C21.6096 21.9171 22.1456 21.3591 22.6136 20.7431ZM21.0616 32.6381C21.0686 32.6451 21.0766 32.6501 21.0846 32.6571C21.1296 32.6401 21.1806 32.6251 21.2306 32.6091C21.5036 32.5241 21.7936 32.4601 22.0806 32.4451C21.9056 27.3401 22.1156 24.6141 22.4586 21.7271C22.3716 21.8241 22.2766 21.9181 22.1846 22.0121C21.7896 22.4201 21.3676 22.7961 20.9086 23.1331C20.5736 26.2901 21.1976 29.4731 21.0616 32.6381ZM21.8636 34.5551H23.1786C23.0596 33.8631 22.7796 33.0231 22.4256 32.9581L22.3246 32.9501C22.0186 32.9281 21.7046 32.9951 21.4136 33.0831C21.6586 33.5331 21.7816 34.0531 21.8636 34.5551ZM19.0716 34.5551H21.3466C21.2656 34.0931 21.1526 33.5821 20.8836 33.1891C20.5116 32.6451 19.5426 33.0671 19.0716 33.2741V34.5551ZM10.3516 24.0171C12.5056 24.8941 14.9446 24.9841 17.1806 24.3691C16.8856 23.8081 16.5296 23.2401 16.3996 22.6131C16.2736 21.9971 16.4386 21.3891 16.6986 20.8291C14.8286 21.3711 12.8516 21.8641 10.8896 21.6811C10.8846 22.4671 10.7296 23.3211 10.2936 23.9921L10.3516 24.0171ZM7.21764 34.5551H8.81764C8.74364 34.1231 8.56864 32.9601 7.96464 32.9491L7.89664 32.9471C7.52564 32.9471 7.15564 33.0381 6.80864 33.1651C7.02264 33.5951 7.14064 34.0831 7.21764 34.5551ZM7.62364 32.4521C7.28264 28.9961 8.02164 26.8751 9.39164 24.8771C8.96364 25.1431 8.49564 25.2591 8.01264 25.3811C6.73964 27.5751 6.29564 30.1921 6.63464 32.6901C6.94864 32.5731 7.28764 32.4761 7.62364 32.4521ZM4.42464 34.5551H6.69964C6.61964 34.0951 6.50864 33.5761 6.23464 33.1881L6.22764 33.1791C5.83164 32.6621 4.90664 33.0581 4.42464 33.2741V34.5551ZM1.04264 17.7721C0.931639 18.2511 1.01464 18.7531 1.25364 19.1821C1.40264 19.4481 1.93264 20.2181 2.30064 19.8301C2.32964 19.8001 2.35564 19.7701 2.38064 19.7391C2.17364 18.4941 2.40664 17.2351 3.09964 16.1701C2.12064 16.1491 1.26164 16.8231 1.04264 17.7721ZM16.8196 12.2561C15.8546 13.1231 14.7046 13.7921 13.4606 14.1771C12.1036 14.5971 10.7446 14.5651 9.34364 14.4531C7.96064 14.3411 6.48864 14.2221 5.21864 14.8921C3.98864 15.5391 3.08364 16.7751 2.86064 18.1411C2.61364 19.6511 3.26864 21.1231 3.79764 22.5011C4.16864 23.4671 4.50964 24.4551 4.71164 25.4701C5.12964 27.5751 4.85564 29.7781 4.70664 31.8971L4.65464 32.6411C5.08064 32.4951 5.63464 32.3541 6.08564 32.4681C5.88064 30.6411 6.11764 28.8311 6.68064 27.0891C6.82564 26.6431 7.01564 26.2011 7.22364 25.7791C7.37064 25.4821 7.51764 24.9901 7.87364 24.8961C8.57264 24.7121 9.21764 24.5261 9.70064 23.9451L9.70364 23.9411C10.2816 23.2411 10.4076 22.2821 10.3756 21.4071L10.3656 21.1071L10.6646 21.1481C12.8376 21.4401 15.0636 20.7921 17.1246 20.1771L17.7306 19.9961L17.4196 20.5431C17.0706 21.1561 16.7456 21.8491 16.9136 22.5671C17.0656 23.2231 17.4736 23.8171 17.7766 24.4111L17.9126 24.6791L17.9086 24.6801C18.0066 24.8791 18.1056 25.0871 18.2086 25.3211C18.2036 25.3091 18.2016 25.3061 18.2096 25.3241C19.1476 27.4761 18.3026 25.5371 18.2136 25.3321C19.2446 27.6991 19.6656 29.0671 19.5026 32.5781C19.8376 32.4791 20.2036 32.4131 20.5536 32.4431C20.6566 29.4671 20.1536 26.4921 20.3716 23.5191L20.3446 23.5381L20.4106 22.9701L20.4236 22.8591L20.4266 22.8561C20.5536 21.8561 20.8166 20.8021 21.4726 20.0041C21.8066 19.5991 22.2396 19.2991 22.5556 18.8731C22.7996 18.5431 22.9976 18.1801 23.1656 17.8071C23.8416 16.3031 24.0736 14.5861 24.1056 12.9511C22.4546 12.7541 20.9956 12.2061 20.5306 10.4421C19.7906 10.7011 18.9716 10.7841 18.1916 10.7141C17.7956 11.2771 17.3336 11.7951 16.8196 12.2561ZM25.8566 3.79914C25.4386 2.98414 24.7626 2.33814 23.9846 1.86014C22.2426 0.79214 19.9266 0.29114 17.9076 0.68414C16.1826 1.02014 14.7656 2.10214 14.1576 3.75814C13.6166 5.23214 13.7386 6.98514 14.6686 8.28214C14.3396 7.82414 13.6996 6.93514 14.6706 8.28514C14.9246 8.63814 14.8386 8.51914 14.6726 8.28714C15.7226 9.74414 17.6456 10.4171 19.4036 10.1891C20.3716 10.0641 21.3636 9.65014 22.0026 8.89514C22.4926 8.31614 22.8866 7.40614 22.3916 6.71014L22.1066 6.30914L22.6016 6.31214C23.1996 6.31214 23.7986 6.24514 24.3826 6.11514C23.5026 4.15714 21.0896 2.75814 18.9436 3.34314C17.9006 3.62714 16.8276 4.50814 17.0926 5.70414C17.3376 6.80814 18.8116 7.08214 19.7266 6.67914C18.6726 6.56214 18.4356 5.11314 19.4506 4.73514C20.5356 4.33614 21.1606 5.61014 20.6356 6.45614C19.6596 8.03014 16.6816 7.27414 16.6336 5.42214C16.5806 3.37514 19.0306 2.55814 20.7186 2.85614C22.4566 3.16214 24.0786 4.39514 24.7926 6.00314C25.1916 5.89114 26.1356 5.73314 26.2526 5.25814C26.3596 4.82014 26.0516 4.18114 25.8566 3.79914ZM19.3986 6.06914C19.7546 6.36914 19.4986 6.15414 19.4036 6.07314C19.5806 6.22214 19.8986 6.46614 20.1516 6.36014C20.4146 6.25014 20.4446 5.74514 20.3836 5.51914C20.1226 4.55614 18.6526 5.43714 19.3986 6.06914C19.3666 6.04214 19.3556 6.03314 19.3986 6.06914ZM29.7216 9.60714C29.0206 9.27014 28.3776 8.93314 27.9496 8.26014C27.5956 7.70414 27.4086 7.06514 27.2226 6.44014L27.1666 6.25314C27.0696 5.92614 26.9446 5.55914 26.7716 5.21314C26.7276 5.94414 25.9206 6.18114 25.3426 6.37414C24.5926 6.62614 23.8066 6.77414 23.0156 6.80914C23.5566 8.25214 22.2266 9.67214 21.0166 10.2431C21.1756 10.8881 21.5236 11.5171 22.0966 11.8881C22.7086 12.2821 23.4576 12.3661 24.1646 12.4491L24.3946 12.4771C24.3966 12.4771 24.3976 12.4781 24.3996 12.4781L24.6186 12.5051V12.5071C24.7036 12.5181 24.7886 12.5281 24.8726 12.5411L24.9326 12.5521C26.2066 12.7641 27.4796 13.2491 28.7886 13.1051C28.3406 12.9271 27.9476 12.6191 27.6706 12.2261C27.5686 12.0811 27.3506 11.7941 27.3796 11.6051C27.4006 11.4631 27.6056 11.3851 27.7246 11.4601C27.8816 11.5611 27.9886 11.8981 28.1116 12.0501C28.2646 12.2381 28.4436 12.4051 28.6476 12.5381C28.9886 12.7591 29.3956 12.8781 29.8026 12.8331C29.9676 12.7561 30.1216 12.6671 30.2586 12.5611C30.2366 12.5781 30.2426 12.5731 30.2586 12.5611C30.3406 12.4981 30.7816 12.1571 30.2586 12.5611C30.7556 12.1771 31.0766 11.4921 30.9736 10.8661C30.8646 10.2081 30.2746 9.87214 29.7216 9.60714ZM26.7326 8.96014C25.7186 8.96014 25.7186 7.39814 26.7326 7.39814C27.7476 7.39814 27.7476 8.96014 26.7326 8.96014ZM14.6706 8.28514C14.6696 8.28414 14.6696 8.28314 14.6686 8.28214C14.6696 8.28414 14.6716 8.28514 14.6726 8.28714C14.6716 8.28614 14.6706 8.28614 14.6706 8.28514ZM7.62364 32.4521C7.28264 28.9961 7.62264 32.4521 7.62364 32.4521V32.4521ZM29.7986 9.08414C29.9226 9.14214 30.1106 9.23214 29.7986 9.08414V9.08414Z" fill="black"/>
</g>
<defs>
<clipPath id="clip0_81_982">
<rect width="31" height="35" fill="white" transform="translate(0.5 0.0585938)"/>
</clipPath>
</defs>
</svg>
