<svg width="32" height="36" viewBox="0 0 32 36" fill="none" xmlns="http://www.w3.org/2000/svg">
<path fill-rule="evenodd" clip-rule="evenodd" d="M31.4886 11.3111C31.5806 12.0941 31.1916 12.9211 30.5706 13.3991C29.0066 14.6081 26.9356 13.8951 25.2046 13.5581C25.5186 16.3211 24.7526 19.1641 23.0616 21.4251C22.6646 24.6201 22.3986 27.3511 22.5916 32.9201C23.4466 33.1671 23.6846 34.8681 23.7246 35.2191L23.7566 35.4991H21.9276H21.4156H18.5626V33.4011L18.7006 33.3301C18.7006 33.3301 18.8106 33.2741 18.9826 33.2021C19.0576 31.7481 19.0726 30.2671 18.7546 28.8371C18.4796 27.6011 17.9766 26.3951 17.4126 25.2631C15.0736 25.9291 12.5426 25.8561 10.2736 24.9651C8.67264 27.0821 7.76364 29.1931 8.13764 32.8961C9.06964 33.0421 9.32164 34.8551 9.36364 35.2191L9.39464 35.4991H7.28164H6.76964H3.91564V33.4011L4.05364 33.3291C4.05364 33.3291 4.08264 33.3141 4.12964 33.2931L4.19864 32.3011C4.33464 30.3791 4.58464 28.3831 4.29464 26.4621C3.99264 24.4651 2.98964 22.6901 2.50564 20.7471C1.19864 21.5501 0.355639 19.1001 0.525639 18.2031C0.780639 16.8501 2.07564 15.9291 3.44664 16.1441C4.26464 15.1531 5.40664 14.5281 6.68364 14.3611C8.17364 14.1661 9.66064 14.5011 11.1516 14.4781C13.7036 14.4391 16.1126 13.0861 17.6236 11.0681C15.5476 10.6781 13.8516 9.18808 13.4386 7.10408C13.0906 5.35008 13.6096 3.40208 14.8806 2.11808C16.4736 0.507082 18.9566 0.258082 21.0866 0.680082C23.2826 1.11508 25.6396 2.23908 26.4986 4.43608C27.1276 5.00408 27.4476 5.85908 27.6546 6.54908L27.7106 6.73608C27.8846 7.32108 28.0556 7.92508 28.3896 8.44308C28.7326 8.97508 29.2386 9.25708 29.7986 9.52408C29.6636 9.45908 29.7176 9.48508 29.7986 9.52408C30.5856 9.89608 31.3776 10.3691 31.4886 11.3111ZM22.6136 21.1831C24.2626 19.0081 25.0336 16.1371 24.6936 13.4671C24.6666 13.4631 24.6396 13.4601 24.6126 13.4561C24.5706 15.1121 24.3376 16.8641 23.6536 18.3901C23.2416 19.3081 22.6656 19.9081 21.9856 20.6301C21.4206 21.2311 21.1566 22.0571 21.0096 22.8491C21.6096 22.3571 22.1456 21.7991 22.6136 21.1831ZM21.0616 33.0781C21.0686 33.0851 21.0766 33.0901 21.0846 33.0971C21.1296 33.0801 21.1806 33.0651 21.2306 33.0491C21.5036 32.9641 21.7936 32.9001 22.0806 32.8851C21.9056 27.7801 22.1156 25.0541 22.4586 22.1671C22.3716 22.2641 22.2766 22.3581 22.1846 22.4521C21.7896 22.8601 21.3676 23.2361 20.9086 23.5731C20.5736 26.7301 21.1976 29.9131 21.0616 33.0781ZM21.8636 34.9951H23.1786C23.0596 34.3031 22.7796 33.4631 22.4256 33.3981L22.3246 33.3901C22.0186 33.3681 21.7046 33.4351 21.4136 33.5231C21.6586 33.9731 21.7816 34.4931 21.8636 34.9951ZM19.0716 34.9951H21.3466C21.2656 34.5331 21.1526 34.0221 20.8836 33.6291C20.5116 33.0851 19.5426 33.5071 19.0716 33.7141V34.9951ZM10.3516 24.4571C12.5056 25.3341 14.9446 25.4241 17.1806 24.8091C16.8856 24.2481 16.5296 23.6801 16.3996 23.0531C16.2736 22.4371 16.4386 21.8291 16.6986 21.2691C14.8286 21.8111 12.8516 22.3041 10.8896 22.1211C10.8846 22.9071 10.7296 23.7611 10.2936 24.4321L10.3516 24.4571ZM7.21764 34.9951H8.81764C8.74364 34.5631 8.56864 33.4001 7.96464 33.3891L7.89664 33.3871C7.52564 33.3871 7.15564 33.4781 6.80864 33.6051C7.02264 34.0351 7.14064 34.5231 7.21764 34.9951ZM7.62364 32.8921C7.28264 29.4361 8.02164 27.3151 9.39164 25.3171C8.96364 25.5831 8.49564 25.6991 8.01264 25.8211C6.73964 28.0151 6.29564 30.6321 6.63464 33.1301C6.94864 33.0131 7.28764 32.9161 7.62364 32.8921ZM4.42464 34.9951H6.69964C6.61964 34.5351 6.50864 34.0161 6.23464 33.6281L6.22764 33.6191C5.83164 33.1021 4.90664 33.4981 4.42464 33.7141V34.9951ZM1.04264 18.2121C0.931639 18.6911 1.01464 19.1931 1.25364 19.6221C1.40264 19.8881 1.93264 20.6581 2.30064 20.2701C2.32964 20.2401 2.35564 20.2101 2.38064 20.1791C2.17364 18.9341 2.40664 17.6751 3.09964 16.6101C2.12064 16.5891 1.26164 17.2631 1.04264 18.2121ZM16.8196 12.6961C15.8546 13.5631 14.7046 14.2321 13.4606 14.6171C12.1036 15.0371 10.7446 15.0051 9.34364 14.8931C7.96064 14.7811 6.48864 14.6621 5.21864 15.3321C3.98864 15.9791 3.08364 17.2151 2.86064 18.5811C2.61364 20.0911 3.26864 21.5631 3.79764 22.9411C4.16864 23.9071 4.50964 24.8951 4.71164 25.9101C5.12964 28.0151 4.85564 30.2181 4.70664 32.3371L4.65464 33.0811C5.08064 32.9351 5.63464 32.7941 6.08564 32.9081C5.88064 31.0811 6.11764 29.2711 6.68064 27.5291C6.82564 27.0831 7.01564 26.6411 7.22364 26.2191C7.37064 25.9221 7.51764 25.4301 7.87364 25.3361C8.57264 25.1521 9.21764 24.9661 9.70064 24.3851L9.70364 24.3811C10.2816 23.6811 10.4076 22.7221 10.3756 21.8471L10.3656 21.5471L10.6646 21.5881C12.8376 21.8801 15.0636 21.2321 17.1246 20.6171L17.7306 20.4361L17.4196 20.9831C17.0706 21.5961 16.7456 22.2891 16.9136 23.0071C17.0656 23.6631 17.4736 24.2571 17.7766 24.8511L17.9126 25.1191L17.9086 25.1201C18.0066 25.3191 18.1056 25.5271 18.2086 25.7611C18.2036 25.7491 18.2016 25.7461 18.2096 25.7641C19.1476 27.9161 18.3026 25.9771 18.2136 25.7721C19.2446 28.1391 19.6656 29.5071 19.5026 33.0181C19.8376 32.9191 20.2036 32.8531 20.5536 32.8831C20.6566 29.9071 20.1536 26.9321 20.3716 23.9591L20.3446 23.9781L20.4106 23.4101L20.4236 23.2991L20.4266 23.2961C20.5536 22.2961 20.8166 21.2421 21.4726 20.4441C21.8066 20.0391 22.2396 19.7391 22.5556 19.3131C22.7996 18.9831 22.9976 18.6201 23.1656 18.2471C23.8416 16.7431 24.0736 15.0261 24.1056 13.3911C22.4546 13.1941 20.9956 12.6461 20.5306 10.8821C19.7906 11.1411 18.9716 11.2241 18.1916 11.1541C17.7956 11.7171 17.3336 12.2351 16.8196 12.6961ZM25.8566 4.23908C25.4386 3.42408 24.7626 2.77808 23.9846 2.30008C22.2426 1.23208 19.9266 0.731082 17.9076 1.12408C16.1826 1.46008 14.7656 2.54208 14.1576 4.19808C13.6166 5.67208 13.7386 7.42508 14.6686 8.72208C14.3396 8.26408 13.6996 7.37508 14.6706 8.72508C14.9246 9.07808 14.8386 8.95908 14.6726 8.72708C15.7226 10.1841 17.6456 10.8571 19.4036 10.6291C20.3716 10.5041 21.3636 10.0901 22.0026 9.33508C22.4926 8.75608 22.8866 7.84608 22.3916 7.15008L22.1066 6.74908L22.6016 6.75208C23.1996 6.75208 23.7986 6.68508 24.3826 6.55508C23.5026 4.59708 21.0896 3.19808 18.9436 3.78308C17.9006 4.06708 16.8276 4.94808 17.0926 6.14408C17.3376 7.24808 18.8116 7.52208 19.7266 7.11908C18.6726 7.00208 18.4356 5.55308 19.4506 5.17508C20.5356 4.77608 21.1606 6.05008 20.6356 6.89608C19.6596 8.47008 16.6816 7.71408 16.6336 5.86208C16.5806 3.81508 19.0306 2.99808 20.7186 3.29608C22.4566 3.60208 24.0786 4.83508 24.7926 6.44308C25.1916 6.33108 26.1356 6.17308 26.2526 5.69808C26.3596 5.26008 26.0516 4.62108 25.8566 4.23908ZM19.3986 6.50908C19.7546 6.80908 19.4986 6.59408 19.4036 6.51308C19.5806 6.66208 19.8986 6.90608 20.1516 6.80008C20.4146 6.69008 20.4446 6.18508 20.3836 5.95908C20.1226 4.99608 18.6526 5.87708 19.3986 6.50908C19.3666 6.48208 19.3556 6.47308 19.3986 6.50908ZM29.7216 10.0471C29.0206 9.71008 28.3776 9.37308 27.9496 8.70008C27.5956 8.14408 27.4086 7.50508 27.2226 6.88008L27.1666 6.69308C27.0696 6.36608 26.9446 5.99908 26.7716 5.65308C26.7276 6.38408 25.9206 6.62108 25.3426 6.81408C24.5926 7.06608 23.8066 7.21408 23.0156 7.24908C23.5566 8.69208 22.2266 10.1121 21.0166 10.6831C21.1756 11.3281 21.5236 11.9571 22.0966 12.3281C22.7086 12.7221 23.4576 12.8061 24.1646 12.8891L24.3946 12.9171C24.3966 12.9171 24.3976 12.9181 24.3996 12.9181L24.6186 12.9451V12.9471C24.7036 12.9581 24.7886 12.9681 24.8726 12.9811L24.9326 12.9921C26.2066 13.2041 27.4796 13.6891 28.7886 13.5451C28.3406 13.3671 27.9476 13.0591 27.6706 12.6661C27.5686 12.5211 27.3506 12.2341 27.3796 12.0451C27.4006 11.9031 27.6056 11.8251 27.7246 11.9001C27.8816 12.0011 27.9886 12.3381 28.1116 12.4901C28.2646 12.6781 28.4436 12.8451 28.6476 12.9781C28.9886 13.1991 29.3956 13.3181 29.8026 13.2731C29.9676 13.1961 30.1216 13.1071 30.2586 13.0011C30.2366 13.0181 30.2426 13.0131 30.2586 13.0011C30.3406 12.9381 30.7816 12.5971 30.2586 13.0011C30.7556 12.6171 31.0766 11.9321 30.9736 11.3061C30.8646 10.6481 30.2746 10.3121 29.7216 10.0471ZM26.7326 9.40008C25.7186 9.40008 25.7186 7.83808 26.7326 7.83808C27.7476 7.83808 27.7476 9.40008 26.7326 9.40008ZM14.6706 8.72508C14.6696 8.72408 14.6696 8.72308 14.6686 8.72208C14.6696 8.72408 14.6716 8.72508 14.6726 8.72708C14.6716 8.72608 14.6706 8.72608 14.6706 8.72508ZM7.62364 32.8921C7.28264 29.4361 7.62264 32.8921 7.62364 32.8921V32.8921ZM29.7986 9.52408C29.9226 9.58208 30.1106 9.67208 29.7986 9.52408V9.52408Z" fill="white"/>
</svg>
