<svg width="28" height="37" viewBox="0 0 28 37" fill="none" xmlns="http://www.w3.org/2000/svg">
<g clip-path="url(#clip0_81_1012)">
<path fill-rule="evenodd" clip-rule="evenodd" d="M27.5009 9.56106C27.6259 2.80006 22.1439 1.79206 22.0899 1.78206L21.3419 1.63106L21.8529 2.20506C23.4409 3.98806 23.4149 5.71506 23.2259 6.65906C22.6719 5.24206 21.7929 4.44106 21.7499 4.40206L21.4629 4.14506L21.3419 4.51406C19.5289 10.0831 21.5279 13.6681 21.8479 14.1871C21.7619 14.3951 21.6849 14.6061 21.6129 14.8131L21.5809 14.9051C21.4339 15.3301 21.2659 15.7441 21.0889 16.1461C20.9709 16.1071 20.8599 16.0871 20.7359 16.0861C19.9469 16.1051 19.4899 16.8561 19.2249 17.5141C18.9089 18.2991 18.5299 18.9481 17.8069 19.4141C17.5829 17.0581 17.0489 14.9771 16.2129 13.2251C17.1829 6.59206 20.9289 1.31206 20.9669 1.26006L21.4689 0.560059L20.6719 0.868059C17.5739 2.06906 15.7789 8.64906 15.1529 11.4161C14.5989 10.6491 14.1779 10.2981 14.1569 10.2811L13.9989 10.1521L13.8409 10.2801C13.8219 10.2961 13.4399 10.6131 12.9259 11.3021C12.2109 8.16906 10.4489 2.03806 7.4319 0.868059L6.6349 0.560059L7.1369 1.26006C7.1739 1.31106 10.8569 6.50306 11.8649 13.0561C10.9829 14.8401 10.4219 16.9781 10.1899 19.4141C9.4039 18.9071 9.0669 18.2021 8.7099 17.3651C8.4119 16.6651 7.7609 15.8591 6.9079 16.1451C6.7309 15.7431 6.5639 15.3301 6.4159 14.9051L6.3829 14.8091C6.3119 14.6041 6.2349 14.3941 6.1499 14.1871C6.4689 13.6681 8.4679 10.0841 6.6549 4.51406L6.5349 4.14506L6.2479 4.40206C6.2039 4.44106 5.3299 5.23806 4.7759 6.64806C4.5939 5.69706 4.5769 3.96606 6.1439 2.20506L6.6549 1.63106L5.9069 1.78206C4.4129 2.07306 2.9659 3.16806 2.0619 4.36506C1.0689 5.68006 0.598896 7.30706 0.512896 8.94706C0.401896 11.0451 1.3199 12.6741 3.2049 13.5921C2.7449 15.3021 4.5729 17.0161 5.9699 17.5551C5.9619 19.4921 8.5949 20.4851 10.0939 20.8631C10.0869 21.0441 10.0839 21.2301 10.0799 21.4171C9.0749 20.7741 8.0579 20.1451 7.0089 19.5791C6.4059 19.2531 5.4569 18.6041 4.7289 18.7161C3.9419 18.8361 3.1549 19.3371 2.5169 19.7921C1.9759 20.1771 0.811896 21.0341 1.1899 21.8491L1.3229 22.1351L1.5709 21.9441C2.1849 21.4741 2.8539 21.0431 3.5599 20.7311C4.1959 20.4511 4.6639 20.4451 5.3009 20.6791C6.9749 21.2941 8.6409 22.1871 10.0939 23.2281C10.0939 23.2291 10.0939 23.2301 10.0939 23.2301C9.1899 22.9161 8.2809 22.6121 7.3619 22.3451C6.6399 22.1351 5.8759 21.8921 5.1189 21.8621C4.3239 21.8311 3.6439 22.5361 3.1989 23.1301C2.6859 23.8171 2.0929 24.9481 2.5929 25.7921L2.8219 26.1801L3.0329 25.7821C3.4319 25.0251 4.1619 23.6411 5.0739 23.4551C5.4239 23.3841 5.8529 23.5321 6.1869 23.6171C6.9659 23.8191 7.7309 24.0781 8.4899 24.3451C7.9659 24.2311 7.2449 24.0411 6.7239 24.2761C6.2109 24.5081 5.9129 25.1381 5.7149 25.6351C5.3069 26.6611 4.8839 28.4421 5.7729 29.3441L6.0969 29.6741L6.1979 29.2191C6.5199 27.7661 7.0149 26.0801 7.2579 25.9041C7.6089 25.9041 8.7549 26.1891 10.4069 26.6851L10.4419 26.9501C10.4849 27.2541 10.5329 27.5571 10.5829 27.8591L10.5919 27.9171C10.6149 28.0511 10.6359 28.1851 10.6589 28.3181L10.7269 28.7131C10.8009 29.1161 10.8839 29.5291 10.9719 29.9481L11.0539 30.3251L11.0589 30.3451L11.0609 30.3531L11.0629 30.3621L11.0649 30.3701L11.0659 30.3791H11.0669L11.0679 30.3821V30.3841L11.0949 30.5101C11.1449 30.7321 11.1969 30.9581 11.2499 31.1861C11.2509 31.1871 11.2509 31.1871 11.2509 31.1871L11.2909 31.3561L11.3769 31.7161L11.3799 31.7281L11.3839 31.7441L11.3849 31.7431L11.4149 31.8701L11.4629 32.0591C11.5239 32.2981 11.5889 32.5421 11.6539 32.7861C11.1319 33.6021 10.5219 34.9991 10.9569 35.9761C11.4659 37.1211 12.6409 35.8021 12.9779 35.2451C13.0949 35.7471 13.3689 36.5611 13.9989 36.5611C14.6279 36.5611 14.9019 35.7471 15.0189 35.2451C15.3569 35.8031 16.5319 37.1201 17.0409 35.9761C17.4749 34.9991 16.8649 33.6031 16.3439 32.7861C16.4079 32.5441 16.4729 32.3021 16.5339 32.0591C16.5349 32.0581 16.5349 32.0581 16.5349 32.0571L16.5819 31.8701C16.5849 31.8601 16.5869 31.8501 16.5889 31.8401L16.6129 31.7441L16.6169 31.7261H16.6179L16.6229 31.7061L16.7059 31.3561L16.7849 31.0231C16.8259 30.8511 16.8649 30.6791 16.9019 30.5101L16.9309 30.3771L16.9319 30.3741L16.9329 30.3711V30.3701L16.9339 30.3651L16.9359 30.3571V30.3561L16.9379 30.3461L16.9389 30.3451L16.9429 30.3251L16.9549 30.2741L17.0129 30.0131H17.0109L17.0249 29.9491C17.1129 29.5301 17.1959 29.1161 17.2709 28.7131L17.3379 28.3181C17.3619 28.1851 17.3819 28.0511 17.4049 27.9171L17.4149 27.8591C17.4649 27.5571 17.5129 27.2541 17.5559 26.9501L17.5909 26.6851C19.2419 26.1891 20.3879 25.9031 20.7439 25.8911C20.9819 26.0801 21.4769 27.7661 21.7989 29.2191L21.8999 29.6741L22.2249 29.3441C23.1129 28.4421 22.6909 26.6621 22.2819 25.6351C22.0839 25.1381 21.7869 24.5081 21.2729 24.2761C20.7539 24.0411 20.0329 24.2311 19.5099 24.3451C20.2299 24.0921 20.9539 23.8471 21.6909 23.6501C22.0599 23.5511 22.4939 23.4061 22.8809 23.4491C23.3489 23.5001 23.7509 24.0071 24.0249 24.3481C24.3809 24.7921 24.6989 25.2771 24.9649 25.7821L25.1749 26.1811L25.4049 25.7921C25.8759 24.9951 25.3629 23.9361 24.8959 23.2651C24.4479 22.6221 23.7249 21.8281 22.8779 21.8621C22.1739 21.8901 21.4639 22.1091 20.7889 22.3011C19.8179 22.5781 18.8579 22.8981 17.9029 23.2301C17.9029 23.2301 17.9029 23.2291 17.9029 23.2281C19.3559 22.1871 21.0219 21.2941 22.6959 20.6791C23.3339 20.4451 23.8019 20.4521 24.4379 20.7321C25.1439 21.0441 25.8129 21.4751 26.4259 21.9441L26.6739 22.1351L26.8069 21.8491C27.1689 21.0711 26.1089 20.2541 25.5909 19.8721C24.9279 19.3811 24.0959 18.8421 23.2679 18.7161C22.5809 18.6111 21.6969 19.2021 21.1239 19.5061C20.0259 20.0901 18.9659 20.7471 17.9169 21.4171C17.9139 21.2301 17.9109 21.0441 17.9039 20.8621C19.4019 20.4851 22.0359 19.4921 22.0279 17.5551C23.4249 17.0171 25.2529 15.3011 24.7929 13.5921C26.5609 12.7311 27.5019 11.3451 27.5009 9.56106ZM19.9359 1.91206C18.8559 3.67006 16.6659 7.67506 15.8219 12.4651C15.7309 12.3031 15.6379 12.1461 15.5429 11.9941C16.3869 8.03306 17.9349 3.61106 19.9359 1.91206ZM13.9979 10.8281C15.4009 12.2191 16.2239 14.2211 16.7249 16.1121C17.3249 18.3761 17.4859 20.7451 17.4029 23.0821L17.3989 23.1871C17.3869 23.5281 17.3629 23.8671 17.3389 24.2071C15.4359 22.4321 12.5629 22.4291 10.6579 24.2071C10.6339 23.8651 10.6099 23.5231 10.5989 23.1811L10.5949 23.0821C10.4589 19.3451 10.9169 15.2421 13.0129 12.0611L13.0149 12.0581C13.4329 11.4231 13.7989 11.0251 13.9979 10.8281C14.2099 11.0381 13.7989 11.0251 13.9979 10.8281ZM12.5329 11.8671C12.4389 12.0141 12.3459 12.1651 12.2559 12.3221C11.3909 7.58006 9.2229 3.62706 8.1559 1.89606C10.6209 3.93806 12.0829 9.79906 12.5329 11.8671C12.4389 12.0141 12.0829 9.79906 12.5329 11.8671ZM1.0019 9.56106C1.0039 4.80706 3.8369 3.08706 5.2419 2.52706C3.4129 5.15306 4.5259 7.58906 4.5389 7.61606L4.8399 8.25206L5.0119 7.56706C5.3129 6.36906 5.9379 5.50906 6.3019 5.08506C7.6169 9.53006 6.3779 12.6361 5.8779 13.6261C5.3949 12.8311 4.1059 12.2101 3.4199 13.1381C1.8149 12.3601 1.0019 11.1581 1.0019 9.56106C1.0039 4.80706 1.0019 11.1581 1.0019 9.56106ZM3.8049 14.7821C3.5489 14.1251 3.6099 13.0501 4.5549 13.2201C5.3729 13.3681 5.6659 14.2891 5.9059 14.9801L5.9389 15.0761C6.0969 15.5301 6.2739 15.9771 6.4649 16.4061C6.2829 16.5721 6.1319 16.8111 6.0509 17.0441C5.0249 16.6181 4.1959 15.7891 3.8049 14.7821C4.1959 15.7891 3.6299 14.3331 3.8049 14.7821ZM6.4699 17.6261C6.4369 17.2091 6.7039 16.6981 7.1329 16.6111C7.5949 16.5171 7.9609 16.9801 8.1439 17.3451C8.4009 17.8591 8.5489 18.4091 8.8869 18.8811C9.2159 19.3391 9.6479 19.7191 10.1379 19.9901C10.1289 20.1061 10.1219 20.2231 10.1149 20.3421C8.8739 20.0181 6.5959 19.2071 6.4699 17.6261C6.5169 18.2131 6.4649 17.5651 6.4699 17.6261ZM4.6359 19.9681C3.6469 19.8731 2.5659 20.6341 1.7849 21.1641C2.3409 20.3401 4.0819 19.3331 4.8359 19.2211C5.3959 19.2211 7.3479 20.2641 10.0689 22.0171C10.0689 22.2071 10.0709 22.3981 10.0749 22.5931C8.3629 21.4451 5.5119 20.0531 4.6359 19.9681C5.5119 20.0531 4.5949 19.9651 4.6359 19.9681ZM5.1809 22.9341C4.1799 22.9341 3.3959 24.1951 2.9289 24.9481C3.0099 24.1411 3.5769 23.3461 4.1609 22.8261C4.6139 22.4211 4.9959 22.3311 5.5679 22.4301C7.1179 22.6981 8.6389 23.2631 10.1189 23.7821C10.1309 23.9911 10.1449 24.2001 10.1609 24.4091C8.2859 23.7051 6.0369 22.9341 5.1809 22.9341ZM7.2579 25.3911C6.8289 25.3911 6.6499 25.9031 6.5139 26.2411C6.2269 26.9491 6.0359 27.7001 5.8579 28.4431C5.5969 27.4041 5.9369 25.5291 6.8159 24.8181C7.1279 24.5661 7.7229 24.7201 8.0799 24.7871C8.8149 24.9231 9.5359 25.1391 10.2479 25.3671C10.2719 25.6211 10.2999 25.8741 10.3329 26.1271C8.6889 25.6381 7.6559 25.3911 7.2579 25.3911ZM11.5779 35.9011C10.8709 35.9011 11.7639 33.6111 11.8979 33.3641L11.9069 33.3681C12.2839 33.5161 12.7199 33.5431 13.1189 33.5701C12.9919 34.1061 12.7819 34.6171 12.4849 35.0801C12.3079 35.3551 11.9579 35.9011 11.5779 35.9011ZM13.9989 36.0481C13.7879 36.0481 13.4479 35.4851 13.3689 34.4671C13.4829 34.1861 13.5759 33.8901 13.6409 33.5931C13.8789 33.5991 14.1179 33.5991 14.3569 33.5931C14.4209 33.8901 14.5149 34.1851 14.6289 34.4661C14.5499 35.4851 14.2089 36.0481 13.9989 36.0481ZM16.4749 35.8901C16.1979 36.0101 15.8099 35.4911 15.6799 35.3201C15.2909 34.8051 15.0269 34.1981 14.8789 33.5701C15.2779 33.5431 15.7129 33.5151 16.0899 33.3681L16.0999 33.3641C16.3429 33.8141 16.5249 34.3101 16.6109 34.8171C16.6509 35.0511 16.7749 35.7621 16.4749 35.8901ZM16.4089 30.3971C16.3319 30.7441 16.2479 31.1001 16.1609 31.4581L16.1569 31.4741L16.1519 31.4931L16.0919 31.7441L16.0879 31.7571C16.0069 32.0841 15.9169 32.4201 15.8269 32.7581L15.7819 32.9291C15.0339 33.1211 14.2079 33.1061 13.4439 33.0731H13.4419C12.7519 33.0461 12.3739 32.9701 12.2159 32.9291L12.1709 32.7571C12.0799 32.4201 11.9909 32.0851 11.9089 31.7581L11.9059 31.7441L11.8419 31.4781C11.7539 31.1191 11.6689 30.7591 11.5889 30.3991V30.3981L11.5519 30.2261L11.5489 30.2131C11.3849 29.4561 11.2409 28.7151 11.1209 28.0071C12.8429 27.0401 15.1549 27.0401 16.8769 28.0071C16.7789 28.5811 16.6629 29.1761 16.5379 29.7781L16.5349 29.7761L16.4419 30.2451L16.4409 30.2501L16.4389 30.2611L16.4369 30.2691L16.4729 30.2771H16.4649L16.4359 30.2721L16.4569 30.2781L16.4349 30.2791L16.4339 30.2811L16.4089 30.3971ZM16.9749 27.4191C16.9719 27.4381 16.9689 27.4561 16.9659 27.4741C15.1649 26.5321 12.8339 26.5401 11.0309 27.4741C11.0019 27.2751 10.9709 27.0761 10.9419 26.8771L10.8409 26.1111C10.8049 25.8321 10.7739 25.5531 10.7469 25.2731L10.7189 24.9821L10.7179 24.9811L10.7089 24.8851C12.5239 22.9021 15.4779 22.9081 17.2889 24.8841L17.2789 24.9811V24.9821L17.2549 25.2271L17.2529 25.2491C17.2229 25.5531 17.1899 25.8561 17.1509 26.1581L17.1479 26.1761L17.0549 26.8771C17.0299 27.0571 17.0029 27.2371 16.9749 27.4191C17.0029 27.2371 16.9719 27.4381 16.9749 27.4191ZM21.0679 24.7451C21.5159 24.9471 21.7639 25.6601 21.9089 26.0851C22.1569 26.8121 22.3299 27.6821 22.1399 28.4431C21.9729 27.7471 21.7919 27.0491 21.5379 26.3801C21.3999 26.0161 21.2099 25.3911 20.7399 25.3911C19.7259 25.3911 18.6219 25.8421 17.6649 26.1271C17.6959 25.8841 17.7229 25.6411 17.7469 25.3961L17.7529 25.4031L17.7559 25.3651C18.4269 25.1501 19.1049 24.9481 19.7959 24.8101C20.1519 24.7391 20.7159 24.5841 21.0679 24.7451C21.4139 24.9011 21.0269 24.7261 21.0679 24.7451ZM23.1169 22.3881C24.0739 22.6361 24.9719 23.9991 25.0689 24.9471C24.4289 23.9181 23.6089 22.7501 22.2809 22.9941C20.7619 23.2731 19.2789 23.8671 17.8369 24.4091C17.8529 24.1971 17.8659 23.9881 17.8779 23.7821C18.9729 23.3981 20.0749 23.0271 21.1929 22.7201C21.7309 22.5721 22.5479 22.2441 23.1169 22.3881C23.7119 22.5421 23.0909 22.3821 23.1169 22.3881ZM23.1909 19.2231C23.1919 19.2231 23.1929 19.2231 23.1929 19.2231C23.9179 19.3331 25.6569 20.3401 26.2119 21.1641C25.5559 20.7191 24.8469 20.2851 24.0839 20.0611C23.4599 19.8791 22.9419 20.0361 22.3559 20.2631C20.8109 20.8611 19.2999 21.6681 17.9219 22.5931C17.9259 22.3981 17.9279 22.2071 17.9279 22.0171C20.6469 20.2671 22.5979 19.2231 23.1909 19.2231ZM20.6649 19.0141C19.9689 19.6001 19.0569 20.0351 17.8819 20.3421C17.8759 20.2231 17.8679 20.1061 17.8599 19.9901C18.3929 19.6941 18.8589 19.2701 19.1959 18.7561C19.5919 18.1511 19.6859 17.2811 20.2569 16.8071C20.7959 16.3591 21.4309 16.7801 21.5189 17.4191C21.6059 18.0581 21.1149 18.6351 20.6649 19.0141C21.0329 18.7051 19.9689 19.6001 20.6649 19.0141ZM24.1929 14.7821C23.8009 15.7891 22.9719 16.6181 21.9459 17.0441C21.8639 16.8111 21.7149 16.5721 21.5319 16.4061C21.7239 15.9771 21.8999 15.5301 22.0579 15.0761L22.0899 14.9841C22.3279 14.2991 22.6049 13.4141 23.3959 13.2301C24.3699 13.0031 24.4549 14.1081 24.1929 14.7821C24.3679 14.3331 23.8009 15.7891 24.1929 14.7821ZM24.5769 13.1381C23.8929 12.2291 22.6009 12.8371 22.1199 13.6261C21.6199 12.6361 20.3799 9.53006 21.6949 5.08406C22.0599 5.50906 22.6849 6.36906 22.9859 7.56706L23.1579 8.25206L23.4589 7.61606C23.4709 7.58906 24.5839 5.15306 22.7549 2.52706C24.3859 3.17806 25.6959 4.47806 26.3729 6.11906C26.8839 7.35906 27.1579 8.90406 26.9429 10.2401C26.7239 11.5941 25.7619 12.5641 24.5769 13.1381C26.1829 12.3601 24.5769 13.1371 24.5769 13.1381Z" fill="black"/>
</g>
<defs>
<clipPath id="clip0_81_1012">
<rect width="27" height="36" fill="white" transform="translate(0.5 0.560059)"/>
</clipPath>
</defs>
</svg>
