<svg width="32" height="36" viewBox="0 0 32 36" fill="none" xmlns="http://www.w3.org/2000/svg">
<path fill-rule="evenodd" clip-rule="evenodd" d="M31.459 8.19704C31.008 7.84704 30.435 7.83704 29.91 7.68004C29.331 7.50804 28.844 7.12904 28.412 6.71404C27.543 5.88004 26.795 4.80004 25.641 4.34504C24.861 1.81404 22.412 0.443035 19.895 0.501035C17.033 0.566035 14.764 2.13004 12.47 3.67104C11.323 4.44104 10.078 5.18804 8.684 5.34304C8.059 5.41304 7.355 5.27904 6.793 5.63204C6.321 5.93004 6.024 6.56004 6.371 7.07004C6.99 7.98004 8.576 7.48603 9.417 7.24604C10.642 6.89604 11.808 6.34904 12.915 5.71904C14.078 5.05803 15.126 4.19604 16.304 3.56804C17.404 2.98104 18.623 2.65904 19.87 2.71504C17.301 2.84304 15.317 4.66104 13.27 6.01804C11.119 7.44504 8.624 8.13404 6.053 7.96904L5.989 7.96504C5.331 7.92104 4.243 8.08804 4.365 9.01803C4.466 9.79904 5.471 9.96504 6.083 10.045C8.013 10.298 9.988 9.86304 11.752 9.06904C13.498 8.28304 15.119 7.25404 16.617 6.05604C17.842 5.07504 19.942 3.85804 21.429 5.10404C20.684 4.89604 19.881 4.95304 19.048 5.28304L18.804 5.38104L18.916 5.62104C18.938 5.67003 19.456 6.74204 20.587 7.38004C18.988 9.93204 17.151 12.55 14.359 13.848C11.368 15.239 7.926 14.962 4.741 14.678C2.919 14.353 1.093 15.489 0.121 17.014L0 17.202L0.173 17.343C0.89 17.929 1.775 18.174 2.657 17.838C2.28 19.259 2.353 20.744 2.861 22.12C3.108 22.789 3.425 23.448 3.547 24.157C3.677 24.916 3.448 25.54 2.996 26.139C2.618 26.64 2.177 27.119 1.99 27.734C1.766 28.469 1.975 29.264 2.193 29.974C2.603 31.315 3.329 32.509 3.955 33.751L3.981 35.5H6.936L6.965 35.284C7.054 34.62 6.775 33.921 6.243 33.497C5.271 31.736 4.635 30.33 4.29 28.439C4.818 27.718 5.325 26.972 5.82 26.22C5.645 26.877 5.42 27.515 5.133 28.124L5.06 28.279L5.177 28.404C6.688 30.011 7.53 31.5 7.906 33.225L7.934 35.194H10.858L10.898 34.994C11.039 34.296 10.753 33.529 10.19 33.086C9.434 31.387 8.584 29.733 7.851 28.023C9.197 26.659 10.186 24.934 10.73 23.019C12.858 22.998 14.932 22.507 16.972 21.93C17.885 25.752 17.737 29.7 17.926 33.598L17.954 35.5H20.524H21.02H22.49L22.531 35.302C22.692 34.532 22.34 33.677 21.67 33.275C21.183 30.2 21.099 27.061 21.433 23.965C21.756 20.976 22.77 17.917 22.064 14.91C22.48 13.613 22.96 12.244 23.606 10.51C24.613 10.635 25.605 10.527 26.595 10.808C27.569 11.084 28.514 11.499 29.542 11.499C30.374 11.499 31.257 11.208 31.707 10.451C32.123 9.75404 32.147 8.73104 31.459 8.19704ZM19.854 2.21104C18.068 2.13804 16.387 2.80704 14.94 3.83304C13.454 4.88603 14.272 4.30704 14.933 3.83804C12.867 5.30204 10.51 6.70504 7.968 7.04704C7.614 7.09404 7.086 7.13204 6.814 6.83704C6.289 6.26604 7.405 5.89804 7.775 5.88004C9.195 5.81204 10.384 5.51004 11.629 4.78904C13.967 3.43404 15.942 1.62104 18.679 1.12604C21.235 0.663035 24.055 1.56204 25.071 4.18004C24.661 4.11304 24.222 4.15504 23.826 4.27904C23.031 2.80704 21.418 2.27404 19.854 2.21104ZM19.802 4.12604C18.61 4.13404 17.514 4.68203 16.602 5.43004C16.888 5.19503 17.088 5.03104 16.6 5.43104C14.648 7.03304 12.417 8.48304 9.984 9.19503C8.783 9.54603 7.513 9.70603 6.266 9.56503C5.871 9.52104 5.029 9.48004 4.866 9.01004C4.664 8.42704 5.671 8.44304 5.957 8.46204L6.022 8.46604C7.649 8.57104 9.3 8.35503 10.84 7.81204C12.395 7.26303 13.718 6.32504 15.053 5.37304C17.223 3.82504 20.973 1.75504 23.055 4.64004C22.747 4.83704 22.475 5.08904 22.255 5.38204C21.82 4.44404 20.754 4.12004 19.802 4.12604ZM19.496 5.65004C19.571 5.62604 19.631 5.61104 19.685 5.59904C20.51 5.37804 21.28 5.46604 21.976 5.86804L22.03 5.89804C22.072 5.92204 22.114 5.94604 22.153 5.97204L22.155 5.97304C22.741 6.36204 23.133 6.89304 23.33 7.20404C21.805 7.61504 20.332 6.99604 19.496 5.65004ZM2.859 17.196C2.162 17.608 1.477 17.599 0.799 17.178C0.759 17.157 0.716 17.131 0.667 17.096C1.063 16.571 2.312 15.126 4.058 15.115C3.544 15.724 3.133 16.447 2.859 17.196ZM6.49 35.002H4.465L4.452 34.113L6.066 33.992C6.326 34.252 6.483 34.624 6.49 35.002ZM9.866 33.456C10.245 33.731 10.466 34.219 10.442 34.696H8.418L8.399 33.365C8.847 33.132 9.437 33.161 9.856 33.449L9.866 33.456ZM10.31 22.709V22.711C9.785 24.669 8.775 26.424 7.388 27.786L7.266 27.906L7.333 28.063C8.006 29.651 8.784 31.189 9.501 32.756C9.123 32.666 8.683 32.696 8.324 32.846C7.912 31.186 7.075 29.73 5.648 28.184C6.094 27.201 6.404 26.153 6.57 25.064C7.252 23.969 7.897 22.847 8.499 21.706C9.16 21.817 9.837 21.864 10.506 21.857C10.451 22.143 10.386 22.427 10.31 22.709ZM13.075 22.332C13.045 22.336 12.894 22.355 12.529 22.401C12.381 22.42 12.419 22.415 12.524 22.402C11.97 22.472 11.414 22.512 10.866 22.523C10.921 22.297 10.972 22.07 11.013 21.841C12.927 21.745 14.833 21.185 16.485 20.195C16.619 20.601 16.737 21.024 16.849 21.45C15.482 21.837 14.021 22.211 12.533 22.4C12.701 22.379 13.023 22.338 13.075 22.332ZM18.438 35.002L18.427 34.246L20.243 34.072C20.403 34.332 20.538 34.692 20.561 35.002H18.438ZM21.517 33.762C21.89 34.042 22.104 34.528 22.077 35.002H21.066C21.063 34.687 20.985 34.37 20.841 34.082C21.087 34.013 21.354 33.899 21.517 33.762ZM21.368 21.032C21.347 21.151 21.353 21.119 21.367 21.034C20.683 25.004 20.542 28.996 21.132 32.99L21.123 32.985L21.185 33.369C21.069 33.43 20.81 33.504 20.577 33.54C20.281 30.553 20.013 27.535 20.171 24.53C20.325 21.592 20.899 18.737 21.748 15.927C21.957 17.637 21.658 19.351 21.368 21.032ZM21.844 14L21.842 13.99L21.577 14.819C20.625 17.793 19.843 20.893 19.702 24.03C19.558 27.222 19.771 30.386 20.085 33.562C19.998 33.576 19.911 33.592 19.825 33.611L18.425 33.745L18.417 33.578C18.226 29.641 18.371 25.656 17.445 21.797L17.452 21.795L17.392 21.56C17.235 20.935 17.052 20.322 16.849 19.738L16.746 19.445L16.487 19.61C14.122 21.118 11.16 21.695 8.411 21.185L8.234 21.152L8.15 21.313C7.524 22.507 6.844 23.694 6.128 24.842C5.407 25.998 4.634 27.138 3.833 28.228L3.769 28.315L3.788 28.421C4.043 29.877 4.475 31.079 5.08 32.329L5.02 32.268L5.571 33.289C5.613 33.367 5.651 33.443 5.694 33.521L4.439 33.615L3.938 32.616L3.939 32.654C3.267 31.392 2.447 29.968 2.388 28.497C2.354 27.664 2.901 27.081 3.37 26.464C3.882 25.788 4.168 25.06 4.049 24.197C3.941 23.412 3.595 22.687 3.323 21.952C3.039 21.183 2.889 20.382 2.906 19.559C2.938 17.949 3.56 16.331 4.672 15.171L4.695 15.173C7.976 15.467 11.503 15.731 14.579 14.293C17.471 12.942 19.375 10.25 21.032 7.60204C21.146 7.64704 21.267 7.68804 21.386 7.72004C21.311 8.95403 21.879 10.1 23.112 10.426C22.602 11.796 22.198 12.936 21.844 14ZM28.412 10.845C28.395 10.841 28.398 10.841 28.412 10.845V10.845ZM28.771 10.935C28.84 10.953 28.862 10.958 28.771 10.935V10.935ZM31.33 10.113C30.842 10.202 30.338 10.174 29.855 10.066C29.601 10.01 28.691 9.51803 28.514 9.72904C28.223 10.076 29.19 10.368 29.394 10.435C29.882 10.592 30.387 10.632 30.896 10.62C30.317 11.029 29.459 11.108 28.451 10.855C28.528 10.874 28.673 10.911 28.761 10.933C28.703 10.918 28.608 10.894 28.451 10.855C27.719 10.67 27.016 10.377 26.277 10.214C25.519 10.047 24.753 10.101 23.985 10.054C22.656 9.97104 21.819 9.20304 21.874 7.81504C22.512 7.89504 23.17 7.79304 23.777 7.58804L24.043 7.49804L23.92 7.24304C23.631 6.64904 23.155 6.10403 22.634 5.70704C23.258 4.87004 24.367 4.42304 25.369 4.77004L25.373 4.77204C26.802 5.26704 27.58 6.82604 28.784 7.66804C29.453 8.13604 30.174 8.14204 30.897 8.44304C31.572 8.72404 31.641 9.51704 31.33 10.113Z" fill="white"/>
</svg>
