<svg width="40" height="36" viewBox="0 0 40 36" fill="none" xmlns="http://www.w3.org/2000/svg">
<g clip-path="url(#clip0_81_1021)">
<path fill-rule="evenodd" clip-rule="evenodd" d="M39.8438 8.78196C39.5448 8.15096 38.7978 7.89096 38.1558 7.99796C37.9949 7.85097 37.8288 7.70896 37.6628 7.57496L33.0339 3.87096C32.7339 3.62996 32.4058 3.38696 32.0458 3.20396C30.0018 -0.590035 24.3509 -0.777035 21.2779 1.66196C19.7869 2.84596 18.7799 4.61796 18.4179 6.50596C18.0128 8.61796 18.5058 10.684 19.5928 12.503L14.3059 13.056C12.4129 13.254 10.5058 13.603 9.35885 15.325C8.16485 15.561 7.16985 16.357 6.65285 17.482C6.07985 18.729 6.08185 20.127 5.79085 21.45C5.55685 22.518 5.02785 23.738 3.92585 24.099C2.93585 24.422 1.43085 23.67 2.04485 22.417C4.35285 21.554 4.15085 18.369 3.90985 16.395L3.81485 15.604L3.42885 15.919C2.46585 16.707 1.48685 17.516 0.78285 18.568C0.0768498 19.621 -0.52615 21.338 0.71485 22.257C0.60085 23.415 0.78485 24.761 1.72385 25.537C2.76785 26.399 4.31785 26.247 5.35785 25.467C6.40885 24.68 6.96285 23.42 7.22585 22.149C7.51885 20.734 7.52285 19.172 8.38185 17.956C8.03985 20.182 8.71385 22.342 8.78985 24.554C8.82385 25.55 8.56185 26.188 7.80385 26.802C6.95285 27.491 6.88285 28.49 6.87485 29.528C6.86185 31.343 7.03885 33.448 8.76385 34.436C9.51385 34.866 10.3869 35.001 11.2348 35.031C12.1339 35.063 13.2298 35.125 13.9998 34.567C15.0088 34.608 17.4219 34.221 16.6819 32.587C16.3209 31.787 15.4188 31.62 14.6628 31.462C13.9018 31.302 13.1538 30.942 12.7168 30.254C12.4938 29.904 12.3758 29.481 12.3948 29.062C12.4198 28.56 12.7258 28.478 13.1348 28.352C13.9068 28.114 14.6439 27.76 15.3198 27.31C16.8029 26.323 17.9369 24.901 18.6459 23.247C19.1739 23.348 19.7089 23.407 20.2418 23.407C20.5448 23.407 20.8468 23.386 21.1479 23.352C21.1448 24.848 21.8479 25.845 22.8699 26.835C23.3358 27.287 23.8379 27.753 24.1059 28.365C24.4359 29.12 24.2579 29.947 24.0979 30.721L24.0209 31.097C23.8269 32.098 23.8029 33.29 24.6069 34.029C25.3829 34.743 26.7749 34.928 27.7779 34.851C28.8279 35.035 30.5788 35.123 31.3619 34.239C31.7539 33.795 31.9089 33.128 31.5529 32.612C31.2259 32.136 30.6289 32.047 30.1069 31.972C29.5239 31.888 28.8988 31.783 28.7278 31.113C28.5739 30.513 28.7148 29.842 28.7698 29.236C28.9058 27.71 28.9939 26.176 28.9599 24.642C31.3738 21.318 33.9049 17.69 33.9429 13.369C34.2509 13.28 34.5879 13.234 34.9859 13.234C35.8299 13.238 36.7549 13.68 37.5469 13.184C38.2889 12.72 38.7339 11.647 38.9709 10.835C39.3479 10.554 40.2929 9.72696 39.8438 8.78196C40.2929 9.72696 39.6088 8.28596 39.8438 8.78196ZM37.3249 8.01796C37.3979 8.07696 37.4708 8.13596 37.5438 8.19696C36.4439 8.79896 36.7628 10.177 37.7958 10.653C36.5308 12.767 34.0849 10.109 32.3928 11.172C31.6218 11.657 31.4309 12.675 31.1779 13.496C30.9009 14.395 30.6199 15.293 30.3399 16.191C29.2009 13.777 26.6028 11.977 27.0119 9.01196C27.2119 7.56296 27.9349 6.17496 28.7879 5.01996C29.4609 4.11096 30.5469 3.11096 31.7319 3.66596L31.7359 3.66796C32.0769 3.82796 32.3979 4.07497 32.6968 4.31396L37.3249 8.01796ZM26.4018 8.47196C25.4839 8.21597 24.9349 6.94496 25.4398 6.10296C25.9529 5.24496 26.8699 5.38196 27.5469 5.93896C27.0989 6.73396 26.7289 7.59696 26.5429 8.49796C26.4949 8.49496 26.4478 8.48596 26.4018 8.47196ZM0.56985 21.062C0.22485 19.298 2.22985 17.634 3.38985 16.673C3.52785 17.811 3.64885 19.002 3.29585 20.113C3.04885 20.886 2.12385 22.425 1.13185 21.875L1.12985 21.874C0.85685 21.722 0.63685 21.404 0.56985 21.062C0.63685 21.404 0.48685 20.636 0.56985 21.062ZM7.31385 18.856C6.62985 20.943 6.95985 23.646 4.97085 25.06C4.14385 25.648 2.91985 25.779 2.09185 25.117C1.33285 24.511 1.18285 23.433 1.24085 22.51C1.29985 22.523 1.35985 22.531 1.42085 22.535C1.17785 23.686 2.05485 24.686 3.15585 24.754C4.36885 24.828 5.33385 24.017 5.85885 22.958C6.97385 20.709 6.10585 17.074 8.96185 16.015C8.83285 16.282 8.71585 16.58 8.62785 16.864C8.05085 17.342 7.57485 18.062 7.31385 18.856C7.57485 18.062 7.09385 19.528 7.31385 18.856ZM16.9639 25.039C16.1248 26.106 15.0338 26.964 13.8048 27.504C13.2668 27.741 12.4728 27.795 12.0908 28.286C11.6778 28.816 11.8239 29.668 12.0799 30.236C12.6898 31.585 13.9698 31.816 15.2268 32.161C15.6908 32.288 16.4809 32.712 16.2049 33.34C15.9699 33.875 14.9758 33.969 14.4958 34.001C14.7078 33.556 14.6539 32.995 14.3109 32.633C13.8078 32.101 13.0489 32.191 12.3959 32.227C10.7278 32.317 10.7529 30.744 10.6529 29.464C10.5849 28.575 11.2729 28.274 11.9018 27.89C12.5768 27.479 13.2018 26.984 13.7648 26.423C14.8828 25.307 15.7569 23.926 16.2589 22.409C16.8358 22.726 17.4648 22.969 18.0989 23.133C17.7878 23.836 17.4069 24.476 16.9639 25.039C17.4069 24.476 15.8539 26.45 16.9639 25.039ZM20.2418 22.845C18.8508 22.845 17.4379 22.485 16.2409 21.752L15.9359 21.566L15.8348 21.913C15.4598 23.209 14.7928 24.412 13.9268 25.43C13.4908 25.943 13.0028 26.411 12.4728 26.821C11.9479 27.227 11.3288 27.483 10.8078 27.882C9.85785 28.609 10.0329 30.087 10.2628 31.138C10.3708 31.629 10.5889 32.121 10.9818 32.441C11.5478 32.9 12.2659 32.785 12.9359 32.753L13.0508 32.75C13.4739 32.75 14.0718 32.89 14.0768 33.433C14.0819 34.124 13.2558 34.38 12.7218 34.436C11.5608 34.558 10.1739 34.552 9.11485 33.991C7.93785 33.366 7.55185 32.068 7.45785 30.799C7.40885 30.135 7.39985 29.453 7.44685 28.789C7.50485 27.959 7.80285 27.53 8.42085 27.023C9.51485 26.125 9.38885 24.666 9.23785 23.384C9.04785 21.773 8.71785 20.143 8.86485 18.514C8.99185 17.114 9.51085 15.616 10.6288 14.728C11.6828 13.891 13.0808 13.75 14.3618 13.616L19.9199 13.035C21.7019 15.705 24.3369 17.596 26.2929 20.114C25.2038 21.27 23.8229 22.139 22.3049 22.559L22.0739 22.623V22.625C21.4739 22.771 20.8589 22.845 20.2418 22.845ZM24.8148 33.438C24.4438 32.966 24.3609 32.237 24.5599 31.207L24.6349 30.838C24.7909 30.087 24.9489 29.304 24.7499 28.545C24.5679 27.85 24.1119 27.29 23.6219 26.794C22.5859 25.746 21.6609 24.883 21.6889 23.28C21.8498 23.253 22.0039 23.221 22.1559 23.185C22.4969 24.797 24.0059 25.307 24.7919 26.593C25.5739 27.873 25.5149 29.505 25.5029 30.957L25.5019 31.047C25.4939 32.116 25.5749 33.387 26.3749 34.18C25.7689 34.076 25.1698 33.89 24.8148 33.438C25.1698 33.89 24.4438 32.966 24.8148 33.438ZM30.0299 32.529C30.6399 32.617 31.5989 32.885 31.0559 33.727C30.5959 34.439 29.4949 34.364 28.7669 34.364C28.0099 34.364 27.1539 34.274 26.6349 33.641C26.0619 32.942 26.0448 31.915 26.0508 31.051L26.0519 30.962C26.0639 29.521 26.0919 27.977 25.4509 26.653C24.7659 25.234 23.0139 24.65 22.6909 23.031C24.1809 22.572 25.5469 21.704 26.6349 20.569C27.4949 21.764 28.1868 23.123 28.4018 24.606L28.4118 24.667C28.4489 26.409 28.3269 28.149 28.1569 29.881C28.1019 30.443 28.0659 31.047 28.3089 31.572C28.6319 32.27 29.3489 32.431 30.0299 32.529C30.6178 32.614 29.5648 32.462 30.0299 32.529ZM32.2559 18.293C31.3929 20.253 30.1649 22.029 28.9269 23.742L28.9258 23.71L28.8199 23.863C28.5039 22.504 27.8299 21.263 27.0179 20.151L27.0219 20.147L26.8839 19.966C26.8818 19.964 26.8808 19.961 26.8799 19.96L26.6809 19.695L26.6739 19.703C23.5219 15.683 17.4669 12.102 19.0829 6.05696C19.7279 3.64296 21.4859 1.67496 23.8379 0.937964C26.3399 0.154964 29.5559 0.726964 31.2249 2.94096C29.7009 2.79096 28.5539 4.28096 27.8349 5.45196C26.8339 4.65396 25.3819 4.73396 24.8399 6.06296C24.3549 7.25296 25.1699 8.87896 26.4519 9.05996C26.0569 12.434 29.1749 14.203 30.1109 17.101L30.3749 17.922L30.6209 17.136C31.1269 16.316 32.4499 14.36 33.3909 13.661C33.3329 15.142 32.9449 16.733 32.2559 18.293C32.9449 16.733 31.3929 20.253 32.2559 18.293ZM37.4268 12.627C37.0398 13.007 36.4199 12.905 35.9419 12.831C35.2569 12.724 34.6249 12.676 33.9439 12.845C33.9439 12.845 32.5388 13.236 31.1999 15.284C31.4669 14.428 31.7099 13.561 31.9969 12.712C32.2808 11.874 32.7859 11.378 33.6919 11.464C34.6179 11.551 35.4579 12.134 36.4039 12.079C37.1848 12.033 37.9099 11.572 38.2969 10.877C38.3369 10.896 38.3738 10.914 38.4068 10.933C38.1738 11.612 37.8078 12.252 37.4268 12.627C37.8078 12.252 37.2388 12.811 37.4268 12.627ZM38.6109 10.407C38.5799 10.391 38.5438 10.374 38.5089 10.358L38.5098 10.355L38.2559 10.244C37.8749 10.079 37.5119 9.92996 37.3949 9.47996C37.2679 8.99096 37.7239 8.66397 38.1348 8.56697L38.1409 8.56596C38.6479 8.44696 39.5079 8.70096 39.3998 9.38696C39.3328 9.81596 38.9409 10.168 38.6109 10.407C38.7999 10.27 38.5799 10.391 38.6109 10.407Z" fill="black"/>
</g>
<defs>
<clipPath id="clip0_81_1021">
<rect width="40" height="34.97" fill="white" transform="translate(-0.00195312 0.050293)"/>
</clipPath>
</defs>
</svg>
