<svg width="36" height="24" viewBox="0 0 36 24" fill="none" xmlns="http://www.w3.org/2000/svg">
<g clip-path="url(#clip0_81_1042)">
<path fill-rule="evenodd" clip-rule="evenodd" d="M33.952 16.3421L30.788 6.15706C31.993 5.59906 32.719 4.25006 32.689 2.92306L32.679 2.47806L32.317 2.73006C30.188 4.20906 27.864 3.33106 25.803 2.20006C24.818 1.65906 23.783 0.907059 22.665 0.696059C21.523 0.480059 20.375 0.886059 19.41 1.48606C19.396 0.652059 18.808 0.180059 18.034 0.0640586L18 0.0600586L17.965 0.0640586C17.191 0.180059 16.604 0.652059 16.59 1.48606C15.851 1.02706 15.015 0.680059 14.141 0.640059C13.191 0.597059 12.379 0.999059 11.563 1.44106C9.894 2.34506 8.154 3.55006 6.188 3.55006C5.296 3.55006 4.477 3.28206 3.682 2.73006L3.321 2.47806L3.31 2.92306C3.281 4.24706 4.005 5.60406 5.211 6.15706L2.047 16.3421H0L0.002 16.5841C0.028 19.6871 3.27 21.4841 6.005 21.4841C8.741 21.4841 11.982 19.6871 12.009 16.5841L12.01 16.3421H10.109L7.919 6.43706C8.789 6.31306 9.779 6.02506 10.903 5.55906C12.351 4.58206 14.425 4.99506 15.821 5.82206C16.279 7.60806 17.182 12.2461 16.411 18.8411C15.954 19.1021 15.53 19.5561 15.572 20.1231C13.757 20.5831 12.353 21.5391 11.802 22.7161L11.64 23.0601H24.359L24.198 22.7161C23.646 21.5391 22.243 20.5831 20.428 20.1231C20.47 19.5561 20.046 19.1021 19.589 18.8411C18.818 12.2461 19.721 7.60706 20.179 5.82206C21.7 4.92106 23.56 4.69906 25.136 5.58106C26.22 6.02506 27.21 6.31306 28.081 6.43706L25.891 16.3421H23.989L23.991 16.5841C24.017 19.6871 27.259 21.4841 29.994 21.4841C32.73 21.4841 35.971 19.6871 35.998 16.5841L36 16.3421H33.952ZM30.157 16.3421L29.594 6.47606C29.876 6.44506 30.155 6.39006 30.425 6.30006L33.545 16.3421H30.157ZM17.208 0.956059C17.355 0.746059 17.621 0.608059 18 0.546059C18.693 0.659059 19.029 1.11206 18.917 1.81706C18.617 2.03606 18.33 2.27206 18.061 2.52906C18.022 2.52506 17.977 2.52606 17.938 2.52906C17.67 2.27306 17.382 2.03606 17.083 1.81706C17.024 1.45006 17.066 1.16006 17.208 0.956059C17.355 0.746059 17.066 1.16006 17.208 0.956059ZM18.949 4.30006C18.866 4.57706 18.667 4.81006 18.396 4.93006C17.038 5.52906 16.427 3.20306 17.918 3.01606L17.927 3.01506C17.975 3.00806 18.024 3.00806 18.072 3.01506L18.115 3.02006C18.715 3.09306 19.124 3.71106 18.949 4.30006ZM5.575 6.30006C5.844 6.38906 6.124 6.44606 6.405 6.47606L5.843 16.3421H2.455L5.575 6.30006ZM6.005 21.0031C3.079 21.0031 0.664 19.1491 0.488 16.8231H11.523C11.346 19.1491 8.931 21.0031 6.005 21.0031ZM6.232 16.3421L6.793 6.50406C7.039 6.51306 7.285 6.50206 7.53 6.48106L9.71 16.3421H6.232ZM10.684 5.13406C9.511 5.61606 8.248 6.02506 6.969 6.02506L6.814 6.02306C5.233 5.97606 4.041 4.98606 3.819 3.38506C4.569 3.82006 5.349 4.03206 6.188 4.03206C8.387 4.03006 10.276 2.64106 12.157 1.67006C13.113 1.17706 14.02 0.965059 15.071 1.29606C15.93 1.56706 16.706 2.07906 17.382 2.67006C16.377 3.14106 16.256 4.59206 17.167 5.23106C17.069 5.35806 16.948 5.46706 16.799 5.52706C16.745 5.54906 16.291 5.57806 16.306 5.54606C16.274 5.52506 16.241 5.50706 16.209 5.48806L15.644 5.14506L15.654 5.18006C14.651 4.67006 13.525 4.42406 12.405 4.56706C12.309 4.57906 10.616 4.99706 10.684 5.13406C10.682 5.13006 9.629 5.56706 10.684 5.13406ZM23.574 22.5781H12.425C13.016 21.6841 14.199 20.9571 15.697 20.5821C16.452 22.0901 19.546 22.0861 20.303 20.5821C21.8 20.9571 22.983 21.6841 23.574 22.5781ZM19.958 20.0621C19.958 20.8211 18.885 21.1291 18.31 21.1851C17.601 21.2541 16.307 21.0861 16.071 20.2341L16.07 20.2311C15.816 19.3151 17.262 18.9531 17.885 18.9331C18.537 18.9111 19.958 19.1561 19.958 20.0621ZM19.083 18.6141C18.405 18.3861 17.595 18.3861 16.917 18.6131C17.595 12.4841 16.841 8.04806 16.368 6.05006C16.866 6.12706 17.329 5.85206 17.608 5.44206C17.86 5.51406 18.139 5.51406 18.391 5.44206C18.672 5.85306 19.132 6.12506 19.632 6.05006C19.158 8.04806 18.404 12.4841 19.083 18.6141C19.044 18.6011 18.404 12.4841 19.083 18.6141ZM22.941 4.52606C22.068 4.52606 21.198 4.74706 20.346 5.18006L20.355 5.14506L19.79 5.48806C19.756 5.50806 19.723 5.52606 19.717 5.53306C19.381 5.66806 19.043 5.50306 18.833 5.23106C19.744 4.59206 19.624 3.14306 18.618 2.67006C19.404 1.97806 20.351 1.37806 21.387 1.18006C22.722 0.924059 23.834 1.64906 24.955 2.27806C27.171 3.52006 29.726 4.80406 32.177 3.38706C31.945 4.98506 30.771 5.97606 29.186 6.02306L29.03 6.02506C27.768 6.02506 26.517 5.62706 25.356 5.15606C25.317 5.13006 24.389 4.52606 22.941 4.52606ZM28.469 6.48106C28.714 6.50206 28.961 6.51406 29.206 6.50406L29.767 16.3421H26.289L28.469 6.48106ZM29.994 21.0031C27.068 21.0031 24.653 19.1491 24.476 16.8231H35.512C35.335 19.1491 32.921 21.0031 29.994 21.0031Z" fill="black"/>
</g>
<defs>
<clipPath id="clip0_81_1042">
<rect width="36" height="23" fill="white" transform="translate(0 0.0600586)"/>
</clipPath>
</defs>
</svg>
