<svg width="32" height="36" viewBox="0 0 32 36" fill="none" xmlns="http://www.w3.org/2000/svg">
<g clip-path="url(#clip0_81_1052)">
<path fill-rule="evenodd" clip-rule="evenodd" d="M30.9493 13.5061C31.0612 13.6961 31.1832 13.9 30.9473 13.5031C30.7493 13.1722 30.8413 13.3262 30.9443 13.4991C30.4074 12.6024 29.2777 11.7716 28.21 12.2245L27.7732 12.4094L28.1691 12.6723C28.8639 13.1332 28.349 14.2349 28.1061 14.7977C27.6772 15.7885 27.5532 16.9631 28.6789 17.512C28.273 18.6097 28.0351 19.7513 27.9721 20.914C26.9104 21.2819 26.4446 22.5765 27.0414 23.5442C26.3596 24.0161 26.0687 24.9159 26.3696 25.6986C25.6578 26.0405 25.2179 26.8313 25.3359 27.6251C24.4891 27.734 23.8273 28.4219 23.7463 29.2846C22.8156 29.2316 22.0028 29.8804 21.8059 30.7672C20.9031 30.3563 19.8284 30.7672 19.4036 31.6689C18.6978 31.0631 17.6491 31.0781 16.9533 31.6879C16.6304 31.1871 16.0975 30.8662 15.4997 30.8212C15.5557 30.1204 15.2028 29.4326 14.6179 29.0557C14.8719 28.5498 15.1038 27.934 15.3087 27.2132L15.3167 27.2092L15.3447 27.0912C15.3447 27.0912 15.3467 27.0882 15.3467 27.0872L15.4917 26.5604L15.4807 26.5654C15.6086 26.0355 15.7226 25.4637 15.8216 24.8579C16.5574 24.339 17.4781 24.0881 18.3719 24.1441C19.2616 24.2001 20.0814 24.8129 20.9801 24.558C21.9188 24.292 25.8177 22.3606 24.3402 20.958L24.2132 20.837L24.0552 20.915C22.6556 21.6158 21.386 22.0767 19.8054 22.0017C18.5778 21.9417 17.1982 21.7777 16.1115 22.5005C16.1385 22.1796 16.1625 21.8577 16.1805 21.5368H16.1795L16.1805 21.5188V21.5168L16.1825 21.4868L16.1855 21.4338C16.7643 20.858 17.6101 20.5671 18.4148 20.6071C19.3466 20.6541 20.0924 21.4328 21.0281 21.3689C21.8809 21.3099 22.8716 20.6251 23.5494 20.1392C24.3252 19.5854 25.008 18.7896 25.1549 17.8119L25.1889 17.5869L24.972 17.527C24.2592 17.332 23.5934 17.6979 22.9905 18.0408C22.1828 18.5017 21.538 18.6756 20.6212 18.4477C19.8224 18.2498 19.0777 18.0128 18.2459 18.1338C17.5151 18.2408 16.8123 18.5507 16.2375 19.0185C16.2345 18.5437 16.2225 18.0648 16.2015 17.5849C16.8353 17.503 17.4761 17.506 18.1129 17.531L18.4898 17.546C19.7455 17.5969 21.0551 17.6489 22.2448 17.1651C23.1555 16.7942 24.1672 16.0254 24.3631 14.9867C24.4541 14.5088 24.2972 13.954 23.7763 13.823C23.1625 13.6711 22.5247 14.1639 22.0478 14.4848C21.518 14.8407 20.9851 15.2406 20.3543 15.3906C19.6705 15.5535 18.9297 15.3956 18.2549 15.2566L18.01 15.2076C17.3511 15.0767 16.6783 14.9927 16.0145 15.1446C15.9945 14.9667 15.9745 14.7897 15.9505 14.6158L15.9525 14.6138L15.9395 14.5168C15.9375 14.5018 15.9346 14.4848 15.9326 14.4688L15.9246 14.4118C15.9226 14.3979 15.9196 14.3839 15.9176 14.3699L15.8796 14.0969L15.8766 14.0979C15.8596 13.984 15.8436 13.87 15.8246 13.756C16.7143 13.0972 17.718 13.2372 18.7248 13.5341L18.8597 13.5741C20.2093 13.976 22.4787 14.3219 22.8566 12.3864C24.76 11.4997 25.2259 8.9684 23.7363 7.46183C25.7717 5.99025 24.6021 3.74389 23.1165 2.39628C22.2917 1.64849 21.333 1.03467 20.3133 0.597792C19.4186 0.214901 18.2409 -0.169989 17.2882 0.228897L16.8913 0.39585L17.2302 0.664773C17.817 1.13064 18.5068 1.74946 18.7787 2.47226C19.0956 3.31902 17.932 3.42798 17.3721 3.45898L17.0862 3.47397L17.1372 3.75889C17.1722 3.95084 18.019 8.46755 21.0671 8.46755C21.433 8.46755 21.8179 8.39157 22.2148 8.25661C21.6219 9.3263 21.412 10.6059 21.6449 11.8076C20.4433 11.8796 19.4705 11.0438 18.3988 10.6379C17.3382 10.237 16.1465 10.34 15.1718 10.9308C15.1528 10.8719 15.1348 10.8129 15.1158 10.7529L15.1148 10.7489L15.1138 10.7469C15.1118 10.7389 15.1088 10.7299 15.1068 10.7229L15.1018 10.7119L15.1028 10.7109L15.0458 10.5589C15.0048 10.442 14.9628 10.325 14.9178 10.21L14.9158 10.2031C14.9108 10.1921 14.9068 10.1791 14.9018 10.1671L14.9008 10.1681L14.8978 10.1611L14.8958 10.1581L14.8749 10.1041L14.8769 10.1031C14.8439 10.0211 14.8099 9.94213 14.7759 9.86415L14.7699 9.86715L14.7479 9.81616L14.7529 9.81316L14.7449 9.79617C15.6286 9.16835 16.4194 8.07466 15.6566 6.28717L15.5057 5.93127L15.2417 6.21319C15.2288 6.22719 13.9381 7.59979 12.8614 7.66677C11.7557 7.59979 10.4621 6.22719 10.4491 6.21319L10.1862 5.93127L10.0342 6.28717C9.27145 8.07466 10.0632 9.16835 10.947 9.79617C10.943 9.80416 10.94 9.81216 10.936 9.82116L10.942 9.82316L10.922 9.86715L10.916 9.86415L10.912 9.87415C10.88 9.94613 10.848 10.0201 10.818 10.0971L10.814 10.1041L10.816 10.1051L10.795 10.1571L10.794 10.1561L10.789 10.1671C10.784 10.1811 10.779 10.1971 10.773 10.211C10.71 10.37 10.6491 10.532 10.5901 10.7059L10.5881 10.7119H10.5901L10.5861 10.7229H10.5851C10.5821 10.7319 10.5791 10.7409 10.5761 10.7499L10.5751 10.7539C10.5571 10.8129 10.5381 10.8729 10.5191 10.9308C9.54437 10.34 8.35371 10.237 7.29202 10.6379C6.22232 11.0428 5.2476 11.8806 4.04694 11.8086C4.27988 10.6059 4.06994 9.3263 3.4771 8.25661C6.38328 9.24432 8.11078 6.22819 8.55366 3.75889L8.60564 3.47397L8.31972 3.45898C7.82386 3.43198 6.6642 3.34801 6.88113 2.56923C7.09507 1.80645 7.86885 1.13564 8.46168 0.664773L8.80058 0.39585L8.4027 0.228897C7.48996 -0.153994 6.36728 0.190908 5.50053 0.546807C4.47582 0.967686 3.51209 1.57051 2.67833 2.30431C1.15377 3.64492 -0.135865 5.95126 1.95454 7.46183C0.465963 8.9684 0.931831 11.4997 2.83429 12.3864C3.21218 14.3219 5.48153 13.976 6.83115 13.5741L6.96711 13.5341C7.97282 13.2362 8.97654 13.0972 9.86728 13.756C9.84829 13.869 9.83229 13.984 9.8153 14.0979L9.8113 14.0969L9.76731 14.4118V14.4158C9.76031 14.4638 9.75331 14.5108 9.74731 14.5588L9.73932 14.6138L9.74032 14.6148C9.71732 14.7897 9.69733 14.9667 9.67733 15.1446C9.01352 14.9927 8.34172 15.0767 7.68091 15.2076L7.43597 15.2576C6.80515 15.3866 6.13635 15.5215 5.49253 15.4206C4.86171 15.3216 4.31786 14.9417 3.79901 14.5898C3.30315 14.2539 2.68333 13.745 2.04851 13.802C1.44768 13.854 1.22775 14.4558 1.32872 14.9867C1.51766 15.9834 2.46739 16.7392 3.33714 17.1181C4.5528 17.6499 5.90641 17.5979 7.20104 17.546L7.57793 17.531C8.21575 17.506 8.85657 17.503 9.49039 17.5849C9.46939 18.0648 9.4574 18.5437 9.4544 19.0185C8.18176 17.9808 6.75717 17.9988 5.2566 18.3997C4.35285 18.6416 3.68405 18.5937 2.86228 18.1328C2.20847 17.7659 1.49767 17.314 0.718891 17.527L0.501953 17.5869L0.535943 17.8119C0.674904 18.7266 1.28773 19.4934 2.00153 20.0362C2.68233 20.5551 3.64506 21.1979 4.49981 21.3489C5.45254 21.5178 6.21432 20.7111 7.13506 20.6181C7.98282 20.5331 8.89456 20.826 9.50538 21.4338L9.50838 21.4868C9.50938 21.4968 9.50938 21.5068 9.50938 21.5168L9.51038 21.5378C9.52838 21.8397 9.54937 22.1426 9.57536 22.4446L9.57936 22.5005C8.46668 21.7967 7.13506 21.9417 5.88542 22.0007C4.30487 22.0757 3.03623 21.6158 1.63563 20.915L1.47867 20.837L1.35071 20.958C-0.170855 22.4046 4.14991 24.6319 5.2296 24.6319C6.00038 24.6229 6.68819 24.1551 7.47596 24.1381C8.31872 24.1191 9.17548 24.369 9.86928 24.8569C9.90127 25.0538 9.93426 25.2508 9.97125 25.4467L9.97225 25.4527C10.0252 25.7366 10.0822 26.0115 10.1422 26.2775L10.1432 26.3554L10.1662 26.3784C10.1812 26.4434 10.1982 26.5034 10.2132 26.5664L10.1992 26.5604L10.3371 27.0562C10.3371 27.0592 10.3381 27.0622 10.3391 27.0652L10.3401 27.0692L10.3421 27.0732C10.3431 27.0792 10.3441 27.0852 10.3461 27.0912L10.3481 27.0992C10.739 28.5078 11.2289 29.5375 11.7737 30.1064C11.4068 31.279 12.2306 32.5147 13.4483 32.6077C13.3123 34.2942 15.3437 35.3139 16.5994 34.2032C17.4161 35.4518 19.3216 35.2849 19.9174 33.9173C20.9541 34.764 22.5407 34.1992 22.8526 32.8996C24.0302 33.4674 25.4258 32.6227 25.5188 31.314C26.6135 31.346 27.5422 30.3483 27.3883 29.2366C28.5799 29.0937 29.3457 27.814 28.8869 26.6843C29.8356 26.1985 30.1665 24.9618 29.5817 24.0601C30.3624 23.4983 30.5574 22.3816 30.0095 21.5838C30.7153 21.1079 31.1262 20.3422 31.3032 19.5184C31.4901 18.6456 31.5591 17.506 31.1202 16.6952C31.733 15.7035 31.5191 14.4658 30.9493 13.5061ZM16.2415 19.6983C17.0072 18.8916 18.1859 18.4747 19.2566 18.6376C19.0817 18.6107 18.4098 18.5077 19.2586 18.6376C19.3156 18.6466 19.3046 18.6446 19.2606 18.6376C20.1473 18.7756 21.0181 19.2265 21.9338 19.0505C22.8556 18.8716 23.6464 17.9298 24.6041 17.9818C24.3961 18.7316 23.8333 19.3195 23.2165 19.7533C22.6266 20.1672 21.7269 20.811 20.9931 20.86L20.9231 20.863C20.1134 20.863 19.4116 20.1892 18.5898 20.1032C17.759 20.0153 16.8993 20.2462 16.2175 20.736C16.2325 20.3901 16.2385 20.0442 16.2415 19.6983ZM17.913 15.7075L18.1549 15.7575C19.3876 16.0094 20.4823 16.0714 21.5929 15.3936C21.9468 15.1786 24.1462 13.5061 23.8673 14.8987C23.6793 15.8374 22.6646 16.4903 21.8379 16.7742C20.7722 17.1391 19.6165 17.0821 18.5098 17.0361L18.1309 17.0211C17.4811 16.9981 16.8283 16.9931 16.1815 17.0731L16.1805 17.0491C16.1785 17.0101 16.1745 16.9731 16.1725 16.9341L16.1695 16.8931C16.1565 16.6852 16.1425 16.4783 16.1255 16.2743C16.1255 16.2683 16.1255 16.2623 16.1245 16.2563L16.1125 16.1154C16.0995 15.9584 16.0855 15.8005 16.0705 15.6435C16.6154 15.5055 17.3951 15.6045 17.913 15.7075ZM16.0025 23.5802C16.0165 23.4573 16.0315 23.3353 16.0435 23.2123C16.1515 23.1004 16.2665 23.0054 16.3854 22.9284C16.3654 22.9414 16.3714 22.9374 16.3854 22.9284C16.4554 22.8834 16.8053 22.6585 16.3854 22.9284C17.4481 22.2456 18.8007 22.4755 19.9864 22.5195C21.487 22.5735 22.7536 22.1326 24.0852 21.4688C24.3482 22.1876 23.1875 22.7995 22.7296 23.0964C22.1008 23.5033 21.244 24.1161 20.4673 24.1221C20.1124 24.1181 19.7785 23.9481 19.4475 23.8372C19.0847 23.7152 18.7038 23.6482 18.3219 23.6312C17.4941 23.5922 16.6503 23.7832 15.9246 24.1881C15.9525 23.9861 15.9785 23.7832 16.0025 23.5802ZM6.26831 20.3072C6.38727 20.2602 7.14806 19.9573 6.26631 20.3082C6.24532 20.3162 6.24731 20.3152 6.26431 20.3092C5.78245 20.5011 5.30458 20.863 4.76774 20.863L4.69776 20.86C3.96497 20.811 3.06522 20.1672 2.47539 19.7533C1.85857 19.3195 1.29573 18.7316 1.08779 17.9818C1.80658 17.9408 2.46539 18.5327 3.08422 18.8216C3.859 19.1835 4.61178 19.0995 5.41455 18.8846C6.87613 18.4937 8.32772 18.5157 9.4494 19.6983C9.4514 19.8773 9.4544 20.0582 9.4584 20.2392L9.4624 20.4031C9.46539 20.5141 9.46939 20.6251 9.47339 20.736C8.56765 20.0842 7.28802 19.9023 6.26831 20.3072ZM9.56637 16.2603H9.56737C9.56637 16.2663 9.56637 16.2703 9.56537 16.2763V16.2793C9.56537 16.2813 9.56437 16.2833 9.56437 16.2853C9.54837 16.4853 9.53538 16.6892 9.52238 16.8931H9.52138L9.51938 16.9281C9.51738 16.9691 9.51338 17.0081 9.51138 17.0491L9.50938 17.0731C8.86357 16.9931 8.20975 16.9991 7.55994 17.0211L7.18105 17.0361C6.07436 17.0821 4.91969 17.1391 3.854 16.7742C3.02723 16.4903 2.01252 15.8364 1.82458 14.8977C1.54566 13.5061 3.74503 15.1786 4.09893 15.3936C5.20961 16.0704 6.3043 16.0094 7.53595 15.7575L7.77888 15.7075C8.29573 15.6045 9.07551 15.5055 9.62035 15.6435C9.60635 15.7925 9.59336 15.9424 9.58036 16.0914L9.56637 16.2603ZM7.58293 23.6212C6.96411 23.6212 6.40527 23.7812 5.82743 23.9871C5.15363 24.2261 4.63777 24.0211 4.02495 23.7092C3.45211 23.4173 2.90227 23.0784 2.38342 22.6975C2.02552 22.4346 1.40969 22.0057 1.60664 21.4688C3.01124 22.1696 4.31786 22.5845 5.89741 22.5105C7.11907 22.4536 8.69761 22.2246 9.64734 23.2123C9.68133 23.5382 9.72232 23.8632 9.76631 24.1881C9.1065 23.8202 8.34871 23.6212 7.58293 23.6212ZM21.0671 7.95769C18.8367 7.95769 17.924 4.89457 17.695 3.94484C18.3839 3.87486 19.3886 3.61893 19.3416 2.72718C19.2956 1.87943 18.5108 1.12364 17.927 0.593793C20.3803 0.346864 26.9024 4.72162 23.3474 7.11793L23.3444 7.11693L23.1935 7.2139C22.5637 7.62179 21.8289 7.95769 21.0671 7.95769ZM22.8916 8.11965C22.7086 8.35058 22.5057 8.58051 23.0535 7.88971C23.1365 7.84372 23.2205 7.79574 23.3054 7.74375C24.5551 8.90542 24.3282 10.9588 22.8646 11.8146C22.8566 11.7726 22.8456 11.7326 22.8326 11.6926L22.7266 11.3727L22.4517 11.5627C22.3517 11.6306 22.2447 11.6766 22.1318 11.7166C21.8899 10.481 22.1758 9.15235 22.8916 8.11965ZM17.792 10.9818C19.1706 11.3157 20.2563 12.4434 21.7549 12.3084C21.7549 12.3084 22.2627 12.2205 22.3847 12.1715C22.3357 12.7653 21.7819 13.2532 21.23 13.3761C20.4933 13.5391 19.7055 13.2962 19.0027 13.0852L18.8667 13.0452C17.809 12.7323 16.7033 12.5544 15.7296 13.1982C15.7076 13.0832 15.6856 12.9683 15.6626 12.8533C15.6606 12.8473 15.6596 12.8413 15.6586 12.8353V12.8343C15.6556 12.8223 15.6536 12.8103 15.6516 12.7983V12.7973C15.6146 12.6164 15.5727 12.4354 15.5317 12.2555L15.5307 12.2535C15.5177 12.1945 15.5057 12.1315 15.4907 12.0725C15.4877 12.0605 15.4847 12.0485 15.4817 12.0375C15.4757 12.0125 15.4687 11.9875 15.4627 11.9625L15.4597 11.9506L15.4587 11.9486C15.4167 11.7766 15.3727 11.6037 15.3247 11.4327C16.0405 10.9548 16.9723 10.7799 17.792 10.9818ZM15.6726 17.0481C15.4707 17.1091 15.2657 17.1681 15.0608 17.2151C13.4043 17.5989 11.6468 17.544 10.0192 17.0481C10.0332 16.8142 10.0222 16.5572 10.0672 16.3273C10.0682 16.3243 10.0682 16.3203 10.0682 16.3163C10.1072 15.8075 10.1632 15.2996 10.2282 14.7927C11.9127 15.3616 13.7782 15.3596 15.4637 14.7937C15.5277 15.2996 15.5827 15.8075 15.6236 16.3163C15.6236 16.3193 15.6236 16.3233 15.6236 16.3263C15.6436 16.5622 15.6576 16.8052 15.6726 17.0481ZM15.3247 6.84301C15.3637 6.96498 15.3867 7.06295 15.3987 7.14092C15.5797 8.02567 15.2867 8.76146 14.516 9.3343C14.481 9.26932 14.446 9.20634 14.41 9.14635L14.347 9.04638C14.29 8.95641 14.229 8.86643 14.1661 8.78046L14.1351 8.73847C14.0701 8.65349 14.0031 8.57652 13.9371 8.50554L13.8361 8.40556C13.7942 8.37057 13.7522 8.33458 13.7112 8.2966L13.6802 8.2716L13.6602 8.25561C13.6302 8.23161 13.5982 8.21062 13.5672 8.19063L13.5082 8.15364C13.4693 8.12964 13.4293 8.10865 13.3883 8.08766C13.3833 8.08466 13.3773 8.08266 13.3723 8.08066C14.1701 7.83873 14.9288 7.2119 15.3247 6.84301ZM10.3301 8.23161C10.2612 8.01967 10.2322 7.79574 10.2382 7.5718C10.2392 7.53981 10.2942 7.07494 10.3661 6.84301C10.762 7.20891 11.5188 7.83173 12.3266 8.07666C12.1876 8.03367 11.8187 8.44555 11.7407 8.52653C11.5078 8.77146 11.3649 9.06438 11.1709 9.3293C10.793 9.06238 10.4751 8.67749 10.3301 8.23161ZM10.4401 13.4031C10.5031 13.0492 10.5731 12.6963 10.6561 12.3474L10.6651 12.3124L10.719 12.0815C10.817 11.6886 10.925 11.2997 11.0529 10.9168L11.0549 10.9118L11.1189 10.7329C11.1809 10.556 11.2479 10.381 11.3209 10.209C11.3219 10.2071 11.3219 10.206 11.3229 10.2041L11.5268 9.75718C11.5718 9.6672 11.6198 9.58123 11.6688 9.49425C11.6758 9.48126 11.6808 9.47226 11.6888 9.45826L11.7697 9.3203C11.8217 9.23833 11.8747 9.16035 11.9457 9.06238C11.9577 9.04538 11.9717 9.02839 11.9867 9.01339C12.0307 8.95841 12.0757 8.90542 12.1206 8.85744L12.1616 8.81645H12.1626L12.3776 8.6355C12.4036 8.6185 12.4286 8.60051 12.4505 8.58851L12.6945 8.48554C12.8154 8.45855 12.8754 8.45755 12.9964 8.48554L13.2373 8.58651C13.2623 8.60051 13.2883 8.6185 13.3133 8.6355L13.5702 8.85544H13.5712L13.5702 8.85644C13.6252 8.91842 13.6792 8.9824 13.7312 9.04638L13.7332 9.04538L13.7632 9.08737C13.8162 9.16035 13.8701 9.23833 13.9211 9.3203H13.9221C13.9221 9.3213 13.9231 9.3223 13.9231 9.3233L14.0261 9.49925C14.1061 9.63921 14.1791 9.78217 14.247 9.92913L14.441 10.379L14.449 10.399C14.491 10.505 14.5319 10.6189 14.5729 10.7339L14.5809 10.7559L14.6409 10.9238C14.7069 11.1218 14.7669 11.3217 14.8239 11.5227L14.8719 11.7006C14.9058 11.8226 14.9388 11.9456 14.9708 12.0745L15.0408 12.3704C15.0678 12.4904 15.0948 12.6114 15.1208 12.7363L15.1238 12.7473C15.1738 12.9823 15.2188 13.2182 15.2607 13.4551L15.3177 13.779C15.3447 13.94 15.3687 14.1069 15.3927 14.2719C13.7442 14.8477 11.9467 14.8477 10.2992 14.2719C10.3232 14.1069 10.3471 13.94 10.3741 13.779L10.4401 13.4031ZM1.42069 4.86757C1.4027 4.92656 1.3887 4.97354 1.3797 5.00353C1.3877 4.97654 1.4017 4.93356 1.42069 4.86757C1.57365 4.35872 1.63563 4.15578 1.64563 4.12279C1.63163 4.16977 1.49767 4.61365 1.42169 4.86657C1.80858 3.57894 3.00624 2.57723 4.07993 1.87143C5.11264 1.19262 6.48725 0.46483 7.76388 0.593793C7.19304 1.11265 6.48525 1.80545 6.36228 2.61022C6.21632 3.56994 7.26003 3.86986 7.99682 3.94484C7.74089 5.00653 7.32201 6.10122 6.61121 6.93898C5.47453 8.2796 3.87999 8.10865 2.49638 7.2129L2.49538 7.2119L2.34643 7.11693L2.34443 7.11793C1.57265 6.60208 1.14077 5.79731 1.42069 4.86757ZM1.3717 5.03253C1.36871 5.04152 1.36871 5.04152 1.3717 5.03253V5.03253ZM1.56965 10.0121C1.54166 9.88914 1.54965 9.92313 1.56965 10.0121V10.0121ZM1.64863 10.352C1.64863 10.354 1.64963 10.357 1.64963 10.358C1.64963 10.356 1.64863 10.355 1.64863 10.352ZM2.96325 11.3717L2.85828 11.6936C2.84528 11.7336 2.83429 11.7726 2.82629 11.8146C2.21846 11.4587 1.76659 10.8659 1.61264 10.1991C1.41369 9.3383 1.7306 8.35358 2.38642 7.74375C2.47039 7.79574 2.55537 7.84372 2.63834 7.88971C3.4761 8.94841 3.82001 10.389 3.56008 11.7166C3.44711 11.6766 3.33914 11.6306 3.23917 11.5617L2.96325 11.3717ZM8.47268 12.7483C7.90484 12.7483 7.32101 12.8983 6.82515 13.0452L6.68819 13.0852C5.98639 13.2962 5.19761 13.5391 4.46082 13.3761C3.91198 13.2542 3.35214 12.7653 3.30715 12.1715C3.42912 12.2205 3.93697 12.3084 3.93697 12.3084C5.17862 12.4214 6.16934 11.6706 7.25303 11.2038C8.27274 10.7629 9.42741 10.8059 10.3671 11.4327C10.3112 11.6326 10.2592 11.8336 10.2092 12.0345L10.2062 12.0475C10.2052 12.0565 10.2032 12.0645 10.2012 12.0725H10.2002L10.1952 12.0945C10.1392 12.3274 10.0872 12.5634 10.0402 12.7983C10.0132 12.9303 9.98725 13.0642 9.96225 13.1982C9.51038 12.8993 9.01253 12.7483 8.47268 12.7483ZM9.98925 17.6019L9.99125 17.5769C11.8337 18.1148 13.8581 18.1138 15.7006 17.5769L15.7016 17.6019C15.7356 18.3547 15.7486 19.1095 15.7326 19.8633C13.8461 20.4071 11.8457 20.4071 9.95926 19.8633C9.94226 19.1095 9.95626 18.3547 9.98925 17.6019ZM10.2112 23.6722C10.1312 23.0264 10.0732 22.3776 10.0302 21.7278L10.0232 21.6298C10.0232 21.6288 10.0232 21.6278 10.0232 21.6268C10.0032 21.3029 9.98825 20.979 9.97725 20.6551V20.6541V20.6501L9.96825 20.4001C11.8427 20.913 13.8491 20.913 15.7236 20.4001L15.7226 20.4151L15.7136 20.6481V20.6501C15.7056 20.975 15.6886 21.3019 15.6676 21.6268H15.6686C15.6676 21.6278 15.6676 21.6288 15.6676 21.6298H15.6686L15.6606 21.7278C15.6176 22.3776 15.5597 23.0264 15.4807 23.6722C13.9901 24.1881 12.4305 24.256 10.922 23.8811C10.839 23.8731 10.6281 23.8172 10.2112 23.6722ZM10.6411 26.1915L10.6401 26.1875C10.4911 25.5417 10.3781 24.8889 10.2852 24.233C11.9427 24.7559 13.7492 24.7549 15.4067 24.233C15.2817 25.1128 15.0868 25.9805 14.8848 26.8453C14.7359 26.9133 14.5809 26.9773 14.427 27.0302C13.2373 27.4391 11.9487 27.3632 10.805 26.8443C10.748 26.6324 10.692 26.4174 10.6411 26.1915ZM10.985 27.4741C11 27.4801 11.014 27.4831 11.0289 27.4881C12.2096 27.915 13.5282 27.91 14.7059 27.4741C14.469 28.2249 13.8242 30.3263 12.7235 30.1204C11.7307 29.9344 11.2389 28.2769 10.985 27.4741ZM13.5492 32.1128C12.7904 32.0898 12.1806 31.459 12.1806 30.6852C12.1806 30.6082 12.1866 30.5312 12.1986 30.4563C13.0964 30.9831 13.9161 30.2533 14.377 29.5035C14.8059 29.7945 15.0668 30.3303 14.9918 30.8532C14.333 30.9811 13.7692 31.472 13.5492 32.1128ZM16.3704 33.7283C16.1035 34.0133 15.7406 34.1742 15.3547 34.1742C13.6192 34.1742 13.4902 31.494 15.2278 31.334L15.3667 31.321C15.8906 31.326 16.3604 31.6179 16.6024 32.0808C16.2835 32.5597 16.1955 33.1785 16.3704 33.7283ZM18.1839 34.5581C17.1812 34.5581 16.4774 33.4614 16.9213 32.5387C17.3561 31.6369 18.5808 31.448 19.2366 32.2158C19.1776 32.6596 19.2876 33.1275 19.5365 33.4994C19.3776 34.1182 18.8247 34.5581 18.1839 34.5581ZM21.0641 33.8203C20.1813 33.8203 19.5235 32.9136 19.7845 32.0638C20.0394 31.233 21.0321 30.8532 21.7629 31.314C21.7969 31.8019 22.0348 32.2768 22.3957 32.5997C22.3277 33.2825 21.7529 33.8203 21.0641 33.8203ZM23.6453 32.5767C21.7819 32.5767 21.9208 29.6255 23.7633 29.7855C23.8823 30.4593 24.3801 31.0361 25.027 31.236C24.997 31.9808 24.3881 32.5767 23.6453 32.5767ZM25.5668 30.8102C24.873 30.8102 24.2872 30.2433 24.2422 29.5455V29.5435L24.2352 29.4346C24.2492 28.7388 24.784 28.1699 25.4708 28.1169C25.7148 28.6998 26.2596 29.1287 26.8774 29.2286C27.0424 30.0394 26.3706 30.8102 25.5668 30.8102ZM27.1973 28.7468L27.0924 28.7398C26.5375 28.7068 26.0537 28.3249 25.8877 27.788C25.6868 27.1362 25.9907 26.4294 26.6105 26.1455C27.0224 26.7053 27.7332 27.0013 28.413 26.8533C28.7889 27.7281 28.1311 28.7278 27.1973 28.7468ZM28.465 26.3105C27.8741 26.5044 27.2383 26.2545 26.9294 25.7096L26.9284 25.7076C26.5855 25.0968 26.7755 24.314 27.3643 23.9371C27.8362 24.369 28.536 24.516 29.1358 24.297C29.6396 25.0198 29.2907 26.0405 28.465 26.3105ZM29.1018 23.7592C28.5929 24.0091 27.9741 23.8831 27.5992 23.4533L27.5962 23.4493C27.0644 22.8354 27.2303 21.8557 27.9481 21.4708C27.9481 21.5528 27.9481 21.6348 27.9491 21.7158L27.9531 21.9047L28.1331 21.9567C28.6039 22.0907 29.1218 22.0237 29.5667 21.8307C30.0465 22.4725 29.8116 23.4113 29.1018 23.7592ZM30.3514 20.5391C30.2855 20.6401 30.3064 20.6071 30.3514 20.5401C29.9506 21.1439 29.1898 21.6118 28.453 21.5038C28.458 20.2012 28.6949 18.8996 29.1468 17.6799C29.7436 17.7939 30.3524 17.566 30.7783 17.1381C31.1432 18.1548 30.9443 19.6444 30.3524 20.5391C30.4434 20.4021 30.6274 20.1232 30.3514 20.5391ZM30.9803 15.5865C30.9183 16.2183 30.5254 16.8721 29.9246 17.1121C29.3277 17.352 28.489 17.0651 28.305 16.3993C27.9511 15.1137 29.6146 13.93 28.7979 12.6084C30.1655 12.5274 31.0952 14.4168 30.9803 15.5865Z" fill="black"/>
</g>
<defs>
<clipPath id="clip0_81_1052">
<rect width="30.9912" height="35.05" fill="white" transform="translate(0.5 0.0300293)"/>
</clipPath>
</defs>
</svg>
