<svg width="32" height="36" viewBox="0 0 32 36" fill="none" xmlns="http://www.w3.org/2000/svg">
<path fill-rule="evenodd" clip-rule="evenodd" d="M30.9493 13.946C31.0612 14.136 31.1832 14.3399 30.9473 13.9431C30.7493 13.6121 30.8413 13.7661 30.9443 13.9391C30.4074 13.0423 29.2777 12.2115 28.21 12.6644L27.7732 12.8494L28.1691 13.1123C28.8639 13.5732 28.349 14.6748 28.1061 15.2377C27.6772 16.2284 27.5532 17.4031 28.6789 17.9519C28.273 19.0496 28.0351 20.1913 27.9721 21.3539C26.9104 21.7218 26.4446 23.0165 27.0414 23.9842C26.3596 24.4561 26.0687 25.3558 26.3696 26.1386C25.6578 26.4805 25.2179 27.2712 25.3359 28.065C24.4891 28.174 23.8273 28.8618 23.7463 29.7245C22.8156 29.6716 22.0028 30.3204 21.8059 31.2071C20.9031 30.7962 19.8284 31.2071 19.4036 32.1089C18.6978 31.503 17.6491 31.518 16.9533 32.1279C16.6304 31.627 16.0975 31.3061 15.4997 31.2611C15.5557 30.5603 15.2028 29.8725 14.6179 29.4956C14.8719 28.9898 15.1038 28.3739 15.3087 27.6531L15.3167 27.6491L15.3447 27.5312C15.3447 27.5312 15.3467 27.5282 15.3467 27.5272L15.4917 27.0003L15.4807 27.0053C15.6086 26.4755 15.7226 25.9036 15.8216 25.2978C16.5574 24.779 17.4781 24.528 18.3719 24.584C19.2616 24.64 20.0814 25.2528 20.9801 24.9979C21.9188 24.732 25.8177 22.8005 24.3402 21.3979L24.2132 21.277L24.0552 21.3549C22.6556 22.0557 21.386 22.5166 19.8054 22.4416C18.5778 22.3816 17.1982 22.2177 16.1115 22.9405C16.1385 22.6196 16.1625 22.2977 16.1805 21.9768H16.1795L16.1805 21.9588V21.9568L16.1825 21.9268L16.1855 21.8738C16.7643 21.298 17.6101 21.007 18.4148 21.047C19.3466 21.094 20.0924 21.8728 21.0281 21.8088C21.8809 21.7498 22.8716 21.065 23.5494 20.5792C24.3252 20.0253 25.008 19.2295 25.1549 18.2518L25.1889 18.0269L24.972 17.9669C24.2592 17.772 23.5934 18.1379 22.9905 18.4808C22.1828 18.9416 21.538 19.1156 20.6212 18.8876C19.8224 18.6897 19.0777 18.4528 18.2459 18.5737C17.5151 18.6807 16.8123 18.9906 16.2375 19.4585C16.2345 18.9836 16.2225 18.5047 16.2015 18.0249C16.8353 17.9429 17.4761 17.9459 18.1129 17.9709L18.4898 17.9859C19.7455 18.0369 21.0551 18.0889 22.2448 17.605C23.1555 17.2341 24.1672 16.4653 24.3631 15.4266C24.4541 14.9488 24.2972 14.3939 23.7763 14.263C23.1625 14.111 22.5247 14.6039 22.0478 14.9248C21.518 15.2807 20.9851 15.6806 20.3543 15.8305C19.6705 15.9935 18.9297 15.8355 18.2549 15.6966L18.01 15.6476C17.3511 15.5166 16.6783 15.4326 16.0145 15.5846C15.9945 15.4066 15.9745 15.2297 15.9505 15.0557L15.9525 15.0537L15.9395 14.9568C15.9375 14.9418 15.9346 14.9248 15.9326 14.9088L15.9246 14.8518C15.9226 14.8378 15.9196 14.8238 15.9176 14.8098L15.8796 14.5369L15.8766 14.5379C15.8596 14.4239 15.8436 14.3099 15.8246 14.196C16.7143 13.5372 17.718 13.6771 18.7248 13.974L18.8597 14.014C20.2093 14.4159 22.4787 14.7618 22.8566 12.8264C24.76 11.9396 25.2259 9.40835 23.7363 7.90177C25.7717 6.43019 24.6021 4.18384 23.1165 2.83622C22.2917 2.08843 21.333 1.47461 20.3133 1.03773C19.4186 0.654843 18.2409 0.269952 17.2882 0.668839L16.8913 0.835791L17.2302 1.10471C17.817 1.57058 18.5068 2.1894 18.7787 2.9122C19.0956 3.75896 17.932 3.86793 17.3721 3.89892L17.0862 3.91391L17.1372 4.19883C17.1722 4.39078 18.019 8.90749 21.0671 8.90749C21.433 8.90749 21.8179 8.83151 22.2148 8.69655C21.6219 9.76624 21.412 11.0459 21.6449 12.2475C20.4433 12.3195 19.4705 11.4838 18.3988 11.0779C17.3382 10.677 16.1465 10.78 15.1718 11.3708C15.1528 11.3118 15.1348 11.2528 15.1158 11.1928L15.1148 11.1888L15.1138 11.1868C15.1118 11.1788 15.1088 11.1698 15.1068 11.1628L15.1018 11.1518L15.1028 11.1508L15.0458 10.9989C15.0048 10.8819 14.9628 10.765 14.9178 10.65L14.9158 10.643C14.9108 10.632 14.9068 10.619 14.9018 10.607L14.9008 10.608L14.8978 10.601L14.8958 10.598L14.8749 10.544L14.8769 10.543C14.8439 10.461 14.8099 10.3821 14.7759 10.3041L14.7699 10.3071L14.7479 10.2561L14.7529 10.2531L14.7449 10.2361C15.6286 9.60829 16.4194 8.5146 15.6566 6.72711L15.5057 6.37121L15.2417 6.65313C15.2288 6.66713 13.9381 8.03974 12.8614 8.10672C11.7557 8.03974 10.4621 6.66713 10.4491 6.65313L10.1862 6.37121L10.0342 6.72711C9.27145 8.5146 10.0632 9.60829 10.947 10.2361C10.943 10.2441 10.94 10.2521 10.936 10.2611L10.942 10.2631L10.922 10.3071L10.916 10.3041L10.912 10.3141C10.88 10.3861 10.848 10.46 10.818 10.537L10.814 10.544L10.816 10.545L10.795 10.597L10.794 10.596L10.789 10.607C10.784 10.621 10.779 10.637 10.773 10.651C10.71 10.8099 10.6491 10.9719 10.5901 11.1458L10.5881 11.1518H10.5901L10.5861 11.1628H10.5851C10.5821 11.1718 10.5791 11.1808 10.5761 11.1898L10.5751 11.1938C10.5571 11.2528 10.5381 11.3128 10.5191 11.3708C9.54437 10.78 8.35371 10.677 7.29202 11.0779C6.22232 11.4828 5.2476 12.3205 4.04694 12.2485C4.27988 11.0459 4.06994 9.76624 3.4771 8.69655C6.38328 9.68427 8.11078 6.66813 8.55366 4.19883L8.60564 3.91391L8.31972 3.89892C7.82386 3.87192 6.6642 3.78795 6.88113 3.00917C7.09507 2.24639 7.86885 1.57558 8.46168 1.10471L8.80058 0.835791L8.4027 0.668839C7.48996 0.285948 6.36728 0.630849 5.50053 0.986748C4.47582 1.40763 3.51209 2.01046 2.67833 2.74425C1.15377 4.08486 -0.135865 6.39121 1.95454 7.90177C0.465963 9.40835 0.931831 11.9396 2.83429 12.8264C3.21218 14.7618 5.48153 14.4159 6.83115 14.014L6.96711 13.974C7.97282 13.6761 8.97654 13.5372 9.86728 14.196C9.84829 14.3089 9.83229 14.4239 9.8153 14.5379L9.8113 14.5369L9.76731 14.8518V14.8558C9.76031 14.9038 9.75331 14.9508 9.74731 14.9987L9.73932 15.0537L9.74032 15.0547C9.71732 15.2297 9.69733 15.4066 9.67733 15.5846C9.01352 15.4326 8.34172 15.5166 7.68091 15.6476L7.43597 15.6976C6.80515 15.8265 6.13635 15.9615 5.49253 15.8605C4.86171 15.7615 4.31786 15.3816 3.79901 15.0297C3.30315 14.6938 2.68333 14.185 2.04851 14.242C1.44768 14.294 1.22775 14.8958 1.32872 15.4266C1.51766 16.4233 2.46739 17.1791 3.33714 17.558C4.5528 18.0899 5.90641 18.0379 7.20104 17.9859L7.57793 17.9709C8.21575 17.9459 8.85657 17.9429 9.49039 18.0249C9.46939 18.5047 9.4574 18.9836 9.4544 19.4585C8.18176 18.4208 6.75717 18.4388 5.2566 18.8397C4.35285 19.0816 3.68405 19.0336 2.86228 18.5727C2.20847 18.2058 1.49767 17.754 0.718891 17.9669L0.501953 18.0269L0.535943 18.2518C0.674904 19.1666 1.28773 19.9333 2.00153 20.4762C2.68233 20.995 3.64506 21.6379 4.49981 21.7888C5.45254 21.9578 6.21432 21.151 7.13506 21.058C7.98282 20.973 8.89456 21.266 9.50538 21.8738L9.50838 21.9268C9.50938 21.9368 9.50938 21.9468 9.50938 21.9568L9.51038 21.9778C9.52838 22.2797 9.54937 22.5826 9.57536 22.8845L9.57936 22.9405C8.46668 22.2367 7.13506 22.3816 5.88542 22.4406C4.30487 22.5156 3.03623 22.0557 1.63563 21.3549L1.47867 21.277L1.35071 21.3979C-0.170855 22.8445 4.14991 25.0719 5.2296 25.0719C6.00038 25.0629 6.68819 24.595 7.47596 24.578C8.31872 24.559 9.17548 24.809 9.86928 25.2968C9.90127 25.4938 9.93426 25.6907 9.97125 25.8866L9.97225 25.8926C10.0252 26.1766 10.0822 26.4515 10.1422 26.7174L10.1432 26.7954L10.1662 26.8184C10.1812 26.8834 10.1982 26.9433 10.2132 27.0063L10.1992 27.0003L10.3371 27.4962C10.3371 27.4992 10.3381 27.5022 10.3391 27.5052L10.3401 27.5092L10.3421 27.5132C10.3431 27.5192 10.3441 27.5252 10.3461 27.5312L10.3481 27.5392C10.739 28.9478 11.2289 29.9775 11.7737 30.5463C11.4068 31.719 12.2306 32.9546 13.4483 33.0476C13.3123 34.7341 15.3437 35.7538 16.5994 34.6431C17.4161 35.8918 19.3216 35.7248 19.9174 34.3572C20.9541 35.204 22.5407 34.6391 22.8526 33.3395C24.0302 33.9074 25.4258 33.0626 25.5188 31.754C26.6135 31.786 27.5422 30.7882 27.3883 29.6766C28.5799 29.5336 29.3457 28.254 28.8869 27.1243C29.8356 26.6384 30.1665 25.4018 29.5817 24.5C30.3624 23.9382 30.5574 22.8215 30.0095 22.0237C30.7153 21.5479 31.1262 20.7821 31.3032 19.9583C31.4901 19.0856 31.5591 17.9459 31.1202 17.1351C31.733 16.1434 31.5191 14.9058 30.9493 13.946ZM16.2415 20.1383C17.0072 19.3315 18.1859 18.9146 19.2566 19.0776C19.0817 19.0506 18.4098 18.9476 19.2586 19.0776C19.3156 19.0866 19.3046 19.0846 19.2606 19.0776C20.1473 19.2155 21.0181 19.6664 21.9338 19.4905C22.8556 19.3115 23.6464 18.3698 24.6041 18.4218C24.3961 19.1716 23.8333 19.7594 23.2165 20.1933C22.6266 20.6071 21.7269 21.251 20.9931 21.3L20.9231 21.303C20.1134 21.303 19.4116 20.6291 18.5898 20.5432C17.759 20.4552 16.8993 20.6861 16.2175 21.176C16.2325 20.8301 16.2385 20.4842 16.2415 20.1383ZM17.913 16.1474L18.1549 16.1974C19.3876 16.4493 20.4823 16.5113 21.5929 15.8335C21.9468 15.6186 24.1462 13.9461 23.8673 15.3387C23.6793 16.2774 22.6646 16.9302 21.8379 17.2141C20.7722 17.579 19.6165 17.522 18.5098 17.476L18.1309 17.461C17.4811 17.4381 16.8283 17.4331 16.1815 17.513L16.1805 17.489C16.1785 17.4501 16.1745 17.4131 16.1725 17.3741L16.1695 17.3331C16.1565 17.1251 16.1425 16.9182 16.1255 16.7143C16.1255 16.7083 16.1255 16.7023 16.1245 16.6963L16.1125 16.5553C16.0995 16.3984 16.0855 16.2404 16.0705 16.0834C16.6154 15.9455 17.3951 16.0445 17.913 16.1474ZM16.0025 24.0202C16.0165 23.8972 16.0315 23.7752 16.0435 23.6523C16.1515 23.5403 16.2665 23.4453 16.3854 23.3684C16.3654 23.3814 16.3714 23.3774 16.3854 23.3684C16.4554 23.3234 16.8053 23.0984 16.3854 23.3684C17.4481 22.6856 18.8007 22.9155 19.9864 22.9595C21.487 23.0135 22.7536 22.5726 24.0852 21.9088C24.3482 22.6276 23.1875 23.2394 22.7296 23.5363C22.1008 23.9432 21.244 24.556 20.4673 24.562C20.1124 24.558 19.7785 24.3881 19.4475 24.2771C19.0847 24.1551 18.7038 24.0882 18.3219 24.0712C17.4941 24.0322 16.6503 24.2231 15.9246 24.628C15.9525 24.4261 15.9785 24.2231 16.0025 24.0202ZM6.26831 20.7471C6.38727 20.7001 7.14806 20.3972 6.26631 20.7481C6.24532 20.7561 6.24731 20.7551 6.26431 20.7491C5.78245 20.9411 5.30458 21.303 4.76774 21.303L4.69776 21.3C3.96497 21.251 3.06522 20.6071 2.47539 20.1933C1.85857 19.7594 1.29573 19.1716 1.08779 18.4218C1.80658 18.3808 2.46539 18.9726 3.08422 19.2615C3.859 19.6234 4.61178 19.5395 5.41455 19.3245C6.87613 18.9336 8.32772 18.9556 9.4494 20.1383C9.4514 20.3172 9.4544 20.4982 9.4584 20.6791L9.4624 20.8431C9.46539 20.9541 9.46939 21.065 9.47339 21.176C8.56765 20.5242 7.28802 20.3422 6.26831 20.7471ZM9.56637 16.7003H9.56737C9.56637 16.7063 9.56637 16.7103 9.56537 16.7163V16.7193C9.56537 16.7213 9.56437 16.7233 9.56437 16.7253C9.54837 16.9252 9.53538 17.1291 9.52238 17.3331H9.52138L9.51938 17.3681C9.51738 17.4091 9.51338 17.4481 9.51138 17.489L9.50938 17.513C8.86357 17.4331 8.20975 17.4391 7.55994 17.461L7.18105 17.476C6.07436 17.522 4.91969 17.579 3.854 17.2141C3.02723 16.9302 2.01252 16.2764 1.82458 15.3377C1.54566 13.946 3.74503 15.6186 4.09893 15.8335C5.20961 16.5103 6.3043 16.4493 7.53595 16.1974L7.77888 16.1474C8.29573 16.0445 9.07551 15.9455 9.62035 16.0834C9.60635 16.2324 9.59336 16.3824 9.58036 16.5313L9.56637 16.7003ZM7.58293 24.0612C6.96411 24.0612 6.40527 24.2211 5.82743 24.4271C5.15363 24.666 4.63777 24.4611 4.02495 24.1491C3.45211 23.8572 2.90227 23.5183 2.38342 23.1374C2.02552 22.8745 1.40969 22.4456 1.60664 21.9088C3.01124 22.6096 4.31786 23.0245 5.89741 22.9505C7.11907 22.8935 8.69761 22.6646 9.64734 23.6523C9.68133 23.9782 9.72232 24.3031 9.76631 24.628C9.1065 24.2601 8.34871 24.0612 7.58293 24.0612ZM21.0671 8.39763C18.8367 8.39763 17.924 5.33451 17.695 4.38478C18.3839 4.3148 19.3886 4.05887 19.3416 3.16713C19.2956 2.31937 18.5108 1.56358 17.927 1.03373C20.3803 0.786805 26.9024 5.16156 23.3474 7.55787L23.3444 7.55687L23.1935 7.65385C22.5637 8.06173 21.8289 8.39763 21.0671 8.39763ZM22.8916 8.55959C22.7086 8.79052 22.5057 9.02046 23.0535 8.32965C23.1365 8.28367 23.2205 8.23568 23.3054 8.18369C24.5551 9.34536 24.3282 11.3988 22.8646 12.2545C22.8566 12.2125 22.8456 12.1726 22.8326 12.1326L22.7266 11.8127L22.4517 12.0026C22.3517 12.0706 22.2447 12.1166 22.1318 12.1566C21.8899 10.9209 22.1758 9.59229 22.8916 8.55959ZM17.792 11.4218C19.1706 11.7557 20.2563 12.8834 21.7549 12.7484C21.7549 12.7484 22.2627 12.6604 22.3847 12.6114C22.3357 13.2053 21.7819 13.6931 21.23 13.8161C20.4933 13.979 19.7055 13.7361 19.0027 13.5252L18.8667 13.4852C17.809 13.1723 16.7033 12.9943 15.7296 13.6381C15.7076 13.5232 15.6856 13.4082 15.6626 13.2932C15.6606 13.2872 15.6596 13.2812 15.6586 13.2752V13.2742C15.6556 13.2622 15.6536 13.2502 15.6516 13.2383V13.2373C15.6146 13.0563 15.5727 12.8754 15.5317 12.6954L15.5307 12.6934C15.5177 12.6344 15.5057 12.5714 15.4907 12.5125C15.4877 12.5005 15.4847 12.4885 15.4817 12.4775C15.4757 12.4525 15.4687 12.4275 15.4627 12.4025L15.4597 12.3905L15.4587 12.3885C15.4167 12.2165 15.3727 12.0436 15.3247 11.8726C16.0405 11.3948 16.9723 11.2198 17.792 11.4218ZM15.6726 17.488C15.4707 17.549 15.2657 17.608 15.0608 17.655C13.4043 18.0389 11.6468 17.9839 10.0192 17.488C10.0332 17.2541 10.0222 16.9972 10.0672 16.7672C10.0682 16.7642 10.0682 16.7602 10.0682 16.7562C10.1072 16.2474 10.1632 15.7395 10.2282 15.2327C11.9127 15.8015 13.7782 15.7995 15.4637 15.2337C15.5277 15.7395 15.5827 16.2474 15.6236 16.7562C15.6236 16.7592 15.6236 16.7632 15.6236 16.7662C15.6436 17.0022 15.6576 17.2451 15.6726 17.488ZM15.3247 7.28295C15.3637 7.40492 15.3867 7.50289 15.3987 7.58087C15.5797 8.46561 15.2867 9.2014 14.516 9.77424C14.481 9.70926 14.446 9.64628 14.41 9.58629L14.347 9.48632C14.29 9.39635 14.229 9.30637 14.1661 9.2204L14.1351 9.17841C14.0701 9.09344 14.0031 9.01646 13.9371 8.94548L13.8361 8.84551C13.7942 8.81052 13.7522 8.77453 13.7112 8.73654L13.6802 8.71154L13.6602 8.69555C13.6302 8.67155 13.5982 8.65056 13.5672 8.63057L13.5082 8.59358C13.4693 8.56958 13.4293 8.54859 13.3883 8.5276C13.3833 8.5246 13.3773 8.5226 13.3723 8.5206C14.1701 8.27867 14.9288 7.65185 15.3247 7.28295ZM10.3301 8.67156C10.2612 8.45962 10.2322 8.23568 10.2382 8.01174C10.2392 7.97975 10.2942 7.51489 10.3661 7.28295C10.762 7.64885 11.5188 8.27167 12.3266 8.5166C12.1876 8.47361 11.8187 8.88549 11.7407 8.96647C11.5078 9.2114 11.3649 9.50432 11.1709 9.76924C10.793 9.50232 10.4751 9.11743 10.3301 8.67156ZM10.4401 13.8431C10.5031 13.4892 10.5731 13.1363 10.6561 12.7874L10.6651 12.7524L10.719 12.5215C10.817 12.1286 10.925 11.7397 11.0529 11.3568L11.0549 11.3518L11.1189 11.1728C11.1809 10.9959 11.2479 10.8209 11.3209 10.649C11.3219 10.647 11.3219 10.646 11.3229 10.644L11.5268 10.1971C11.5718 10.1071 11.6198 10.0212 11.6688 9.93419C11.6758 9.9212 11.6808 9.9122 11.6888 9.8982L11.7697 9.76024C11.8217 9.67827 11.8747 9.60029 11.9457 9.50232C11.9577 9.48532 11.9717 9.46833 11.9867 9.45333C12.0307 9.39835 12.0757 9.34536 12.1206 9.29738L12.1616 9.25639H12.1626L12.3776 9.07544C12.4036 9.05844 12.4286 9.04045 12.4505 9.02845L12.6945 8.92548C12.8154 8.89849 12.8754 8.89749 12.9964 8.92548L13.2373 9.02645C13.2623 9.04045 13.2883 9.05844 13.3133 9.07544L13.5702 9.29538H13.5712L13.5702 9.29638C13.6252 9.35836 13.6792 9.42234 13.7312 9.48632L13.7332 9.48532L13.7632 9.52731C13.8162 9.60029 13.8701 9.67827 13.9211 9.76024H13.9221C13.9221 9.76124 13.9231 9.76224 13.9231 9.76324L14.0261 9.93919C14.1061 10.0792 14.1791 10.2221 14.247 10.3691L14.441 10.8189L14.449 10.8389C14.491 10.9449 14.5319 11.0589 14.5729 11.1738L14.5809 11.1958L14.6409 11.3638C14.7069 11.5617 14.7669 11.7617 14.8239 11.9626L14.8719 12.1406C14.9058 12.2625 14.9388 12.3855 14.9708 12.5145L15.0408 12.8104C15.0678 12.9303 15.0948 13.0513 15.1208 13.1763L15.1238 13.1873C15.1738 13.4222 15.2188 13.6581 15.2607 13.8951L15.3177 14.219C15.3447 14.3799 15.3687 14.5469 15.3927 14.7118C13.7442 15.2877 11.9467 15.2877 10.2992 14.7118C10.3232 14.5469 10.3471 14.3799 10.3741 14.219L10.4401 13.8431ZM1.42069 5.30752C1.4027 5.3665 1.3887 5.41348 1.3797 5.44348C1.3877 5.41648 1.4017 5.3735 1.42069 5.30752C1.57365 4.79866 1.63563 4.59572 1.64563 4.56273C1.63163 4.60971 1.49767 5.05359 1.42169 5.30652C1.80858 4.01888 3.00624 3.01717 4.07993 2.31137C5.11264 1.63256 6.48725 0.904771 7.76388 1.03373C7.19304 1.55259 6.48525 2.24539 6.36228 3.05016C6.21632 4.00989 7.26003 4.3098 7.99682 4.38478C7.74089 5.44648 7.32201 6.54116 6.61121 7.37892C5.47453 8.71954 3.87999 8.54859 2.49638 7.65285L2.49538 7.65185L2.34643 7.55687L2.34443 7.55787C1.57265 7.04202 1.14077 6.23725 1.42069 5.30752ZM1.3717 5.47247C1.36871 5.48147 1.36871 5.48147 1.3717 5.47247V5.47247ZM1.56965 10.452C1.54166 10.3291 1.54965 10.3631 1.56965 10.452V10.452ZM1.64863 10.792C1.64863 10.7939 1.64963 10.7969 1.64963 10.7979C1.64963 10.7959 1.64863 10.7949 1.64863 10.792ZM2.96325 11.8117L2.85828 12.1336C2.84528 12.1736 2.83429 12.2125 2.82629 12.2545C2.21846 11.8986 1.76659 11.3058 1.61264 10.639C1.41369 9.77824 1.7306 8.79352 2.38642 8.18369C2.47039 8.23568 2.55537 8.28367 2.63834 8.32965C3.4761 9.38835 3.82001 10.8289 3.56008 12.1566C3.44711 12.1166 3.33914 12.0706 3.23917 12.0016L2.96325 11.8117ZM8.47268 13.1883C7.90484 13.1883 7.32101 13.3382 6.82515 13.4852L6.68819 13.5252C5.98639 13.7361 5.19761 13.979 4.46082 13.8161C3.91198 13.6941 3.35214 13.2053 3.30715 12.6114C3.42912 12.6604 3.93697 12.7484 3.93697 12.7484C5.17862 12.8614 6.16934 12.1106 7.25303 11.6437C8.27274 11.2028 9.42741 11.2458 10.3671 11.8726C10.3112 12.0726 10.2592 12.2735 10.2092 12.4745L10.2062 12.4875C10.2052 12.4965 10.2032 12.5045 10.2012 12.5125H10.2002L10.1952 12.5345C10.1392 12.7674 10.0872 13.0033 10.0402 13.2383C10.0132 13.3702 9.98725 13.5042 9.96225 13.6381C9.51038 13.3392 9.01253 13.1883 8.47268 13.1883ZM9.98925 18.0419L9.99125 18.0169C11.8337 18.5547 13.8581 18.5537 15.7006 18.0169L15.7016 18.0419C15.7356 18.7947 15.7486 19.5495 15.7326 20.3032C13.8461 20.8471 11.8457 20.8471 9.95926 20.3032C9.94226 19.5495 9.95626 18.7947 9.98925 18.0419ZM10.2112 24.1122C10.1312 23.4663 10.0732 22.8175 10.0302 22.1677L10.0232 22.0697C10.0232 22.0687 10.0232 22.0677 10.0232 22.0667C10.0032 21.7428 9.98825 21.4189 9.97725 21.095V21.094V21.09L9.96825 20.8401C11.8427 21.3529 13.8491 21.3529 15.7236 20.8401L15.7226 20.8551L15.7136 21.088V21.09C15.7056 21.4149 15.6886 21.7418 15.6676 22.0667H15.6686C15.6676 22.0677 15.6676 22.0687 15.6676 22.0697H15.6686L15.6606 22.1677C15.6176 22.8175 15.5597 23.4663 15.4807 24.1122C13.9901 24.628 12.4305 24.696 10.922 24.3211C10.839 24.3131 10.6281 24.2571 10.2112 24.1122ZM10.6411 26.6314L10.6401 26.6274C10.4911 25.9816 10.3781 25.3288 10.2852 24.673C11.9427 25.1958 13.7492 25.1948 15.4067 24.673C15.2817 25.5527 15.0868 26.4205 14.8848 27.2852C14.7359 27.3532 14.5809 27.4172 14.427 27.4702C13.2373 27.8791 11.9487 27.8031 10.805 27.2842C10.748 27.0723 10.692 26.8574 10.6411 26.6314ZM10.985 27.9141C11 27.9201 11.014 27.9231 11.0289 27.9281C12.2096 28.3549 13.5282 28.3499 14.7059 27.9141C14.469 28.6649 13.8242 30.7663 12.7235 30.5603C11.7307 30.3744 11.2389 28.7168 10.985 27.9141ZM13.5492 32.5527C12.7904 32.5297 12.1806 31.8989 12.1806 31.1251C12.1806 31.0482 12.1866 30.9712 12.1986 30.8962C13.0964 31.4231 13.9161 30.6933 14.377 29.9435C14.8059 30.2344 15.0668 30.7703 14.9918 31.2931C14.333 31.4211 13.7692 31.9119 13.5492 32.5527ZM16.3704 34.1683C16.1035 34.4532 15.7406 34.6142 15.3547 34.6142C13.6192 34.6142 13.4902 31.9339 15.2278 31.774L15.3667 31.761C15.8906 31.766 16.3604 32.0579 16.6024 32.5208C16.2835 32.9996 16.1955 33.6184 16.3704 34.1683ZM18.1839 34.998C17.1812 34.998 16.4774 33.9014 16.9213 32.9786C17.3561 32.0769 18.5808 31.8879 19.2366 32.6557C19.1776 33.0996 19.2876 33.5675 19.5365 33.9393C19.3776 34.5582 18.8247 34.998 18.1839 34.998ZM21.0641 34.2603C20.1813 34.2603 19.5235 33.3535 19.7845 32.5038C20.0394 31.673 21.0321 31.2931 21.7629 31.754C21.7969 32.2418 22.0348 32.7167 22.3957 33.0396C22.3277 33.7224 21.7529 34.2603 21.0641 34.2603ZM23.6453 33.0166C21.7819 33.0166 21.9208 30.0655 23.7633 30.2254C23.8823 30.8992 24.3801 31.476 25.027 31.676C24.997 32.4208 24.3881 33.0166 23.6453 33.0166ZM25.5668 31.2501C24.873 31.2501 24.2872 30.6833 24.2422 29.9855V29.9835L24.2352 29.8745C24.2492 29.1787 24.784 28.6099 25.4708 28.5569C25.7148 29.1397 26.2596 29.5686 26.8774 29.6686C27.0424 30.4793 26.3706 31.2501 25.5668 31.2501ZM27.1973 29.1867L27.0924 29.1797C26.5375 29.1467 26.0537 28.7648 25.8877 28.228C25.6868 27.5762 25.9907 26.8694 26.6105 26.5854C27.0224 27.1453 27.7332 27.4412 28.413 27.2932C28.7889 28.168 28.1311 29.1677 27.1973 29.1867ZM28.465 26.7504C27.8741 26.9443 27.2383 26.6944 26.9294 26.1496L26.9284 26.1476C26.5855 25.5367 26.7755 24.754 27.3643 24.3771C27.8362 24.809 28.536 24.9559 29.1358 24.737C29.6396 25.4598 29.2907 26.4805 28.465 26.7504ZM29.1018 24.1991C28.5929 24.4491 27.9741 24.3231 27.5992 23.8932L27.5962 23.8892C27.0644 23.2754 27.2303 22.2957 27.9481 21.9108C27.9481 21.9928 27.9481 22.0747 27.9491 22.1557L27.9531 22.3447L28.1331 22.3966C28.6039 22.5306 29.1218 22.4636 29.5667 22.2707C30.0465 22.9125 29.8116 23.8512 29.1018 24.1991ZM30.3514 20.979C30.2855 21.08 30.3064 21.047 30.3514 20.98C29.9506 21.5839 29.1898 22.0517 28.453 21.9438C28.458 20.6411 28.6949 19.3395 29.1468 18.1199C29.7436 18.2338 30.3524 18.0059 30.7783 17.578C31.1432 18.5947 30.9443 20.0843 30.3524 20.979C30.4434 20.8421 30.6274 20.5632 30.3514 20.979ZM30.9803 16.0265C30.9183 16.6583 30.5254 17.3121 29.9246 17.552C29.3277 17.792 28.489 17.505 28.305 16.8392C27.9511 15.5536 29.6146 14.3699 28.7979 13.0483C30.1655 12.9673 31.0952 14.8568 30.9803 16.0265Z" fill="white"/>
</svg>
