<svg width="30" height="36" viewBox="0 0 30 36" fill="none" xmlns="http://www.w3.org/2000/svg">
<path fill-rule="evenodd" clip-rule="evenodd" d="M25.1593 1.66002C23.7633 0.878023 22.5133 0.499023 21.3393 0.499023C19.5783 0.499023 18.2883 1.35102 17.0413 2.17602C16.7333 2.37902 16.4273 2.58102 16.1163 2.76902C14.6723 3.64102 13.1243 3.72002 12.1973 3.67502V3.13902H9.6563V4.54802C8.4063 4.69802 7.1563 5.43602 6.2723 6.57202C5.1303 8.03802 4.6703 9.87802 4.3983 11.317C3.6303 15.361 3.7743 19.546 3.9133 23.592C3.9973 26.06 4.0853 28.603 3.9653 31.1C3.4653 30.672 2.6363 30.525 1.9693 30.787C1.3313 31.038 0.822298 31.634 0.607298 32.383C0.392298 33.132 0.504298 33.919 0.908298 34.487C1.3223 35.072 2.0353 35.421 2.8143 35.421C3.4413 35.421 4.0133 35.201 4.4283 34.809C4.7983 35.236 5.3553 35.5 5.9233 35.5C6.0483 35.5 6.1733 35.487 6.2933 35.461C6.9213 35.328 7.4643 34.842 7.7113 34.234C8.3043 34.746 9.0783 35 9.8183 34.888C10.7603 34.743 11.5603 33.973 11.7203 33.056C11.8933 32.07 11.2753 31.029 10.3733 30.783C9.8483 30.64 9.2573 30.805 8.8503 31.145C9.2493 25.571 9.0993 19.945 8.4033 14.402L8.3793 14.207C8.2233 12.977 8.0623 11.706 8.3383 10.52C8.5423 9.64502 9.0323 8.88002 9.6563 8.42302V8.92802H12.1973V8.50302C12.4513 8.51002 12.7273 8.53002 13.0283 8.56202L13.2923 13.009C13.3433 13.871 13.5093 14.907 14.3463 15.272C14.5153 15.346 14.7003 15.384 14.8983 15.384C15.2283 15.384 15.5913 15.282 16.0093 15.072C16.9713 14.588 17.8153 13.844 18.4353 12.942C18.4433 12.976 18.4513 13.01 18.4593 13.043L18.4983 13.211C18.4403 13.258 18.3823 13.305 18.3223 13.35L18.2183 13.429V13.562C18.2183 13.584 18.2223 14.122 18.5323 15.166C18.5663 15.282 18.6033 15.38 18.6453 15.469L18.5273 15.559L18.7243 15.776C18.8683 15.935 19.0283 16.06 19.1993 16.171C18.4183 17.911 17.8303 19.697 17.4153 21.624L17.3463 21.943L18.2303 21.944C18.2453 22.121 18.2603 22.296 18.2773 22.479C18.3633 23.352 18.4603 24.342 18.3293 25.951C18.1963 27.565 18.0943 28.626 17.9913 29.685C17.9393 30.22 17.8873 30.755 17.8313 31.361C17.8013 31.694 17.7693 32.039 17.6113 32.306C17.4303 32.612 17.0973 32.8 16.7443 33C16.6613 33.047 16.5803 33.093 16.4993 33.142C16.2243 33.306 15.8553 33.583 15.6563 33.967C15.5693 34.137 15.5753 34.338 15.6723 34.506C15.7713 34.677 15.9533 34.783 16.1453 34.783L18.4803 34.532C18.7243 34.507 19.0573 34.47 19.3093 34.244C19.6653 33.923 19.6663 33.421 19.6683 33.017L19.6693 32.899C19.6783 32.112 19.9183 31.363 20.1723 30.569C20.2793 30.236 20.3853 29.902 20.4753 29.565C20.8333 28.209 20.9093 26.787 20.9823 25.412C21.0343 24.425 21.0943 23.412 21.2543 22.433C21.4153 23.412 21.4743 24.425 21.5273 25.412C21.6003 26.787 21.6753 28.209 22.0343 29.566C22.1233 29.902 22.2303 30.236 22.3363 30.569C22.5903 31.363 22.8303 32.112 22.8393 32.899L22.8403 33.016C22.8423 33.42 22.8443 33.923 23.1993 34.244C23.4523 34.47 23.7853 34.507 24.0283 34.532L26.3053 34.78L26.3643 34.783C26.5563 34.783 26.7373 34.677 26.8373 34.506C26.9343 34.338 26.9403 34.137 26.8523 33.967C26.6543 33.583 26.2843 33.306 26.0093 33.142C25.9293 33.093 25.8473 33.047 25.7643 33C25.4113 32.8 25.0783 32.612 24.8973 32.306C24.7403 32.039 24.7083 31.694 24.6773 31.361C24.6213 30.759 24.5703 30.227 24.5183 29.694C24.4163 28.632 24.3123 27.57 24.1803 25.951C24.0483 24.342 24.1453 23.354 24.2313 22.482C24.2493 22.3 24.2633 22.126 24.2783 21.951L24.9673 21.952L23.5613 17.007C23.4943 16.772 23.4153 16.547 23.3073 16.335L24.6273 12.992C25.1463 15.333 25.7233 17.72 26.7263 19.934C26.7643 20.017 26.8003 20.101 26.8373 20.187C27.0263 20.631 27.2403 21.135 27.6883 21.417C27.8633 21.527 28.0663 21.587 28.2593 21.587C28.5983 21.587 28.8813 21.409 29.0593 21.084C29.3113 20.624 29.1783 20.088 29.0563 19.725C28.8903 19.23 28.7163 18.881 28.5323 18.511C28.2773 17.996 28.0123 17.464 27.7223 16.443C27.3153 15.011 26.9743 13.718 26.9133 12.381C26.9033 12.148 26.9003 11.914 26.8973 11.68C26.8903 11.101 26.8833 10.503 26.7583 9.91702C26.6893 9.59002 26.5503 9.36302 26.3903 9.19702C27.5903 8.80602 29.2713 8.48802 29.2903 8.48502L29.4993 8.44602V2.73302H29.2453C27.7073 2.73302 25.1633 1.66002 25.1593 1.66002ZM9.6563 5.45402C8.3133 6.14702 7.2023 7.09402 6.4333 8.23102C5.4513 9.68502 5.0433 11.433 5.3143 13.03C5.3603 13.305 5.4273 13.582 5.4923 13.849C5.6503 14.498 5.7983 15.112 5.6853 15.722C5.6223 16.061 5.4743 16.4 5.3313 16.727C5.1023 17.251 4.8653 17.792 4.9383 18.388C4.9833 18.757 5.1423 19.086 5.2963 19.403C5.4553 19.731 5.6053 20.041 5.6243 20.374C5.6473 20.773 5.4793 21.153 5.3023 21.557C5.1303 21.948 4.9513 22.354 4.9433 22.802C4.9353 23.222 5.0783 23.609 5.2163 23.984C5.3483 24.342 5.4733 24.679 5.4663 25.028C5.4593 25.402 5.3023 25.761 5.1363 26.14C4.9303 26.61 4.7163 27.097 4.7993 27.632C4.8483 27.947 4.9953 28.228 5.1383 28.499C5.3073 28.823 5.4683 29.13 5.4323 29.45C5.4073 29.679 5.2813 29.889 5.1493 30.113C5.0193 30.331 4.8843 30.558 4.8293 30.824C4.7653 31.137 4.8213 31.439 4.8763 31.733C4.9073 31.902 4.9373 32.061 4.9443 32.219C4.9643 32.67 4.7463 33.135 4.3593 33.462C3.9733 33.79 3.4883 33.921 3.0623 33.813C2.6523 33.708 2.3193 33.402 2.2353 33.051C2.1903 32.862 2.2313 32.638 2.3443 32.465C2.4373 32.321 2.5663 32.229 2.7093 32.207C2.8873 32.179 3.0583 32.301 3.1493 32.435C3.2163 32.536 3.2323 32.642 3.2263 32.738C3.2103 33.027 3.5043 33.061 3.5623 32.869C3.6243 32.663 3.5793 32.431 3.4413 32.226C3.2553 31.948 2.9453 31.798 2.6553 31.844C2.4123 31.882 2.1973 32.03 2.0473 32.261C1.8793 32.52 1.8193 32.849 1.8893 33.138C2.0053 33.626 2.4323 34.031 2.9773 34.169C3.1033 34.201 3.2333 34.217 3.3643 34.217C3.7873 34.217 4.2243 34.053 4.5853 33.746C5.0583 33.346 5.3263 32.768 5.3003 32.201C5.2923 32.017 5.2583 31.837 5.2263 31.663C5.1763 31.394 5.1283 31.14 5.1783 30.901C5.2203 30.696 5.3343 30.506 5.4533 30.305C5.6003 30.057 5.7523 29.801 5.7873 29.492C5.8353 29.057 5.6403 28.684 5.4513 28.324C5.3183 28.069 5.1913 27.828 5.1523 27.574C5.0853 27.148 5.2683 26.732 5.4603 26.291C5.6353 25.895 5.8143 25.484 5.8233 25.036C5.8313 24.616 5.6883 24.228 5.5493 23.853C5.4173 23.495 5.2923 23.157 5.2993 22.809C5.3063 22.437 5.4623 22.083 5.6273 21.708C5.8143 21.282 6.0083 20.842 5.9803 20.352C5.9573 19.944 5.7833 19.586 5.6153 19.239C5.4683 18.936 5.3293 18.649 5.2923 18.342C5.2313 17.849 5.4383 17.377 5.6563 16.878C5.8083 16.532 5.9643 16.173 6.0363 15.792C6.1633 15.101 5.9983 14.419 5.8383 13.76C5.7753 13.499 5.7093 13.228 5.6643 12.967C5.4103 11.465 5.7963 9.81602 6.7253 8.44202C7.4313 7.40002 8.4373 6.52202 9.6563 5.86402V6.25402C8.7153 6.93702 7.7873 7.69502 7.0613 8.65202C6.0553 9.97602 5.6093 11.521 5.8373 12.888C5.8963 13.243 6.0003 13.593 6.1003 13.931C6.2823 14.544 6.4533 15.122 6.3743 15.712C6.3353 16.008 6.2323 16.294 6.1253 16.597C5.9703 17.032 5.8093 17.482 5.8483 17.968C5.8793 18.37 6.0423 18.732 6.2013 19.082C6.3573 19.428 6.5053 19.755 6.5233 20.103C6.5443 20.513 6.3843 20.906 6.2153 21.323C6.0403 21.751 5.8613 22.193 5.8763 22.675C5.8903 23.096 6.0493 23.477 6.2053 23.846C6.3523 24.198 6.4923 24.532 6.5033 24.882C6.5173 25.318 6.3273 25.773 6.1443 26.212C5.8813 26.84 5.6093 27.491 5.9023 28.139C5.9893 28.333 6.1173 28.494 6.2413 28.65C6.3783 28.821 6.5083 28.983 6.5653 29.17C6.6813 29.54 6.5053 29.925 6.3193 30.333C6.1803 30.638 6.0363 30.954 5.9963 31.295C5.9443 31.741 6.0843 32.18 6.2083 32.568C6.3413 32.985 6.4393 33.332 6.3913 33.679C6.3483 33.993 6.1203 34.332 5.8143 34.356C5.6783 34.365 5.5283 34.273 5.4473 34.127C5.4183 34.077 5.3613 33.947 5.4143 33.862C5.4563 33.818 5.5283 33.802 5.6033 33.818C5.6463 33.827 5.6883 33.841 5.7113 33.87C5.8833 34.095 6.1673 33.889 6.0383 33.7C5.9573 33.581 5.8313 33.492 5.6783 33.459C5.4833 33.416 5.2893 33.469 5.1413 33.628C5.0103 33.825 5.0093 34.08 5.1383 34.31C5.2783 34.563 5.5373 34.724 5.7943 34.724C5.8103 34.724 5.8253 34.723 5.8413 34.723C6.3453 34.683 6.6823 34.182 6.7443 33.731C6.8073 33.271 6.6633 32.817 6.5463 32.453C6.4293 32.085 6.3073 31.704 6.3503 31.338C6.3833 31.056 6.5143 30.768 6.6423 30.489C6.8493 30.035 7.0633 29.566 6.9053 29.058C6.8263 28.804 6.6693 28.607 6.5173 28.416C6.4023 28.272 6.2933 28.136 6.2243 27.985C6.0003 27.485 6.2293 26.937 6.4713 26.357C6.6713 25.881 6.8763 25.388 6.8603 24.87C6.8463 24.45 6.6863 24.068 6.5313 23.7C6.3833 23.348 6.2443 23.014 6.2323 22.663C6.2203 22.261 6.3773 21.875 6.5433 21.466C6.7213 21.029 6.9053 20.577 6.8793 20.083C6.8573 19.664 6.6883 19.289 6.5243 18.927C6.3723 18.591 6.2293 18.275 6.2023 17.939C6.1713 17.533 6.3113 17.14 6.4593 16.724C6.5693 16.416 6.6823 16.097 6.7283 15.762C6.8173 15.092 6.6263 14.447 6.4413 13.824C6.3443 13.496 6.2433 13.158 6.1883 12.826C5.9773 11.56 6.3983 10.121 7.3413 8.87802C7.9883 8.02702 8.8103 7.33402 9.6563 6.70602V7.07402C8.7053 7.71702 7.9673 8.41802 7.4413 9.21602C6.7003 10.339 6.3903 11.655 6.5923 12.827C6.6543 13.188 6.7633 13.542 6.8683 13.886C7.0653 14.526 7.2503 15.13 7.1453 15.741C7.1063 15.971 7.0253 16.198 6.9403 16.438C6.7883 16.866 6.6313 17.309 6.7223 17.783C6.7743 18.056 6.9033 18.293 7.0273 18.522C7.1423 18.732 7.2503 18.93 7.2933 19.142C7.3693 19.513 7.2443 19.892 7.1123 20.293C7.0013 20.63 6.8853 20.979 6.8843 21.347C6.8813 21.771 7.0283 22.159 7.1703 22.534C7.2463 22.735 7.3173 22.925 7.3693 23.12C7.5053 23.647 7.4863 24.207 7.4483 24.831L7.4103 25.422C7.3773 25.931 7.3453 26.44 7.3243 26.95C7.2723 28.238 7.2993 29.541 7.4033 30.824C7.4513 31.421 7.5193 32.053 7.7673 32.637C8.0493 33.301 8.5323 33.781 9.0943 33.953C9.2353 33.996 9.3773 34.016 9.5183 34.016C9.9173 34.016 10.2933 33.849 10.5113 33.553C10.6883 33.315 10.7443 32.975 10.6583 32.668C10.5833 32.398 10.4073 32.191 10.1763 32.102C9.8533 31.977 9.5293 32.153 9.3513 32.384C9.1963 32.587 9.1323 32.831 9.2223 33.029C9.3533 33.315 9.6043 33.125 9.5513 32.88C9.5263 32.762 9.6023 32.648 9.6313 32.612C9.7283 32.486 9.9043 32.389 10.0513 32.446C10.2213 32.512 10.2903 32.677 10.3153 32.77C10.3703 32.965 10.3353 33.185 10.2283 33.33C9.9853 33.659 9.5223 33.701 9.1963 33.6C8.7353 33.459 8.3343 33.054 8.0943 32.49C7.8683 31.957 7.8043 31.36 7.7583 30.794C7.6553 29.526 7.6293 28.238 7.6813 26.966C7.7013 26.459 7.7343 25.952 7.7663 25.446L7.8043 24.854C7.8433 24.196 7.8643 23.605 7.7123 23.025C7.6573 22.81 7.5783 22.602 7.5023 22.401C7.3673 22.042 7.2393 21.703 7.2403 21.349C7.2423 21.04 7.3433 20.734 7.4493 20.411C7.5913 19.981 7.7373 19.536 7.6413 19.067C7.5873 18.799 7.4613 18.567 7.3383 18.342C7.2233 18.129 7.1133 17.928 7.0713 17.712C7.0013 17.339 7.1343 16.962 7.2753 16.564C7.3623 16.32 7.4513 16.067 7.4963 15.805C7.6173 15.105 7.4093 14.429 7.2083 13.775C7.1063 13.443 7.0013 13.1 6.9433 12.763C6.7573 11.684 7.0463 10.467 7.7353 9.42302C8.2003 8.71902 8.8383 8.09202 9.6563 7.51302V7.80002C8.7933 8.29202 8.1063 9.27102 7.8443 10.397C7.5463 11.678 7.7133 12.998 7.8753 14.274L7.8993 14.47C8.6383 20.356 8.7583 26.338 8.2543 32.25L8.7603 32.298C8.8103 31.742 9.3783 31.254 9.9753 31.254C10.0673 31.254 10.1573 31.266 10.2423 31.289C10.8883 31.465 11.3453 32.247 11.2203 32.964C11.0973 33.666 10.4773 34.258 9.7443 34.369C9.0313 34.479 8.2763 34.159 7.7753 33.568L7.4133 33.14L7.3323 33.702C7.2473 34.302 6.7673 34.826 6.1913 34.948C5.6193 35.07 4.9683 34.774 4.6663 34.266L4.4773 33.947L4.2513 34.239C3.9343 34.651 3.3973 34.897 2.8143 34.897C2.1973 34.897 1.6373 34.628 1.3183 34.178C1.0083 33.741 0.924298 33.125 1.0943 32.532C1.2643 31.939 1.6593 31.469 2.1503 31.277C2.3173 31.211 2.5053 31.177 2.6943 31.177C3.1703 31.177 3.7413 31.407 3.9443 31.923L4.3593 32.978L4.4333 31.842C4.6103 29.093 4.5143 26.287 4.4213 23.574C4.2823 19.557 4.1393 15.403 4.8963 11.417C5.1583 10.037 5.5953 8.27702 6.6683 6.90002C7.4563 5.88802 8.5563 5.21702 9.6563 5.06802V5.45402ZM11.6893 8.23302V8.40402H10.1643V8.12402V4.50302V3.66302H11.6893V8.23302ZM18.6593 11.543L18.3263 12.145C17.7453 13.198 16.8433 14.07 15.7863 14.601C15.2623 14.865 14.8573 14.927 14.5443 14.79C13.9643 14.537 13.8413 13.688 13.7993 12.977L13.5413 8.62002L13.5103 8.11202C13.4903 7.78402 13.4683 7.41202 13.5963 7.11402C13.6223 7.05502 13.6573 7.00002 13.6973 6.95102C13.7093 6.93702 13.7233 6.92702 13.7353 6.91402C13.7663 6.88102 13.7993 6.85002 13.8343 6.82602C13.8493 6.81502 13.8653 6.80802 13.8803 6.79902C13.9153 6.77902 13.9503 6.76302 13.9863 6.75302C14.0033 6.74802 14.0203 6.74402 14.0383 6.74202C14.0833 6.73602 14.1293 6.73202 14.1713 6.74502C14.2093 6.75702 14.2443 6.77502 14.2763 6.79902C14.4973 6.96602 14.5543 7.40602 14.5603 7.77502L14.5633 7.95402L14.6253 11.698C14.6313 11.984 14.6413 12.579 15.0803 12.853C15.3693 13.032 15.7933 12.986 16.1003 12.752C16.3543 12.558 16.5133 12.285 16.6533 12.045L17.7143 10.22L17.7153 10.221L17.9603 9.79702C18.2333 9.32902 18.5113 8.89702 18.9193 8.75002C19.1143 8.68002 19.3393 8.67502 19.5783 8.67102C19.9033 8.66502 20.2393 8.65802 20.5553 8.48702C20.6603 8.43102 20.7503 8.35602 20.8353 8.27202C20.8513 8.25602 20.8683 8.24102 20.8833 8.22402C20.9623 8.13802 21.0313 8.03902 21.0903 7.92802C21.0943 7.92002 21.1003 7.91602 21.1043 7.90802C21.1733 7.91202 21.2413 7.91602 21.3093 7.91802C21.5423 7.92502 21.7733 7.92602 22.0063 7.91902C22.0293 8.01602 22.0603 8.09402 22.0953 8.16502C22.1033 8.18202 22.1123 8.19902 22.1213 8.21402C22.1583 8.27902 22.2003 8.33602 22.2503 8.37702C22.3473 8.45902 22.4503 8.52702 22.5573 8.58502C22.5613 8.58702 22.5633 8.59002 22.5673 8.59202C22.5473 8.62502 22.5263 8.65802 22.5073 8.69202C22.2923 9.04602 22.0663 9.39502 21.8243 9.73402C21.7973 9.77102 21.7683 9.80802 21.7413 9.84602C21.4943 10.185 21.2373 10.516 20.9653 10.836C20.9493 10.855 20.9343 10.874 20.9193 10.893C20.6443 11.215 20.3543 11.522 20.0573 11.822C20.0113 11.868 19.9663 11.915 19.9193 11.961C19.6293 12.246 19.3283 12.519 19.0193 12.781C18.9913 12.803 18.9633 12.826 18.9363 12.849C18.8873 12.641 18.8373 12.432 18.7953 12.222L18.6593 11.543ZM15.0873 8.93602C15.7043 9.11602 16.3103 9.38802 16.8923 9.76102C17.0173 9.84002 17.1413 9.90502 17.2653 9.97302L16.2173 11.775C16.0963 11.984 15.9703 12.199 15.7973 12.331C15.6543 12.44 15.4573 12.476 15.3433 12.405C15.1673 12.295 15.1393 11.981 15.1333 11.689L15.0873 8.93602ZM22.5693 2.71602L22.6103 2.93702C22.6323 3.05402 22.6503 3.16702 22.6663 3.27902C22.6113 3.31602 22.5563 3.35102 22.4993 3.38402C22.4433 3.41702 22.3883 3.45202 22.3303 3.48202C22.2463 3.52402 22.1593 3.56002 22.0733 3.59402C22.0163 3.61802 21.9603 3.64402 21.9023 3.66402C21.8063 3.69702 21.7083 3.72002 21.6113 3.74302C21.5603 3.75502 21.5103 3.77102 21.4593 3.78102C21.3113 3.80802 21.1613 3.82502 21.0113 3.82802L20.9413 3.82902C20.8093 3.82902 20.6773 3.81702 20.5433 3.79902C20.2333 3.75602 19.9243 3.66702 19.6303 3.53002C19.2383 3.34602 18.8883 3.08902 18.6063 2.77802C19.2893 2.26202 20.1183 1.96902 20.9673 1.94802L21.0633 1.94702C21.2623 1.94702 21.4613 1.96602 21.6583 1.99602C21.7213 2.00502 21.7823 2.02102 21.8453 2.03402C21.9793 2.06102 22.1123 2.09202 22.2443 2.13302C22.3143 2.15402 22.3833 2.17902 22.4523 2.20402C22.5753 2.24902 22.6953 2.30002 22.8143 2.35702C22.8793 2.38902 22.9453 2.41902 23.0103 2.45402C23.0403 2.47102 23.0683 2.49202 23.0973 2.50902C22.9933 2.55602 22.8873 2.60102 22.7753 2.64102L22.5693 2.71602ZM22.1333 5.37602C21.5133 5.90202 20.4803 5.98202 19.8413 5.55202C19.7033 5.25102 19.6333 4.93602 19.6333 4.61702C19.6333 4.45102 19.6513 4.28502 19.6893 4.12002C19.7083 4.12702 19.7283 4.13202 19.7473 4.13902C19.7883 4.15402 19.8283 4.16602 19.8693 4.17902C19.9463 4.20302 20.0243 4.22602 20.1023 4.24602C20.1453 4.25602 20.1873 4.26602 20.2293 4.27502C20.3113 4.29202 20.3933 4.30602 20.4753 4.31702C20.5123 4.32302 20.5493 4.32902 20.5873 4.33302C20.7053 4.34502 20.8233 4.35302 20.9413 4.35302L21.0233 4.35202C21.1893 4.34802 21.3553 4.32802 21.5203 4.29902C21.5723 4.29102 21.6243 4.27602 21.6753 4.26502C21.7893 4.24002 21.9023 4.21002 22.0143 4.17402C22.0723 4.15502 22.1293 4.13402 22.1863 4.11302C22.2943 4.07102 22.3993 4.02402 22.5043 3.97302C22.5563 3.94802 22.6083 3.92402 22.6593 3.89602C22.6813 3.88302 22.7043 3.87502 22.7263 3.86202C22.7513 4.46102 22.6243 4.95802 22.1333 5.37602ZM19.4383 5.89502L19.4443 5.90502L19.4953 5.94302C19.8713 6.21902 20.3353 6.36402 20.8373 6.36402C21.4293 6.36402 22.0193 6.15102 22.4563 5.78002C23.2313 5.12102 23.2873 4.28802 23.2093 3.53502L23.2133 3.53302L23.1933 3.37702L23.1523 3.05502C23.3033 2.99102 23.4503 2.92202 23.5963 2.85302L23.8293 2.74402C23.8463 2.73702 23.8623 2.72902 23.8793 2.72102C23.9203 3.21502 23.9763 4.13202 23.8873 4.72102C23.8263 5.12602 23.7423 5.67902 23.9833 6.15302C24.0973 6.37702 24.3023 6.55602 24.5343 6.64902C24.2113 6.89302 23.8203 7.08502 23.3873 7.20702C23.0443 7.30502 22.6563 7.36302 22.2023 7.38702C21.9103 7.40202 21.6173 7.40402 21.3263 7.39402C21.2083 7.39002 21.0883 7.38302 20.9683 7.37302C20.4023 7.32502 20.0243 7.19802 19.7433 6.96302C19.5303 6.78402 19.3883 6.48302 19.3813 6.19602C19.3793 6.10802 19.3943 5.99902 19.4383 5.89502ZM23.0073 7.82702L22.9263 7.97802C22.8973 8.03202 22.8653 8.08602 22.8343 8.13902C22.8273 8.13602 22.8193 8.13402 22.8123 8.13002C22.7283 8.08702 22.6483 8.03602 22.5703 7.97102C22.5703 7.97102 22.5653 7.96502 22.5593 7.95602C22.5563 7.95202 22.5513 7.94102 22.5483 7.93402C22.5423 7.92402 22.5373 7.91302 22.5313 7.89702C22.5303 7.89502 22.5293 7.89002 22.5283 7.88902C22.6963 7.87302 22.8553 7.85302 23.0073 7.82702ZM19.0603 15.14C19.0453 15.101 19.0313 15.059 19.0183 15.013C18.8153 14.331 18.7543 13.886 18.7353 13.686C18.7653 13.661 18.7963 13.636 18.8263 13.611L18.9393 13.521C20.5743 12.224 21.9913 10.586 23.0583 8.77802L23.2323 8.47502C23.2443 8.45402 23.2573 8.43302 23.2693 8.41202L23.6773 8.53102C23.6213 8.68902 23.5623 8.84602 23.5013 9.00102C22.7003 11.066 21.4853 12.932 19.8863 14.431C19.6203 14.68 19.3443 14.915 19.0603 15.14ZM23.8063 9.62402C23.8743 9.46302 23.9333 9.29602 23.9963 9.13102C24.0623 8.96002 24.1333 8.79402 24.1943 8.61902C24.2053 8.62402 24.2183 8.62802 24.2293 8.63302C24.3083 8.66602 24.3913 8.69702 24.4783 8.72602C24.4823 8.72802 24.4863 8.73002 24.4903 8.73102C24.4443 8.88202 24.3953 9.03102 24.3463 9.18002C24.2943 9.33702 24.2443 9.49602 24.1873 9.65102C24.1173 9.84402 24.0393 10.033 23.9613 10.223C23.9013 10.372 23.8443 10.523 23.7793 10.67C23.6943 10.863 23.6003 11.052 23.5083 11.242C23.4413 11.381 23.3773 11.521 23.3063 11.658C23.2043 11.856 23.0913 12.048 22.9813 12.241C22.9113 12.365 22.8453 12.491 22.7713 12.613C22.6373 12.835 22.4933 13.05 22.3483 13.266C22.2903 13.354 22.2363 13.444 22.1763 13.53C21.9693 13.828 21.7523 14.119 21.5253 14.403C21.4533 14.494 21.3743 14.579 21.3003 14.668C21.1413 14.859 20.9833 15.051 20.8153 15.235C20.7133 15.348 20.6043 15.454 20.4983 15.563C20.3643 15.702 20.2323 15.842 20.0943 15.977C20.0533 15.97 20.0123 15.964 19.9723 15.954C19.9433 15.947 19.9143 15.942 19.8863 15.933C19.8043 15.909 19.7243 15.877 19.6463 15.839C19.6413 15.836 19.6363 15.835 19.6313 15.832L19.6193 15.825C19.5073 15.767 19.4023 15.699 19.3043 15.618C19.4343 15.516 19.5563 15.405 19.6823 15.298C19.8033 15.197 19.9253 15.1 20.0423 14.994C20.1963 14.856 20.3413 14.71 20.4893 14.565C20.5993 14.457 20.7123 14.352 20.8193 14.24C20.9593 14.092 21.0923 13.935 21.2263 13.781C21.3313 13.661 21.4403 13.545 21.5413 13.421C21.6543 13.283 21.7593 13.135 21.8683 12.991C22.3473 12.358 22.7793 11.681 23.1623 10.963C23.2163 10.864 23.2743 10.767 23.3253 10.666C23.4243 10.47 23.5133 10.267 23.6043 10.066C23.6713 9.91902 23.7433 9.77402 23.8063 9.62402ZM20.4753 25.383C20.4033 26.731 20.3293 28.125 19.9843 29.428C19.8983 29.755 19.7933 30.08 19.6903 30.405C19.4353 31.201 19.1723 32.025 19.1613 32.893L19.1603 33.016C19.1593 33.345 19.1573 33.685 18.9753 33.849C18.8543 33.958 18.6553 33.987 18.4273 34.012L16.1493 34.259L16.1453 34.521V34.259L16.1053 34.214C16.2473 33.939 16.5373 33.725 16.7543 33.595C16.8313 33.549 16.9103 33.504 16.9893 33.459C17.3843 33.235 17.7933 33.004 18.0453 32.579C18.2633 32.209 18.3033 31.785 18.3373 31.411C18.3933 30.806 18.4443 30.271 18.4973 29.737C18.5993 28.676 18.7023 27.613 18.8353 25.995C18.9713 24.337 18.8713 23.322 18.7833 22.427C18.7673 22.262 18.7513 22.103 18.7373 21.945L20.8183 21.947C20.5973 23.079 20.5353 24.248 20.4753 25.383ZM24.1713 31.411C24.2063 31.785 24.2453 32.209 24.4643 32.579C24.7153 33.004 25.1243 33.235 25.5193 33.459C25.5983 33.504 25.6773 33.549 25.7543 33.595C25.9723 33.725 26.2623 33.938 26.4013 34.236C26.3953 34.246 26.3813 34.259 26.3643 34.259L24.0813 34.012C23.8533 33.987 23.6553 33.958 23.5343 33.849C23.3513 33.684 23.3503 33.344 23.3493 33.014L23.3473 32.893C23.3373 32.025 23.0743 31.201 22.8193 30.405C22.7153 30.08 22.6113 29.755 22.5243 29.428C22.1803 28.125 22.1063 26.731 22.0343 25.383C21.9743 24.249 21.9123 23.08 21.6903 21.948L23.7713 21.951C23.7573 22.107 23.7413 22.265 23.7253 22.429C23.6383 23.324 23.5383 24.338 23.6743 25.995C23.8063 27.618 23.9103 28.682 24.0133 29.747C24.0643 30.278 24.1163 30.809 24.1713 31.411ZM24.2893 21.427L21.0553 21.423L17.9813 21.419C18.3663 19.725 18.8853 18.141 19.5493 16.621L20.0823 16.619C20.1403 16.618 21.4903 16.606 22.1643 16.088C22.1813 16.075 22.1983 16.062 22.2133 16.049C22.2693 16.066 22.3243 16.085 22.3733 16.107C22.4053 16.121 22.4423 16.132 22.4713 16.149C22.5623 16.2 22.6433 16.259 22.7083 16.331C22.7473 16.375 22.7803 16.425 22.8123 16.476L22.8533 16.574L22.8593 16.576C22.9473 16.749 23.0143 16.945 23.0743 17.155L24.2893 21.427ZM22.9513 15.849C22.9453 15.845 22.9383 15.841 22.9323 15.837C22.8563 15.774 22.7723 15.718 22.6813 15.669C22.6753 15.667 22.6713 15.662 22.6653 15.659C22.6873 15.639 22.7063 15.616 22.7273 15.595C22.8083 15.516 22.8883 15.435 22.9653 15.35C22.9993 15.313 23.0333 15.272 23.0663 15.234C23.1323 15.156 23.1983 15.075 23.2633 14.992C23.2793 14.97 23.2973 14.951 23.3143 14.929L22.9513 15.849ZM23.0253 14.453C22.9483 14.563 22.8703 14.666 22.7913 14.763C22.2823 15.396 21.7043 15.871 20.9043 16.012C20.8603 16.02 20.8153 16.028 20.7713 16.035C20.8423 15.962 20.9073 15.884 20.9773 15.811C22.5383 14.153 23.7753 12.175 24.5903 10.023C24.6693 9.81602 24.7403 9.60802 24.8103 9.39802C24.8793 9.19302 24.9523 8.98902 25.0143 8.78002L25.1303 8.81202L25.1263 8.88402C24.9863 10.904 24.3583 12.569 23.0253 14.453ZM26.4063 12.406C26.4693 13.8 26.8193 15.126 27.2353 16.591C27.5383 17.658 27.8263 18.238 28.0803 18.75C28.2553 19.103 28.4213 19.437 28.5753 19.897C28.7183 20.322 28.7313 20.617 28.6173 20.827C28.4723 21.09 28.1923 21.121 27.9533 20.97C27.6413 20.774 27.4773 20.387 27.3023 19.977C27.2643 19.887 27.2263 19.798 27.1873 19.712C26.0903 17.293 25.5083 14.635 24.9423 12.053C24.9523 12.027 24.9603 12 24.9703 11.974C25.1433 11.524 25.2833 11.061 25.3893 10.589C25.4163 10.474 25.6803 9.32602 25.6013 9.28902C25.6423 9.30802 25.6903 9.32502 25.7313 9.34702C26.0453 9.51802 26.1943 9.71002 26.2623 10.029C26.3753 10.563 26.3823 11.109 26.3893 11.686C26.3923 11.927 26.3953 12.167 26.4063 12.406ZM28.9913 8.01002C28.4293 8.12102 26.8763 8.44802 25.8623 8.82902C25.7933 8.79502 25.7223 8.76302 25.6493 8.73102C25.6513 8.69702 25.6543 8.66302 25.6553 8.62802L25.6653 8.41602L24.9083 8.20902L24.6533 8.17702L24.6403 8.22502C24.6083 8.21502 24.5743 8.20502 24.5443 8.19402C24.5153 8.18302 24.4863 8.17302 24.4573 8.16102C24.3543 8.12002 24.2563 8.07702 24.1673 8.02902L23.8883 7.92202L23.8503 8.03702L23.0843 7.81402C23.2363 7.78602 23.3823 7.75202 23.5213 7.71302C24.0913 7.55202 24.8883 7.20402 25.4483 6.46202L25.0623 6.12302C24.9203 6.28102 24.5503 6.14002 24.4333 5.91002C24.2823 5.61302 24.3243 5.23302 24.3893 4.80202C24.5263 3.89602 24.3593 2.38302 24.3523 2.31902L24.3153 1.99302L24.0153 2.10202C23.8953 2.14602 23.7813 2.19402 23.6693 2.24402C23.6553 2.23502 23.6393 2.22802 23.6253 2.21802C23.4553 2.10402 23.2783 1.99902 23.0963 1.90902C23.0713 1.89702 23.0453 1.88502 23.0203 1.87302C22.8333 1.78402 22.6413 1.70602 22.4453 1.64302C22.4233 1.63602 22.4013 1.63102 22.3803 1.62402C22.1773 1.56302 21.9713 1.51302 21.7623 1.47902C21.7483 1.47702 21.7343 1.47702 21.7203 1.47402C21.5023 1.44202 21.2833 1.42302 21.0633 1.42302L20.9553 1.42402C19.9063 1.45002 18.8843 1.84602 18.0783 2.54002L17.8883 2.70202L18.0413 2.90302C18.1243 3.01202 18.2153 3.11602 18.3113 3.21502C18.3423 3.24702 18.3773 3.27702 18.4093 3.30802C18.4773 3.37402 18.5453 3.43702 18.6183 3.49702C18.6593 3.53102 18.7023 3.56202 18.7453 3.59502C18.8143 3.64702 18.8853 3.69802 18.9583 3.74602C19.0053 3.77602 19.0523 3.80502 19.1003 3.83302C19.1343 3.85302 19.1663 3.87602 19.2003 3.89502C19.1273 4.07202 19.0523 4.28002 19.0483 4.63002C19.0453 4.98302 19.0853 5.27302 19.1163 5.43702C18.9523 5.64302 18.8663 5.91102 18.8733 6.20802C18.8833 6.64902 19.0943 7.09402 19.4233 7.36902C19.7623 7.65402 20.1723 7.78202 20.5323 7.84502C20.4703 7.91802 20.4003 7.98002 20.3193 8.02302C20.1103 8.13702 19.8473 8.14202 19.5693 8.14702C19.3013 8.15202 19.0243 8.15702 18.7523 8.25502C18.1833 8.46002 17.8473 8.97402 17.5243 9.52802L17.5233 9.53002C17.4033 9.46402 17.2813 9.39302 17.1603 9.31602C16.4913 8.88802 15.7913 8.57502 15.0783 8.38402L15.0683 7.76002C15.0533 6.90002 14.7993 6.38902 14.3143 6.24202C13.8713 6.10802 13.3443 6.41102 13.1323 6.90202C13.0893 7.00102 13.0593 7.10302 13.0373 7.20502C13.0303 7.24102 13.0273 7.27702 13.0213 7.31302C13.0113 7.38102 13.0003 7.44702 12.9953 7.51402C12.9923 7.55702 12.9923 7.59802 12.9913 7.64002C12.9893 7.70102 12.9883 7.76202 12.9893 7.82102C12.9903 7.86602 12.9923 7.90702 12.9943 7.95102C12.9953 7.97602 12.9953 8.00302 12.9963 8.02802C12.7153 8.00002 12.4503 7.98202 12.1973 7.97502V4.20102C13.1803 4.24302 14.8343 4.15002 16.3733 3.22202C16.6903 3.03002 17.0013 2.82402 17.3153 2.61702C18.5013 1.83302 19.7273 1.02302 21.3393 1.02302C22.4263 1.02302 23.5963 1.38202 24.9413 2.13202C25.0443 2.17602 27.3553 3.15102 28.9913 3.24902V8.01002Z" fill="white"/>
</svg>
