<svg width="28" height="36" viewBox="0 0 28 36" fill="none" xmlns="http://www.w3.org/2000/svg">
<path fill-rule="evenodd" clip-rule="evenodd" d="M27.5009 9.001C27.6259 2.24 22.1439 1.232 22.0899 1.222L21.3419 1.071L21.8529 1.645C23.4409 3.428 23.4149 5.155 23.2259 6.099C22.6719 4.682 21.7929 3.881 21.7499 3.842L21.4629 3.585L21.3419 3.954C19.5289 9.523 21.5279 13.108 21.8479 13.627C21.7619 13.835 21.6849 14.046 21.6129 14.253L21.5809 14.345C21.4339 14.77 21.2659 15.184 21.0889 15.586C20.9709 15.547 20.8599 15.527 20.7359 15.526C19.9469 15.545 19.4899 16.296 19.2249 16.954C18.9089 17.739 18.5299 18.388 17.8069 18.854C17.5829 16.498 17.0489 14.417 16.2129 12.665C17.1829 6.032 20.9289 0.752 20.9669 0.7L21.4689 0L20.6719 0.308C17.5739 1.509 15.7789 8.089 15.1529 10.856C14.5989 10.089 14.1779 9.738 14.1569 9.721L13.9989 9.592L13.8409 9.72C13.8219 9.736 13.4399 10.053 12.9259 10.742C12.2109 7.609 10.4489 1.478 7.4319 0.308L6.6349 0L7.1369 0.7C7.1739 0.751 10.8569 5.943 11.8649 12.496C10.9829 14.28 10.4219 16.418 10.1899 18.854C9.4039 18.347 9.0669 17.642 8.7099 16.805C8.4119 16.105 7.7609 15.299 6.9079 15.585C6.7309 15.183 6.5639 14.77 6.4159 14.345L6.3829 14.249C6.3119 14.044 6.2349 13.834 6.1499 13.627C6.4689 13.108 8.4679 9.524 6.6549 3.954L6.5349 3.585L6.2479 3.842C6.2039 3.881 5.3299 4.678 4.7759 6.088C4.5939 5.137 4.5769 3.406 6.1439 1.645L6.6549 1.071L5.9069 1.222C4.4129 1.513 2.9659 2.608 2.0619 3.805C1.0689 5.12 0.598896 6.747 0.512896 8.387C0.401896 10.485 1.3199 12.114 3.2049 13.032C2.7449 14.742 4.5729 16.456 5.9699 16.995C5.9619 18.932 8.5949 19.925 10.0939 20.303C10.0869 20.484 10.0839 20.67 10.0799 20.857C9.0749 20.214 8.0579 19.585 7.0089 19.019C6.4059 18.693 5.4569 18.044 4.7289 18.156C3.9419 18.276 3.1549 18.777 2.5169 19.232C1.9759 19.617 0.811896 20.474 1.1899 21.289L1.3229 21.575L1.5709 21.384C2.1849 20.914 2.8539 20.483 3.5599 20.171C4.1959 19.891 4.6639 19.885 5.3009 20.119C6.9749 20.734 8.6409 21.627 10.0939 22.668C10.0939 22.669 10.0939 22.67 10.0939 22.67C9.1899 22.356 8.2809 22.052 7.3619 21.785C6.6399 21.575 5.8759 21.332 5.1189 21.302C4.3239 21.271 3.6439 21.976 3.1989 22.57C2.6859 23.257 2.0929 24.388 2.5929 25.232L2.8219 25.62L3.0329 25.222C3.4319 24.465 4.1619 23.081 5.0739 22.895C5.4239 22.824 5.8529 22.972 6.1869 23.057C6.9659 23.259 7.7309 23.518 8.4899 23.785C7.9659 23.671 7.2449 23.481 6.7239 23.716C6.2109 23.948 5.9129 24.578 5.7149 25.075C5.3069 26.101 4.8839 27.882 5.7729 28.784L6.0969 29.114L6.1979 28.659C6.5199 27.206 7.0149 25.52 7.2579 25.344C7.6089 25.344 8.7549 25.629 10.4069 26.125L10.4419 26.39C10.4849 26.694 10.5329 26.997 10.5829 27.299L10.5919 27.357C10.6149 27.491 10.6359 27.625 10.6589 27.758L10.7269 28.153C10.8009 28.556 10.8839 28.969 10.9719 29.388L11.0539 29.765L11.0589 29.785L11.0609 29.793L11.0629 29.802L11.0649 29.81L11.0659 29.819H11.0669L11.0679 29.822V29.824L11.0949 29.95C11.1449 30.172 11.1969 30.398 11.2499 30.626C11.2509 30.627 11.2509 30.627 11.2509 30.627L11.2909 30.796L11.3769 31.156L11.3799 31.168L11.3839 31.184L11.3849 31.183L11.4149 31.31L11.4629 31.499C11.5239 31.738 11.5889 31.982 11.6539 32.226C11.1319 33.042 10.5219 34.439 10.9569 35.416C11.4659 36.561 12.6409 35.242 12.9779 34.685C13.0949 35.187 13.3689 36.001 13.9989 36.001C14.6279 36.001 14.9019 35.187 15.0189 34.685C15.3569 35.243 16.5319 36.56 17.0409 35.416C17.4749 34.439 16.8649 33.043 16.3439 32.226C16.4079 31.984 16.4729 31.742 16.5339 31.499C16.5349 31.498 16.5349 31.498 16.5349 31.497L16.5819 31.31C16.5849 31.3 16.5869 31.29 16.5889 31.28L16.6129 31.184L16.6169 31.166H16.6179L16.6229 31.146L16.7059 30.796L16.7849 30.463C16.8259 30.291 16.8649 30.119 16.9019 29.95L16.9309 29.817L16.9319 29.814L16.9329 29.811V29.81L16.9339 29.805L16.9359 29.797V29.796L16.9379 29.786L16.9389 29.785L16.9429 29.765L16.9549 29.714L17.0129 29.453H17.0109L17.0249 29.389C17.1129 28.97 17.1959 28.556 17.2709 28.153L17.3379 27.758C17.3619 27.625 17.3819 27.491 17.4049 27.357L17.4149 27.299C17.4649 26.997 17.5129 26.694 17.5559 26.39L17.5909 26.125C19.2419 25.629 20.3879 25.343 20.7439 25.331C20.9819 25.52 21.4769 27.206 21.7989 28.659L21.8999 29.114L22.2249 28.784C23.1129 27.882 22.6909 26.102 22.2819 25.075C22.0839 24.578 21.7869 23.948 21.2729 23.716C20.7539 23.481 20.0329 23.671 19.5099 23.785C20.2299 23.532 20.9539 23.287 21.6909 23.09C22.0599 22.991 22.4939 22.846 22.8809 22.889C23.3489 22.94 23.7509 23.447 24.0249 23.788C24.3809 24.232 24.6989 24.717 24.9649 25.222L25.1749 25.621L25.4049 25.232C25.8759 24.435 25.3629 23.376 24.8959 22.705C24.4479 22.062 23.7249 21.268 22.8779 21.302C22.1739 21.33 21.4639 21.549 20.7889 21.741C19.8179 22.018 18.8579 22.338 17.9029 22.67C17.9029 22.67 17.9029 22.669 17.9029 22.668C19.3559 21.627 21.0219 20.734 22.6959 20.119C23.3339 19.885 23.8019 19.892 24.4379 20.172C25.1439 20.484 25.8129 20.915 26.4259 21.384L26.6739 21.575L26.8069 21.289C27.1689 20.511 26.1089 19.694 25.5909 19.312C24.9279 18.821 24.0959 18.282 23.2679 18.156C22.5809 18.051 21.6969 18.642 21.1239 18.946C20.0259 19.53 18.9659 20.187 17.9169 20.857C17.9139 20.67 17.9109 20.484 17.9039 20.302C19.4019 19.925 22.0359 18.932 22.0279 16.995C23.4249 16.457 25.2529 14.741 24.7929 13.032C26.5609 12.171 27.5019 10.785 27.5009 9.001ZM19.9359 1.352C18.8559 3.11 16.6659 7.115 15.8219 11.905C15.7309 11.743 15.6379 11.586 15.5429 11.434C16.3869 7.473 17.9349 3.051 19.9359 1.352ZM13.9979 10.268C15.4009 11.659 16.2239 13.661 16.7249 15.552C17.3249 17.816 17.4859 20.185 17.4029 22.522L17.3989 22.627C17.3869 22.968 17.3629 23.307 17.3389 23.647C15.4359 21.872 12.5629 21.869 10.6579 23.647C10.6339 23.305 10.6099 22.963 10.5989 22.621L10.5949 22.522C10.4589 18.785 10.9169 14.682 13.0129 11.501L13.0149 11.498C13.4329 10.863 13.7989 10.465 13.9979 10.268C14.2099 10.478 13.7989 10.465 13.9979 10.268ZM12.5329 11.307C12.4389 11.454 12.3459 11.605 12.2559 11.762C11.3909 7.02 9.2229 3.067 8.1559 1.336C10.6209 3.378 12.0829 9.239 12.5329 11.307C12.4389 11.454 12.0829 9.239 12.5329 11.307ZM1.0019 9.001C1.0039 4.247 3.8369 2.527 5.2419 1.967C3.4129 4.593 4.5259 7.029 4.5389 7.056L4.8399 7.692L5.0119 7.007C5.3129 5.809 5.9379 4.949 6.3019 4.525C7.6169 8.97 6.3779 12.076 5.8779 13.066C5.3949 12.271 4.1059 11.65 3.4199 12.578C1.8149 11.8 1.0019 10.598 1.0019 9.001C1.0039 4.247 1.0019 10.598 1.0019 9.001ZM3.8049 14.222C3.5489 13.565 3.6099 12.49 4.5549 12.66C5.3729 12.808 5.6659 13.729 5.9059 14.42L5.9389 14.516C6.0969 14.97 6.2739 15.417 6.4649 15.846C6.2829 16.012 6.1319 16.251 6.0509 16.484C5.0249 16.058 4.1959 15.229 3.8049 14.222C4.1959 15.229 3.6299 13.773 3.8049 14.222ZM6.4699 17.066C6.4369 16.649 6.7039 16.138 7.1329 16.051C7.5949 15.957 7.9609 16.42 8.1439 16.785C8.4009 17.299 8.5489 17.849 8.8869 18.321C9.2159 18.779 9.6479 19.159 10.1379 19.43C10.1289 19.546 10.1219 19.663 10.1149 19.782C8.8739 19.458 6.5959 18.647 6.4699 17.066C6.5169 17.653 6.4649 17.005 6.4699 17.066ZM4.6359 19.408C3.6469 19.313 2.5659 20.074 1.7849 20.604C2.3409 19.78 4.0819 18.773 4.8359 18.661C5.3959 18.661 7.3479 19.704 10.0689 21.457C10.0689 21.647 10.0709 21.838 10.0749 22.033C8.3629 20.885 5.5119 19.493 4.6359 19.408C5.5119 19.493 4.5949 19.405 4.6359 19.408ZM5.1809 22.374C4.1799 22.374 3.3959 23.635 2.9289 24.388C3.0099 23.581 3.5769 22.786 4.1609 22.266C4.6139 21.861 4.9959 21.771 5.5679 21.87C7.1179 22.138 8.6389 22.703 10.1189 23.222C10.1309 23.431 10.1449 23.64 10.1609 23.849C8.2859 23.145 6.0369 22.374 5.1809 22.374ZM7.2579 24.831C6.8289 24.831 6.6499 25.343 6.5139 25.681C6.2269 26.389 6.0359 27.14 5.8579 27.883C5.5969 26.844 5.9369 24.969 6.8159 24.258C7.1279 24.006 7.7229 24.16 8.0799 24.227C8.8149 24.363 9.5359 24.579 10.2479 24.807C10.2719 25.061 10.2999 25.314 10.3329 25.567C8.6889 25.078 7.6559 24.831 7.2579 24.831ZM11.5779 35.341C10.8709 35.341 11.7639 33.051 11.8979 32.804L11.9069 32.808C12.2839 32.956 12.7199 32.983 13.1189 33.01C12.9919 33.546 12.7819 34.057 12.4849 34.52C12.3079 34.795 11.9579 35.341 11.5779 35.341ZM13.9989 35.488C13.7879 35.488 13.4479 34.925 13.3689 33.907C13.4829 33.626 13.5759 33.33 13.6409 33.033C13.8789 33.039 14.1179 33.039 14.3569 33.033C14.4209 33.33 14.5149 33.625 14.6289 33.906C14.5499 34.925 14.2089 35.488 13.9989 35.488ZM16.4749 35.33C16.1979 35.45 15.8099 34.931 15.6799 34.76C15.2909 34.245 15.0269 33.638 14.8789 33.01C15.2779 32.983 15.7129 32.955 16.0899 32.808L16.0999 32.804C16.3429 33.254 16.5249 33.75 16.6109 34.257C16.6509 34.491 16.7749 35.202 16.4749 35.33ZM16.4089 29.837C16.3319 30.184 16.2479 30.54 16.1609 30.898L16.1569 30.914L16.1519 30.933L16.0919 31.184L16.0879 31.197C16.0069 31.524 15.9169 31.86 15.8269 32.198L15.7819 32.369C15.0339 32.561 14.2079 32.546 13.4439 32.513H13.4419C12.7519 32.486 12.3739 32.41 12.2159 32.369L12.1709 32.197C12.0799 31.86 11.9909 31.525 11.9089 31.198L11.9059 31.184L11.8419 30.918C11.7539 30.559 11.6689 30.199 11.5889 29.839V29.838L11.5519 29.666L11.5489 29.653C11.3849 28.896 11.2409 28.155 11.1209 27.447C12.8429 26.48 15.1549 26.48 16.8769 27.447C16.7789 28.021 16.6629 28.616 16.5379 29.218L16.5349 29.216L16.4419 29.685L16.4409 29.69L16.4389 29.701L16.4369 29.709L16.4729 29.717H16.4649L16.4359 29.712L16.4569 29.718L16.4349 29.719L16.4339 29.721L16.4089 29.837ZM16.9749 26.859C16.9719 26.878 16.9689 26.896 16.9659 26.914C15.1649 25.972 12.8339 25.98 11.0309 26.914C11.0019 26.715 10.9709 26.516 10.9419 26.317L10.8409 25.551C10.8049 25.272 10.7739 24.993 10.7469 24.713L10.7189 24.422L10.7179 24.421L10.7089 24.325C12.5239 22.342 15.4779 22.348 17.2889 24.324L17.2789 24.421V24.422L17.2549 24.667L17.2529 24.689C17.2229 24.993 17.1899 25.296 17.1509 25.598L17.1479 25.616L17.0549 26.317C17.0299 26.497 17.0029 26.677 16.9749 26.859C17.0029 26.677 16.9719 26.878 16.9749 26.859ZM21.0679 24.185C21.5159 24.387 21.7639 25.1 21.9089 25.525C22.1569 26.252 22.3299 27.122 22.1399 27.883C21.9729 27.187 21.7919 26.489 21.5379 25.82C21.3999 25.456 21.2099 24.831 20.7399 24.831C19.7259 24.831 18.6219 25.282 17.6649 25.567C17.6959 25.324 17.7229 25.081 17.7469 24.836L17.7529 24.843L17.7559 24.805C18.4269 24.59 19.1049 24.388 19.7959 24.25C20.1519 24.179 20.7159 24.024 21.0679 24.185C21.4139 24.341 21.0269 24.166 21.0679 24.185ZM23.1169 21.828C24.0739 22.076 24.9719 23.439 25.0689 24.387C24.4289 23.358 23.6089 22.19 22.2809 22.434C20.7619 22.713 19.2789 23.307 17.8369 23.849C17.8529 23.637 17.8659 23.428 17.8779 23.222C18.9729 22.838 20.0749 22.467 21.1929 22.16C21.7309 22.012 22.5479 21.684 23.1169 21.828C23.7119 21.982 23.0909 21.822 23.1169 21.828ZM23.1909 18.663C23.1919 18.663 23.1929 18.663 23.1929 18.663C23.9179 18.773 25.6569 19.78 26.2119 20.604C25.5559 20.159 24.8469 19.725 24.0839 19.501C23.4599 19.319 22.9419 19.476 22.3559 19.703C20.8109 20.301 19.2999 21.108 17.9219 22.033C17.9259 21.838 17.9279 21.647 17.9279 21.457C20.6469 19.707 22.5979 18.663 23.1909 18.663ZM20.6649 18.454C19.9689 19.04 19.0569 19.475 17.8819 19.782C17.8759 19.663 17.8679 19.546 17.8599 19.43C18.3929 19.134 18.8589 18.71 19.1959 18.196C19.5919 17.591 19.6859 16.721 20.2569 16.247C20.7959 15.799 21.4309 16.22 21.5189 16.859C21.6059 17.498 21.1149 18.075 20.6649 18.454C21.0329 18.145 19.9689 19.04 20.6649 18.454ZM24.1929 14.222C23.8009 15.229 22.9719 16.058 21.9459 16.484C21.8639 16.251 21.7149 16.012 21.5319 15.846C21.7239 15.417 21.8999 14.97 22.0579 14.516L22.0899 14.424C22.3279 13.739 22.6049 12.854 23.3959 12.67C24.3699 12.443 24.4549 13.548 24.1929 14.222C24.3679 13.773 23.8009 15.229 24.1929 14.222ZM24.5769 12.578C23.8929 11.669 22.6009 12.277 22.1199 13.066C21.6199 12.076 20.3799 8.97 21.6949 4.524C22.0599 4.949 22.6849 5.809 22.9859 7.007L23.1579 7.692L23.4589 7.056C23.4709 7.029 24.5839 4.593 22.7549 1.967C24.3859 2.618 25.6959 3.918 26.3729 5.559C26.8839 6.799 27.1579 8.344 26.9429 9.68C26.7239 11.034 25.7619 12.004 24.5769 12.578C26.1829 11.8 24.5769 12.577 24.5769 12.578Z" fill="white"/>
</svg>
