<svg width="32" height="36" viewBox="0 0 32 36" fill="none" xmlns="http://www.w3.org/2000/svg">
<path fill-rule="evenodd" clip-rule="evenodd" d="M31.459 7.75709C31.008 7.40709 30.435 7.39709 29.91 7.24009C29.331 7.06809 28.844 6.68909 28.412 6.27409C27.543 5.44009 26.795 4.36009 25.641 3.90509C24.861 1.37409 22.412 0.003094 19.895 0.061094C17.033 0.126094 14.764 1.69009 12.47 3.23109C11.323 4.00109 10.078 4.74809 8.684 4.90309C8.059 4.97309 7.355 4.83909 6.793 5.19209C6.321 5.49009 6.024 6.12009 6.371 6.63009C6.99 7.54009 8.576 7.04609 9.417 6.80609C10.642 6.45609 11.808 5.90909 12.915 5.27909C14.078 4.61809 15.126 3.75609 16.304 3.12809C17.404 2.54109 18.623 2.21909 19.87 2.27509C17.301 2.40309 15.317 4.22109 13.27 5.57809C11.119 7.00509 8.624 7.69409 6.053 7.52909L5.989 7.52509C5.331 7.48109 4.243 7.64809 4.365 8.57809C4.466 9.35909 5.471 9.52509 6.083 9.60509C8.013 9.85809 9.988 9.42309 11.752 8.62909C13.498 7.84309 15.119 6.81409 16.617 5.61609C17.842 4.63509 19.942 3.41809 21.429 4.66409C20.684 4.45609 19.881 4.51309 19.048 4.84309L18.804 4.94109L18.916 5.18109C18.938 5.23009 19.456 6.30209 20.587 6.94009C18.988 9.49209 17.151 12.1101 14.359 13.4081C11.368 14.7991 7.926 14.5221 4.741 14.2381C2.919 13.9131 1.093 15.0491 0.121 16.5741L0 16.7621L0.173 16.9031C0.89 17.4891 1.775 17.7341 2.657 17.3981C2.28 18.8191 2.353 20.3041 2.861 21.6801C3.108 22.3491 3.425 23.0081 3.547 23.7171C3.677 24.4761 3.448 25.1001 2.996 25.6991C2.618 26.2001 2.177 26.6791 1.99 27.2941C1.766 28.0291 1.975 28.8241 2.193 29.5341C2.603 30.8751 3.329 32.0691 3.955 33.3111L3.981 35.0601H6.936L6.965 34.8441C7.054 34.1801 6.775 33.4811 6.243 33.0571C5.271 31.2961 4.635 29.8901 4.29 27.9991C4.818 27.2781 5.325 26.5321 5.82 25.7801C5.645 26.4371 5.42 27.0751 5.133 27.6841L5.06 27.8391L5.177 27.9641C6.688 29.5711 7.53 31.0601 7.906 32.7851L7.934 34.7541H10.858L10.898 34.5541C11.039 33.8561 10.753 33.0891 10.19 32.6461C9.434 30.9471 8.584 29.2931 7.851 27.5831C9.197 26.2191 10.186 24.4941 10.73 22.5791C12.858 22.5581 14.932 22.0671 16.972 21.4901C17.885 25.3121 17.737 29.2601 17.926 33.1581L17.954 35.0601H20.524H21.02H22.49L22.531 34.8621C22.692 34.0921 22.34 33.2371 21.67 32.8351C21.183 29.7601 21.099 26.6211 21.433 23.5251C21.756 20.5361 22.77 17.4771 22.064 14.4701C22.48 13.1731 22.96 11.8041 23.606 10.0701C24.613 10.1951 25.605 10.0871 26.595 10.3681C27.569 10.6441 28.514 11.0591 29.542 11.0591C30.374 11.0591 31.257 10.7681 31.707 10.0111C32.123 9.31409 32.147 8.29109 31.459 7.75709ZM19.854 1.77109C18.068 1.69809 16.387 2.36709 14.94 3.39309C13.454 4.44609 14.272 3.86709 14.933 3.39809C12.867 4.86209 10.51 6.26509 7.968 6.60709C7.614 6.65409 7.086 6.69209 6.814 6.39709C6.289 5.82609 7.405 5.45809 7.775 5.44009C9.195 5.37209 10.384 5.07009 11.629 4.34909C13.967 2.99409 15.942 1.18109 18.679 0.686094C21.235 0.223094 24.055 1.12209 25.071 3.74009C24.661 3.67309 24.222 3.71509 23.826 3.83909C23.031 2.36709 21.418 1.83409 19.854 1.77109ZM19.802 3.68609C18.61 3.69409 17.514 4.24209 16.602 4.99009C16.888 4.75509 17.088 4.59109 16.6 4.99109C14.648 6.59309 12.417 8.04309 9.984 8.75509C8.783 9.10609 7.513 9.26609 6.266 9.12509C5.871 9.08109 5.029 9.04009 4.866 8.57009C4.664 7.98709 5.671 8.00309 5.957 8.02209L6.022 8.02609C7.649 8.13109 9.3 7.91509 10.84 7.37209C12.395 6.82309 13.718 5.88509 15.053 4.93309C17.223 3.38509 20.973 1.31509 23.055 4.20009C22.747 4.39709 22.475 4.64909 22.255 4.94209C21.82 4.00409 20.754 3.68009 19.802 3.68609ZM19.496 5.21009C19.571 5.18609 19.631 5.17109 19.685 5.15909C20.51 4.93809 21.28 5.02609 21.976 5.42809L22.03 5.45809C22.072 5.48209 22.114 5.50609 22.153 5.53209L22.155 5.53309C22.741 5.92209 23.133 6.45309 23.33 6.76409C21.805 7.17509 20.332 6.55609 19.496 5.21009ZM2.859 16.7561C2.162 17.1681 1.477 17.1591 0.799 16.7381C0.759 16.7171 0.716 16.6911 0.667 16.6561C1.063 16.1311 2.312 14.6861 4.058 14.6751C3.544 15.2841 3.133 16.0071 2.859 16.7561ZM6.49 34.5621H4.465L4.452 33.6731L6.066 33.5521C6.326 33.8121 6.483 34.1841 6.49 34.5621ZM9.866 33.0161C10.245 33.2911 10.466 33.7791 10.442 34.2561H8.418L8.399 32.9251C8.847 32.6921 9.437 32.7211 9.856 33.0091L9.866 33.0161ZM10.31 22.2691V22.2711C9.785 24.2291 8.775 25.9841 7.388 27.3461L7.266 27.4661L7.333 27.6231C8.006 29.2111 8.784 30.7491 9.501 32.3161C9.123 32.2261 8.683 32.2561 8.324 32.4061C7.912 30.7461 7.075 29.2901 5.648 27.7441C6.094 26.7611 6.404 25.7131 6.57 24.6241C7.252 23.5291 7.897 22.4071 8.499 21.2661C9.16 21.3771 9.837 21.4241 10.506 21.4171C10.451 21.7031 10.386 21.9871 10.31 22.2691ZM13.075 21.8921C13.045 21.8961 12.894 21.9151 12.529 21.9611C12.381 21.9801 12.419 21.9751 12.524 21.9621C11.97 22.0321 11.414 22.0721 10.866 22.0831C10.921 21.8571 10.972 21.6301 11.013 21.4011C12.927 21.3051 14.833 20.7451 16.485 19.7551C16.619 20.1611 16.737 20.5841 16.849 21.0101C15.482 21.3971 14.021 21.7711 12.533 21.9601C12.701 21.9391 13.023 21.8981 13.075 21.8921ZM18.438 34.5621L18.427 33.8061L20.243 33.6321C20.403 33.8921 20.538 34.2521 20.561 34.5621H18.438ZM21.517 33.3221C21.89 33.6021 22.104 34.0881 22.077 34.5621H21.066C21.063 34.2471 20.985 33.9301 20.841 33.6421C21.087 33.5731 21.354 33.4591 21.517 33.3221ZM21.368 20.5921C21.347 20.7111 21.353 20.6791 21.367 20.5941C20.683 24.5641 20.542 28.5561 21.132 32.5501L21.123 32.5451L21.185 32.9291C21.069 32.9901 20.81 33.0641 20.577 33.1001C20.281 30.1131 20.013 27.0951 20.171 24.0901C20.325 21.1521 20.899 18.2971 21.748 15.4871C21.957 17.1971 21.658 18.9111 21.368 20.5921ZM21.844 13.5601L21.842 13.5501L21.577 14.3791C20.625 17.3531 19.843 20.4531 19.702 23.5901C19.558 26.7821 19.771 29.9461 20.085 33.1221C19.998 33.1361 19.911 33.1521 19.825 33.1711L18.425 33.3051L18.417 33.1381C18.226 29.2011 18.371 25.2161 17.445 21.3571L17.452 21.3551L17.392 21.1201C17.235 20.4951 17.052 19.8821 16.849 19.2981L16.746 19.0051L16.487 19.1701C14.122 20.6781 11.16 21.2551 8.411 20.7451L8.234 20.7121L8.15 20.8731C7.524 22.0671 6.844 23.2541 6.128 24.4021C5.407 25.5581 4.634 26.6981 3.833 27.7881L3.769 27.8751L3.788 27.9811C4.043 29.4371 4.475 30.6391 5.08 31.8891L5.02 31.8281L5.571 32.8491C5.613 32.9271 5.651 33.0031 5.694 33.0811L4.439 33.1751L3.938 32.1761L3.939 32.2141C3.267 30.9521 2.447 29.5281 2.388 28.0571C2.354 27.2241 2.901 26.6411 3.37 26.0241C3.882 25.3481 4.168 24.6201 4.049 23.7571C3.941 22.9721 3.595 22.2471 3.323 21.5121C3.039 20.7431 2.889 19.9421 2.906 19.1191C2.938 17.5091 3.56 15.8911 4.672 14.7311L4.695 14.7331C7.976 15.0271 11.503 15.2911 14.579 13.8531C17.471 12.5021 19.375 9.81009 21.032 7.16209C21.146 7.20709 21.267 7.24809 21.386 7.28009C21.311 8.51409 21.879 9.66009 23.112 9.98609C22.602 11.3561 22.198 12.4961 21.844 13.5601ZM28.412 10.4051C28.395 10.4011 28.398 10.4011 28.412 10.4051V10.4051ZM28.771 10.4951C28.84 10.5131 28.862 10.5181 28.771 10.4951V10.4951ZM31.33 9.67309C30.842 9.76209 30.338 9.73409 29.855 9.62609C29.601 9.57009 28.691 9.07809 28.514 9.28909C28.223 9.63609 29.19 9.92809 29.394 9.99509C29.882 10.1521 30.387 10.1921 30.896 10.1801C30.317 10.5891 29.459 10.6681 28.451 10.4151C28.528 10.4341 28.673 10.4711 28.761 10.4931C28.703 10.4781 28.608 10.4541 28.451 10.4151C27.719 10.2301 27.016 9.93709 26.277 9.77409C25.519 9.60709 24.753 9.66109 23.985 9.61409C22.656 9.53109 21.819 8.76309 21.874 7.37509C22.512 7.45509 23.17 7.35309 23.777 7.14809L24.043 7.05809L23.92 6.80309C23.631 6.20909 23.155 5.66409 22.634 5.26709C23.258 4.43009 24.367 3.98309 25.369 4.33009L25.373 4.33209C26.802 4.82709 27.58 6.38609 28.784 7.22809C29.453 7.69609 30.174 7.70209 30.897 8.00309C31.572 8.28409 31.641 9.07709 31.33 9.67309Z" fill="black"/>
</svg>
