<svg width="40" height="36" viewBox="0 0 40 36" fill="none" xmlns="http://www.w3.org/2000/svg">
<path fill-rule="evenodd" clip-rule="evenodd" d="M39.8438 9.22191C39.5448 8.59091 38.7978 8.33091 38.1558 8.43791C37.9949 8.29091 37.8288 8.14891 37.6628 8.01491L33.0339 4.31091C32.7339 4.06991 32.4058 3.82691 32.0458 3.64391C30.0018 -0.150094 24.3509 -0.337094 21.2779 2.10191C19.7869 3.28591 18.7799 5.05791 18.4179 6.94591C18.0128 9.05791 18.5058 11.1239 19.5928 12.9429L14.3059 13.4959C12.4129 13.6939 10.5058 14.0429 9.35885 15.7649C8.16485 16.0009 7.16985 16.7969 6.65285 17.9219C6.07985 19.1689 6.08185 20.5669 5.79085 21.8899C5.55685 22.9579 5.02785 24.1779 3.92585 24.5389C2.93585 24.8619 1.43085 24.1099 2.04485 22.8569C4.35285 21.9939 4.15085 18.8089 3.90985 16.8349L3.81485 16.0439L3.42885 16.3589C2.46585 17.1469 1.48685 17.9559 0.78285 19.0079C0.0768498 20.0609 -0.52615 21.7779 0.71485 22.6969C0.60085 23.8549 0.78485 25.2009 1.72385 25.9769C2.76785 26.8389 4.31785 26.6869 5.35785 25.9069C6.40885 25.1199 6.96285 23.8599 7.22585 22.5889C7.51885 21.1739 7.52285 19.6119 8.38185 18.3959C8.03985 20.6219 8.71385 22.7819 8.78985 24.9939C8.82385 25.9899 8.56185 26.6279 7.80385 27.2419C6.95285 27.9309 6.88285 28.9299 6.87485 29.9679C6.86185 31.7829 7.03885 33.8879 8.76385 34.8759C9.51385 35.3059 10.3869 35.4409 11.2348 35.4709C12.1339 35.5029 13.2298 35.5649 13.9998 35.0069C15.0088 35.0479 17.4219 34.6609 16.6819 33.0269C16.3209 32.2269 15.4188 32.0599 14.6628 31.9019C13.9018 31.7419 13.1538 31.3819 12.7168 30.6939C12.4938 30.3439 12.3758 29.9209 12.3948 29.5019C12.4198 28.9999 12.7258 28.9179 13.1348 28.7919C13.9068 28.5539 14.6439 28.1999 15.3198 27.7499C16.8029 26.7629 17.9369 25.3409 18.6459 23.6869C19.1739 23.7879 19.7089 23.8469 20.2418 23.8469C20.5448 23.8469 20.8468 23.8259 21.1479 23.7919C21.1448 25.2879 21.8479 26.2849 22.8699 27.2749C23.3358 27.7269 23.8379 28.1929 24.1059 28.8049C24.4359 29.5599 24.2579 30.3869 24.0979 31.1609L24.0209 31.5369C23.8269 32.5379 23.8029 33.7299 24.6069 34.4689C25.3829 35.1829 26.7749 35.3679 27.7779 35.2909C28.8279 35.4749 30.5788 35.5629 31.3619 34.6789C31.7539 34.2349 31.9089 33.5679 31.5529 33.0519C31.2259 32.5759 30.6289 32.4869 30.1069 32.4119C29.5239 32.3279 28.8988 32.2229 28.7278 31.5529C28.5739 30.9529 28.7148 30.2819 28.7698 29.6759C28.9058 28.1499 28.9939 26.6159 28.9599 25.0819C31.3738 21.7579 33.9049 18.1299 33.9429 13.8089C34.2509 13.7199 34.5879 13.6739 34.9859 13.6739C35.8299 13.6779 36.7549 14.1199 37.5469 13.6239C38.2889 13.1599 38.7339 12.0869 38.9709 11.2749C39.3479 10.9939 40.2929 10.1669 39.8438 9.22191C40.2929 10.1669 39.6088 8.72591 39.8438 9.22191ZM37.3249 8.45791C37.3979 8.51691 37.4708 8.57591 37.5438 8.63691C36.4439 9.23891 36.7628 10.6169 37.7958 11.0929C36.5308 13.2069 34.0849 10.5489 32.3928 11.6119C31.6218 12.0969 31.4309 13.1149 31.1779 13.9359C30.9009 14.8349 30.6199 15.7329 30.3399 16.6309C29.2009 14.2169 26.6028 12.4169 27.0119 9.45191C27.2119 8.00291 27.9349 6.61491 28.7879 5.45991C29.4609 4.55091 30.5469 3.55091 31.7319 4.10591L31.7359 4.10791C32.0769 4.26791 32.3979 4.51491 32.6968 4.75391L37.3249 8.45791ZM26.4018 8.91191C25.4839 8.65591 24.9349 7.38491 25.4398 6.54291C25.9529 5.68491 26.8699 5.82191 27.5469 6.37891C27.0989 7.17391 26.7289 8.03691 26.5429 8.93791C26.4949 8.93491 26.4478 8.92591 26.4018 8.91191ZM0.56985 21.5019C0.22485 19.7379 2.22985 18.0739 3.38985 17.1129C3.52785 18.2509 3.64885 19.4419 3.29585 20.5529C3.04885 21.3259 2.12385 22.8649 1.13185 22.3149L1.12985 22.3139C0.85685 22.1619 0.63685 21.8439 0.56985 21.5019C0.63685 21.8439 0.48685 21.0759 0.56985 21.5019ZM7.31385 19.2959C6.62985 21.3829 6.95985 24.0859 4.97085 25.4999C4.14385 26.0879 2.91985 26.2189 2.09185 25.5569C1.33285 24.9509 1.18285 23.8729 1.24085 22.9499C1.29985 22.9629 1.35985 22.9709 1.42085 22.9749C1.17785 24.1259 2.05485 25.1259 3.15585 25.1939C4.36885 25.2679 5.33385 24.4569 5.85885 23.3979C6.97385 21.1489 6.10585 17.5139 8.96185 16.4549C8.83285 16.7219 8.71585 17.0199 8.62785 17.3039C8.05085 17.7819 7.57485 18.5019 7.31385 19.2959C7.57485 18.5019 7.09385 19.9679 7.31385 19.2959ZM16.9639 25.4789C16.1248 26.5459 15.0338 27.4039 13.8048 27.9439C13.2668 28.1809 12.4728 28.2349 12.0908 28.7259C11.6778 29.2559 11.8239 30.1079 12.0799 30.6759C12.6898 32.0249 13.9698 32.2559 15.2268 32.6009C15.6908 32.7279 16.4809 33.1519 16.2049 33.7799C15.9699 34.3149 14.9758 34.4089 14.4958 34.4409C14.7078 33.9959 14.6539 33.4349 14.3109 33.0729C13.8078 32.5409 13.0489 32.6309 12.3959 32.6669C10.7278 32.7569 10.7529 31.1839 10.6529 29.9039C10.5849 29.0149 11.2729 28.7139 11.9018 28.3299C12.5768 27.9189 13.2018 27.4239 13.7648 26.8629C14.8828 25.7469 15.7569 24.3659 16.2589 22.8489C16.8358 23.1659 17.4648 23.4089 18.0989 23.5729C17.7878 24.2759 17.4069 24.9159 16.9639 25.4789C17.4069 24.9159 15.8539 26.8899 16.9639 25.4789ZM20.2418 23.2849C18.8508 23.2849 17.4379 22.9249 16.2409 22.1919L15.9359 22.0059L15.8348 22.3529C15.4598 23.6489 14.7928 24.8519 13.9268 25.8699C13.4908 26.3829 13.0028 26.8509 12.4728 27.2609C11.9479 27.6669 11.3288 27.9229 10.8078 28.3219C9.85785 29.0489 10.0329 30.5269 10.2628 31.5779C10.3708 32.0689 10.5889 32.5609 10.9818 32.8809C11.5478 33.3399 12.2659 33.2249 12.9359 33.1929L13.0508 33.1899C13.4739 33.1899 14.0718 33.3299 14.0768 33.8729C14.0819 34.5639 13.2558 34.8199 12.7218 34.8759C11.5608 34.9979 10.1739 34.9919 9.11485 34.4309C7.93785 33.8059 7.55185 32.5079 7.45785 31.2389C7.40885 30.5749 7.39985 29.8929 7.44685 29.2289C7.50485 28.3989 7.80285 27.9699 8.42085 27.4629C9.51485 26.5649 9.38885 25.1059 9.23785 23.8239C9.04785 22.2129 8.71785 20.5829 8.86485 18.9539C8.99185 17.5539 9.51085 16.0559 10.6288 15.1679C11.6828 14.3309 13.0808 14.1899 14.3618 14.0559L19.9199 13.4749C21.7019 16.1449 24.3369 18.0359 26.2929 20.5539C25.2038 21.7099 23.8229 22.5789 22.3049 22.9989L22.0739 23.0629V23.0649C21.4739 23.2109 20.8589 23.2849 20.2418 23.2849ZM24.8148 33.8779C24.4438 33.4059 24.3609 32.6769 24.5599 31.6469L24.6349 31.2779C24.7909 30.5269 24.9489 29.7439 24.7499 28.9849C24.5679 28.2899 24.1119 27.7299 23.6219 27.2339C22.5859 26.1859 21.6609 25.3229 21.6889 23.7199C21.8498 23.6929 22.0039 23.6609 22.1559 23.6249C22.4969 25.2369 24.0059 25.7469 24.7919 27.0329C25.5739 28.3129 25.5149 29.9449 25.5029 31.3969L25.5019 31.4869C25.4939 32.5559 25.5749 33.8269 26.3749 34.6199C25.7689 34.5159 25.1698 34.3299 24.8148 33.8779C25.1698 34.3299 24.4438 33.4059 24.8148 33.8779ZM30.0299 32.9689C30.6399 33.0569 31.5989 33.3249 31.0559 34.1669C30.5959 34.8789 29.4949 34.8039 28.7669 34.8039C28.0099 34.8039 27.1539 34.7139 26.6349 34.0809C26.0619 33.3819 26.0448 32.3549 26.0508 31.4909L26.0519 31.4019C26.0639 29.9609 26.0919 28.4169 25.4509 27.0929C24.7659 25.6739 23.0139 25.0899 22.6909 23.4709C24.1809 23.0119 25.5469 22.1439 26.6349 21.0089C27.4949 22.2039 28.1868 23.5629 28.4018 25.0459L28.4118 25.1069C28.4489 26.8489 28.3269 28.5889 28.1569 30.3209C28.1019 30.8829 28.0659 31.4869 28.3089 32.0119C28.6319 32.7099 29.3489 32.8709 30.0299 32.9689C30.6178 33.0539 29.5648 32.9019 30.0299 32.9689ZM32.2559 18.7329C31.3929 20.6929 30.1649 22.4689 28.9269 24.1819L28.9258 24.1499L28.8199 24.3029C28.5039 22.9439 27.8299 21.7029 27.0179 20.5909L27.0219 20.5869L26.8839 20.4059C26.8818 20.4039 26.8808 20.4009 26.8799 20.3999L26.6809 20.1349L26.6739 20.1429C23.5219 16.1229 17.4669 12.5419 19.0829 6.49691C19.7279 4.08291 21.4859 2.11491 23.8379 1.37791C26.3399 0.594906 29.5559 1.16691 31.2249 3.38091C29.7009 3.23091 28.5539 4.72091 27.8349 5.89191C26.8339 5.09391 25.3819 5.17391 24.8399 6.50291C24.3549 7.69291 25.1699 9.31891 26.4519 9.49991C26.0569 12.8739 29.1749 14.6429 30.1109 17.5409L30.3749 18.3619L30.6209 17.5759C31.1269 16.7559 32.4499 14.7999 33.3909 14.1009C33.3329 15.5819 32.9449 17.1729 32.2559 18.7329C32.9449 17.1729 31.3929 20.6929 32.2559 18.7329ZM37.4268 13.0669C37.0398 13.4469 36.4199 13.3449 35.9419 13.2709C35.2569 13.1639 34.6249 13.1159 33.9439 13.2849C33.9439 13.2849 32.5388 13.6759 31.1999 15.7239C31.4669 14.8679 31.7099 14.0009 31.9969 13.1519C32.2808 12.3139 32.7859 11.8179 33.6919 11.9039C34.6179 11.9909 35.4579 12.5739 36.4039 12.5189C37.1848 12.4729 37.9099 12.0119 38.2969 11.3169C38.3369 11.3359 38.3738 11.3539 38.4068 11.3729C38.1738 12.0519 37.8078 12.6919 37.4268 13.0669C37.8078 12.6919 37.2388 13.2509 37.4268 13.0669ZM38.6109 10.8469C38.5799 10.8309 38.5438 10.8139 38.5089 10.7979L38.5098 10.7949L38.2559 10.6839C37.8749 10.5189 37.5119 10.3699 37.3949 9.91991C37.2679 9.43091 37.7239 9.10391 38.1348 9.00691L38.1409 9.00591C38.6479 8.88691 39.5079 9.14091 39.3998 9.82691C39.3328 10.2559 38.9409 10.6079 38.6109 10.8469C38.7999 10.7099 38.5799 10.8309 38.6109 10.8469Z" fill="white"/>
</svg>
