<svg width="36" height="24" viewBox="0 0 36 24" fill="none" xmlns="http://www.w3.org/2000/svg">
<path fill-rule="evenodd" clip-rule="evenodd" d="M33.952 16.782L30.788 6.597C31.993 6.039 32.719 4.69 32.689 3.363L32.679 2.918L32.317 3.17C30.188 4.649 27.864 3.771 25.803 2.64C24.818 2.099 23.783 1.347 22.665 1.136C21.523 0.92 20.375 1.326 19.41 1.926C19.396 1.092 18.808 0.62 18.034 0.504L18 0.5L17.965 0.504C17.191 0.62 16.604 1.092 16.59 1.926C15.851 1.467 15.015 1.12 14.141 1.08C13.191 1.037 12.379 1.439 11.563 1.881C9.894 2.785 8.154 3.99 6.188 3.99C5.296 3.99 4.477 3.722 3.682 3.17L3.321 2.918L3.31 3.363C3.281 4.687 4.005 6.044 5.211 6.597L2.047 16.782H0L0.002 17.024C0.028 20.127 3.27 21.924 6.005 21.924C8.741 21.924 11.982 20.127 12.009 17.024L12.01 16.782H10.109L7.919 6.877C8.789 6.753 9.779 6.465 10.903 5.999C12.351 5.022 14.425 5.435 15.821 6.262C16.279 8.048 17.182 12.686 16.411 19.281C15.954 19.542 15.53 19.996 15.572 20.563C13.757 21.023 12.353 21.979 11.802 23.156L11.64 23.5H24.359L24.198 23.156C23.646 21.979 22.243 21.023 20.428 20.563C20.47 19.996 20.046 19.542 19.589 19.281C18.818 12.686 19.721 8.047 20.179 6.262C21.7 5.361 23.56 5.139 25.136 6.021C26.22 6.465 27.21 6.753 28.081 6.877L25.891 16.782H23.989L23.991 17.024C24.017 20.127 27.259 21.924 29.994 21.924C32.73 21.924 35.971 20.127 35.998 17.024L36 16.782H33.952ZM30.157 16.782L29.594 6.916C29.876 6.885 30.155 6.83 30.425 6.74L33.545 16.782H30.157ZM17.208 1.396C17.355 1.186 17.621 1.048 18 0.986C18.693 1.099 19.029 1.552 18.917 2.257C18.617 2.476 18.33 2.712 18.061 2.969C18.022 2.965 17.977 2.966 17.938 2.969C17.67 2.713 17.382 2.476 17.083 2.257C17.024 1.89 17.066 1.6 17.208 1.396C17.355 1.186 17.066 1.6 17.208 1.396ZM18.949 4.74C18.866 5.017 18.667 5.25 18.396 5.37C17.038 5.969 16.427 3.643 17.918 3.456L17.927 3.455C17.975 3.448 18.024 3.448 18.072 3.455L18.115 3.46C18.715 3.533 19.124 4.151 18.949 4.74ZM5.575 6.74C5.844 6.829 6.124 6.886 6.405 6.916L5.843 16.782H2.455L5.575 6.74ZM6.005 21.443C3.079 21.443 0.664 19.589 0.488 17.263H11.523C11.346 19.589 8.931 21.443 6.005 21.443ZM6.232 16.782L6.793 6.944C7.039 6.953 7.285 6.942 7.53 6.921L9.71 16.782H6.232ZM10.684 5.574C9.511 6.056 8.248 6.465 6.969 6.465L6.814 6.463C5.233 6.416 4.041 5.426 3.819 3.825C4.569 4.26 5.349 4.472 6.188 4.472C8.387 4.47 10.276 3.081 12.157 2.11C13.113 1.617 14.02 1.405 15.071 1.736C15.93 2.007 16.706 2.519 17.382 3.11C16.377 3.581 16.256 5.032 17.167 5.671C17.069 5.798 16.948 5.907 16.799 5.967C16.745 5.989 16.291 6.018 16.306 5.986C16.274 5.965 16.241 5.947 16.209 5.928L15.644 5.585L15.654 5.62C14.651 5.11 13.525 4.864 12.405 5.007C12.309 5.019 10.616 5.437 10.684 5.574C10.682 5.57 9.629 6.007 10.684 5.574ZM23.574 23.018H12.425C13.016 22.124 14.199 21.397 15.697 21.022C16.452 22.53 19.546 22.526 20.303 21.022C21.8 21.397 22.983 22.124 23.574 23.018ZM19.958 20.502C19.958 21.261 18.885 21.569 18.31 21.625C17.601 21.694 16.307 21.526 16.071 20.674L16.07 20.671C15.816 19.755 17.262 19.393 17.885 19.373C18.537 19.351 19.958 19.596 19.958 20.502ZM19.083 19.054C18.405 18.826 17.595 18.826 16.917 19.053C17.595 12.924 16.841 8.488 16.368 6.49C16.866 6.567 17.329 6.292 17.608 5.882C17.86 5.954 18.139 5.954 18.391 5.882C18.672 6.293 19.132 6.565 19.632 6.49C19.158 8.488 18.404 12.924 19.083 19.054C19.044 19.041 18.404 12.924 19.083 19.054ZM22.941 4.966C22.068 4.966 21.198 5.187 20.346 5.62L20.355 5.585L19.79 5.928C19.756 5.948 19.723 5.966 19.717 5.973C19.381 6.108 19.043 5.943 18.833 5.671C19.744 5.032 19.624 3.583 18.618 3.11C19.404 2.418 20.351 1.818 21.387 1.62C22.722 1.364 23.834 2.089 24.955 2.718C27.171 3.96 29.726 5.244 32.177 3.827C31.945 5.425 30.771 6.416 29.186 6.463L29.03 6.465C27.768 6.465 26.517 6.067 25.356 5.596C25.317 5.57 24.389 4.966 22.941 4.966ZM28.469 6.921C28.714 6.942 28.961 6.954 29.206 6.944L29.767 16.782H26.289L28.469 6.921ZM29.994 21.443C27.068 21.443 24.653 19.589 24.476 17.263H35.512C35.335 19.589 32.921 21.443 29.994 21.443Z" fill="white"/>
</svg>
