<svg width="38" height="26" viewBox="0 0 38 26" fill="none" xmlns="http://www.w3.org/2000/svg">
<path fill-rule="evenodd" clip-rule="evenodd" d="M37.487 17.117C36.997 19.571 33.443 21.388 31.335 22.263C28.531 25.321 23.98 25.933 21.207 25.994C21.034 25.998 20.87 26 20.716 26C20.714 26 20.711 26 20.711 26H20.71C20.001 26 19.531 25.964 19.411 25.954C19.393 25.952 19.383 25.952 19.381 25.951L19.238 25.938L19.185 25.806C17.233 20.969 21.69 18.324 22.094 18.097C22.839 17.403 23.517 16.706 24.118 16.02C23.004 13.517 25.186 11.54 25.209 11.52L25.527 11.239L25.598 11.654C25.662 12.03 25.879 12.53 26.214 13.106C28.357 9.214 26.62 7.249 26.316 6.949C25.897 7.19 25.146 7.516 24.129 7.516C22.726 7.516 21.292 6.902 19.868 5.691L19.728 5.573L19.811 5.41C19.848 5.34 20.716 3.696 22.603 3.696C22.949 3.696 23.308 3.753 23.676 3.866C23.323 3.054 22.909 1.501 24.017 0.094L24.088 0.005L24.22 0C24.536 0 26.246 0.904 27.076 2.406C27.676 3.492 27.694 4.676 27.157 5.871C32.653 7.333 33.537 13.07 33.673 15.136C36.752 15.221 37.448 16.916 37.476 16.989L37.5 17.052L37.487 17.117ZM19.47 21.698C19.545 21.647 19.631 21.595 19.728 21.549C20.064 21.386 20.44 21.295 20.817 21.295C21.013 21.295 21.214 21.3 21.396 21.364C21.622 21.444 21.503 21.813 21.294 21.774C20.834 21.687 20.339 21.715 19.922 21.924C19.654 22.059 19.425 22.266 19.245 22.506C19.083 23.367 19.137 24.364 19.569 25.5C19.77 25.514 20.172 25.535 20.71 25.535C20.846 25.535 20.992 25.534 21.143 25.53C22.217 25.507 23.811 25.386 25.488 24.965C25.666 24.447 26.29 22.309 25.192 20.573L25.071 20.397C24.997 20.29 24.922 20.189 24.846 20.094C24.829 20.072 24.811 20.053 24.794 20.032C24.733 19.958 24.672 19.886 24.609 19.819C24.595 19.803 24.58 19.788 24.566 19.773C24.498 19.702 24.43 19.633 24.363 19.57C24.356 19.563 24.349 19.557 24.341 19.55C23.431 18.711 22.522 18.551 22.286 18.523C21.924 18.727 20.186 19.789 19.47 21.698ZM25.243 12.156C24.755 12.716 23.865 14.026 24.455 15.623C24.513 15.554 24.571 15.485 24.626 15.417C24.683 15.348 24.74 15.278 24.795 15.209C24.904 15.071 25.008 14.935 25.11 14.798C25.151 14.743 25.195 14.687 25.236 14.631C25.374 14.441 25.506 14.253 25.631 14.066C25.652 14.035 25.67 14.004 25.691 13.972C25.779 13.838 25.862 13.705 25.942 13.573C25.612 13.038 25.377 12.563 25.243 12.156ZM27.259 11.974C27.185 12.171 26.438 13.479 26.493 13.566C26.495 13.568 26.422 13.69 26.422 13.69C25.94 14.504 25.317 15.354 24.57 16.217L24.336 16.486C23.843 17.027 23.315 17.581 22.735 18.135C22.854 18.022 23.749 18.538 23.862 18.605C24.416 18.934 24.808 19.378 25.249 19.83C25.249 19.83 25.863 18.922 26.063 18.577C26.315 18.142 26.555 17.701 26.777 17.25C27.229 16.333 27.61 15.379 27.869 14.39C28.392 12.396 28.38 10.282 27.593 8.358C27.779 9.072 27.778 9.822 27.656 10.546C27.573 11.033 27.435 11.511 27.259 11.974ZM26.815 2.938C26.208 1.54 24.743 0.676 24.301 0.496C23.074 2.207 24.309 4.093 24.363 4.174L24.821 4.858L24.068 4.514C23.555 4.279 23.063 4.161 22.603 4.161C21.32 4.161 20.575 5.089 20.326 5.465C21.612 6.518 22.89 7.051 24.129 7.051C25.395 7.051 26.216 6.473 26.365 6.36C27.133 5.169 27.284 4.018 26.815 2.938ZM33.215 15.371C33.129 13.6 32.428 7.751 27.035 6.315L26.974 6.399C28.544 8.437 28.988 11.072 28.536 13.56C28.311 14.803 27.885 16.002 27.346 17.145C27.071 17.729 26.765 18.3 26.44 18.859C26.358 19.001 25.509 20.204 25.551 20.268C25.564 20.288 25.577 20.304 25.589 20.324C26.658 22.009 26.279 23.96 26.03 24.816C27.827 24.296 29.666 23.414 31.024 21.913C32.449 20.338 33.19 18.265 33.225 15.751C33.225 15.748 33.227 15.609 33.215 15.371ZM33.694 15.597C33.695 15.606 33.695 15.609 33.695 15.618C33.696 15.657 33.696 15.688 33.696 15.71C33.696 15.741 33.696 15.756 33.696 15.756C33.679 16.963 33.504 18.168 33.093 19.308C32.94 19.732 32.758 20.145 32.549 20.543C32.439 20.751 32.209 21.366 31.981 21.471C33.794 20.631 36.561 19.053 37.009 17.098C36.87 16.824 36.141 15.672 33.694 15.597ZM22.984 24.665C22.601 24.665 22.29 24.358 22.29 23.98C22.29 23.601 22.601 23.294 22.984 23.294C23.368 23.294 23.679 23.601 23.679 23.98C23.679 24.358 23.368 24.665 22.984 24.665ZM15.905 7.903C15.161 8.596 14.483 9.293 13.882 9.979C14.995 12.482 12.814 14.459 12.791 14.479L12.473 14.76L12.401 14.345C12.337 13.969 12.12 13.469 11.785 12.893C9.642 16.785 11.379 18.751 11.683 19.051C12.103 18.81 12.853 18.484 13.871 18.484C15.273 18.484 16.707 19.097 18.132 20.308L18.272 20.427L18.188 20.589C18.152 20.659 17.283 22.304 15.396 22.304C15.051 22.304 14.692 22.247 14.324 22.134C14.677 22.946 15.091 24.499 13.982 25.905L13.912 25.994L13.779 26C13.463 26 11.754 25.096 10.923 23.593C10.324 22.507 10.305 21.323 10.842 20.129C5.346 18.666 4.463 12.93 4.326 10.863C1.248 10.779 0.552 9.084 0.523 9.01L0.5 8.948L0.513 8.882C1.002 6.428 4.556 4.611 6.665 3.736C9.642 0.488 14.594 0 17.289 0C18.1 0 18.598 0.046 18.619 0.048L18.762 0.062L18.815 0.193C20.767 5.033 16.306 7.678 15.905 7.903ZM12.757 13.843C13.244 13.283 14.134 11.974 13.544 10.377C13.487 10.445 13.429 10.514 13.373 10.582C13.317 10.651 13.26 10.721 13.206 10.789C13.095 10.929 12.989 11.068 12.886 11.206C12.846 11.26 12.804 11.313 12.765 11.366C12.626 11.557 12.492 11.747 12.367 11.935C12.35 11.961 12.335 11.987 12.318 12.013C12.226 12.152 12.14 12.29 12.057 12.427C12.388 12.962 12.622 13.436 12.757 13.843ZM11.506 12.433C11.505 12.431 11.577 12.309 11.577 12.309C12.06 11.495 12.683 10.645 13.43 9.783L13.663 9.513C14.157 8.972 14.685 8.418 15.264 7.864C14.669 7.717 13.637 7.3 12.737 6.138C12.769 6.179 12.031 7.259 11.965 7.373C11.699 7.83 11.447 8.295 11.214 8.769C10.761 9.695 10.38 10.658 10.123 11.655C9.621 13.601 9.586 15.775 10.407 17.645C10.107 16.488 10.16 14.76 11.506 12.433ZM11.185 23.062C11.792 24.459 13.256 25.323 13.698 25.503C14.929 23.784 13.65 21.845 13.637 21.825L13.174 21.14L13.932 21.486C14.444 21.72 14.937 21.839 15.396 21.839C16.691 21.839 17.428 20.914 17.675 20.535C16.388 19.482 15.109 18.949 13.871 18.949C12.604 18.949 11.784 19.526 11.635 19.639C10.867 20.83 10.715 21.982 11.185 23.062ZM0.99 8.901C1.129 9.175 1.858 10.327 4.305 10.403C4.305 10.394 4.305 10.39 4.305 10.383C4.304 10.343 4.303 10.312 4.303 10.289C4.303 10.259 4.303 10.244 4.303 10.244C4.319 9.14 4.47 8.047 4.81 6.994C4.964 6.516 5.153 6.05 5.375 5.599C5.492 5.362 5.774 4.641 6.019 4.528C4.205 5.369 1.438 6.946 0.99 8.901ZM6.975 4.086C5.55 5.662 4.81 7.735 4.774 10.249C4.774 10.251 4.773 10.39 4.785 10.627C4.87 12.4 5.572 18.249 10.964 19.684L11.026 19.601C10.981 19.542 10.942 19.483 10.899 19.424C10.84 19.344 10.781 19.264 10.726 19.184C9.383 17.218 9.043 14.766 9.459 12.462C9.867 10.201 10.914 8.024 12.186 6.115C12.204 6.089 12.22 6.065 12.237 6.04C12.281 5.975 12.326 5.908 12.368 5.846C12.396 5.806 12.422 5.77 12.449 5.732C12.436 5.712 12.423 5.696 12.41 5.676C11.342 3.99 11.72 2.04 11.97 1.184C10.172 1.703 8.333 2.585 6.975 4.086ZM18.515 4.339C18.52 4.327 18.525 4.314 18.53 4.302C18.455 4.353 18.369 4.404 18.272 4.451C17.935 4.613 17.56 4.704 17.182 4.704C16.987 4.704 16.786 4.7 16.603 4.635C16.378 4.556 16.497 4.186 16.706 4.226C17.166 4.313 17.661 4.284 18.077 4.075C18.775 3.724 18.846 3.21 18.833 2.492C18.819 1.811 18.673 1.136 18.43 0.499C18.229 0.486 17.828 0.464 17.289 0.464C16.243 0.464 14.432 0.552 12.511 1.035C11.672 3.481 12.487 6.325 15.079 7.323C15.739 7.577 15.964 7.354 16.472 6.969C16.772 6.741 17.053 6.491 17.311 6.218C17.824 5.672 18.247 5.037 18.515 4.339ZM15.015 2.705C14.631 2.705 14.32 2.398 14.32 2.02C14.32 1.641 14.631 1.334 15.015 1.334C15.399 1.334 15.71 1.641 15.71 2.02C15.71 2.398 15.399 2.705 15.015 2.705Z" fill="white"/>
</svg>
