<svg width="38" height="27" viewBox="0 0 38 27" fill="none" xmlns="http://www.w3.org/2000/svg">
<path fill-rule="evenodd" clip-rule="evenodd" d="M37.487 17.6771C36.997 20.1311 33.443 21.9481 31.335 22.8231C28.531 25.8811 23.98 26.4931 21.207 26.5541C21.034 26.5581 20.87 26.5601 20.716 26.5601C20.714 26.5601 20.711 26.5601 20.711 26.5601H20.71C20.001 26.5601 19.531 26.5241 19.411 26.5141C19.393 26.5121 19.383 26.5121 19.381 26.5111L19.238 26.4981L19.185 26.3661C17.233 21.5291 21.69 18.8841 22.094 18.6571C22.839 17.9631 23.517 17.2661 24.118 16.5801C23.004 14.0771 25.186 12.1001 25.209 12.0801L25.527 11.7991L25.598 12.2141C25.662 12.5901 25.879 13.0901 26.214 13.6661C28.357 9.77406 26.62 7.80906 26.316 7.50906C25.897 7.75006 25.146 8.07606 24.129 8.07606C22.726 8.07606 21.292 7.46206 19.868 6.25106L19.728 6.13306L19.811 5.97006C19.848 5.90006 20.716 4.25606 22.603 4.25606C22.949 4.25606 23.308 4.31306 23.676 4.42606C23.323 3.61406 22.909 2.06106 24.017 0.654059L24.088 0.565059L24.22 0.560059C24.536 0.560059 26.246 1.46406 27.076 2.96606C27.676 4.05206 27.694 5.23606 27.157 6.43106C32.653 7.89306 33.537 13.6301 33.673 15.6961C36.752 15.7811 37.448 17.4761 37.476 17.5491L37.5 17.6121L37.487 17.6771ZM19.47 22.2581C19.545 22.2071 19.631 22.1551 19.728 22.1091C20.064 21.9461 20.44 21.8551 20.817 21.8551C21.013 21.8551 21.214 21.8601 21.396 21.9241C21.622 22.0041 21.503 22.3731 21.294 22.3341C20.834 22.2471 20.339 22.2751 19.922 22.4841C19.654 22.6191 19.425 22.8261 19.245 23.0661C19.083 23.9271 19.137 24.9241 19.569 26.0601C19.77 26.0741 20.172 26.0951 20.71 26.0951C20.846 26.0951 20.992 26.0941 21.143 26.0901C22.217 26.0671 23.811 25.9461 25.488 25.5251C25.666 25.0071 26.29 22.8691 25.192 21.1331L25.071 20.9571C24.997 20.8501 24.922 20.7491 24.846 20.6541C24.829 20.6321 24.811 20.6131 24.794 20.5921C24.733 20.5181 24.672 20.4461 24.609 20.3791C24.595 20.3631 24.58 20.3481 24.566 20.3331C24.498 20.2621 24.43 20.1931 24.363 20.1301C24.356 20.1231 24.349 20.1171 24.341 20.1101C23.431 19.2711 22.522 19.1111 22.286 19.0831C21.924 19.2871 20.186 20.3491 19.47 22.2581ZM25.243 12.7161C24.755 13.2761 23.865 14.5861 24.455 16.1831C24.513 16.1141 24.571 16.0451 24.626 15.9771C24.683 15.9081 24.74 15.8381 24.795 15.7691C24.904 15.6311 25.008 15.4951 25.11 15.3581C25.151 15.3031 25.195 15.2471 25.236 15.1911C25.374 15.0011 25.506 14.8131 25.631 14.6261C25.652 14.5951 25.67 14.5641 25.691 14.5321C25.779 14.3981 25.862 14.2651 25.942 14.1331C25.612 13.5981 25.377 13.1231 25.243 12.7161ZM27.259 12.5341C27.185 12.7311 26.438 14.0391 26.493 14.1261C26.495 14.1281 26.422 14.2501 26.422 14.2501C25.94 15.0641 25.317 15.9141 24.57 16.7771L24.336 17.0461C23.843 17.5871 23.315 18.1411 22.735 18.6951C22.854 18.5821 23.749 19.0981 23.862 19.1651C24.416 19.4941 24.808 19.9381 25.249 20.3901C25.249 20.3901 25.863 19.4821 26.063 19.1371C26.315 18.7021 26.555 18.2611 26.777 17.8101C27.229 16.8931 27.61 15.9391 27.869 14.9501C28.392 12.9561 28.38 10.8421 27.593 8.91806C27.779 9.63206 27.778 10.3821 27.656 11.1061C27.573 11.5931 27.435 12.0711 27.259 12.5341ZM26.815 3.49806C26.208 2.10006 24.743 1.23606 24.301 1.05606C23.074 2.76706 24.309 4.65306 24.363 4.73406L24.821 5.41806L24.068 5.07406C23.555 4.83906 23.063 4.72106 22.603 4.72106C21.32 4.72106 20.575 5.64906 20.326 6.02506C21.612 7.07806 22.89 7.61106 24.129 7.61106C25.395 7.61106 26.216 7.03306 26.365 6.92006C27.133 5.72906 27.284 4.57806 26.815 3.49806ZM33.215 15.9311C33.129 14.1601 32.428 8.31106 27.035 6.87506L26.974 6.95906C28.544 8.99706 28.988 11.6321 28.536 14.1201C28.311 15.3631 27.885 16.5621 27.346 17.7051C27.071 18.2891 26.765 18.8601 26.44 19.4191C26.358 19.5611 25.509 20.7641 25.551 20.8281C25.564 20.8481 25.577 20.8641 25.589 20.8841C26.658 22.5691 26.279 24.5201 26.03 25.3761C27.827 24.8561 29.666 23.9741 31.024 22.4731C32.449 20.8981 33.19 18.8251 33.225 16.3111C33.225 16.3081 33.227 16.1691 33.215 15.9311ZM33.694 16.1571C33.695 16.1661 33.695 16.1691 33.695 16.1781C33.696 16.2171 33.696 16.2481 33.696 16.2701C33.696 16.3011 33.696 16.3161 33.696 16.3161C33.679 17.5231 33.504 18.7281 33.093 19.8681C32.94 20.2921 32.758 20.7051 32.549 21.1031C32.439 21.3111 32.209 21.9261 31.981 22.0311C33.794 21.1911 36.561 19.6131 37.009 17.6581C36.87 17.3841 36.141 16.2321 33.694 16.1571ZM22.984 25.2251C22.601 25.2251 22.29 24.9181 22.29 24.5401C22.29 24.1611 22.601 23.8541 22.984 23.8541C23.368 23.8541 23.679 24.1611 23.679 24.5401C23.679 24.9181 23.368 25.2251 22.984 25.2251ZM15.905 8.46306C15.161 9.15606 14.483 9.85306 13.882 10.5391C14.995 13.0421 12.814 15.0191 12.791 15.0391L12.473 15.3201L12.401 14.9051C12.337 14.5291 12.12 14.0291 11.785 13.4531C9.642 17.3451 11.379 19.3111 11.683 19.6111C12.103 19.3701 12.853 19.0441 13.871 19.0441C15.273 19.0441 16.707 19.6571 18.132 20.8681L18.272 20.9871L18.188 21.1491C18.152 21.2191 17.283 22.8641 15.396 22.8641C15.051 22.8641 14.692 22.8071 14.324 22.6941C14.677 23.5061 15.091 25.0591 13.982 26.4651L13.912 26.5541L13.779 26.5601C13.463 26.5601 11.754 25.6561 10.923 24.1531C10.324 23.0671 10.305 21.8831 10.842 20.6891C5.346 19.2261 4.463 13.4901 4.326 11.4231C1.248 11.3391 0.552 9.64406 0.523 9.57006L0.5 9.50806L0.513 9.44206C1.002 6.98806 4.556 5.17106 6.665 4.29606C9.642 1.04806 14.594 0.560059 17.289 0.560059C18.1 0.560059 18.598 0.606059 18.619 0.608059L18.762 0.622059L18.815 0.753059C20.767 5.59306 16.306 8.23806 15.905 8.46306ZM12.757 14.4031C13.244 13.8431 14.134 12.5341 13.544 10.9371C13.487 11.0051 13.429 11.0741 13.373 11.1421C13.317 11.2111 13.26 11.2811 13.206 11.3491C13.095 11.4891 12.989 11.6281 12.886 11.7661C12.846 11.8201 12.804 11.8731 12.765 11.9261C12.626 12.1171 12.492 12.3071 12.367 12.4951C12.35 12.5211 12.335 12.5471 12.318 12.5731C12.226 12.7121 12.14 12.8501 12.057 12.9871C12.388 13.5221 12.622 13.9961 12.757 14.4031ZM11.506 12.9931C11.505 12.9911 11.577 12.8691 11.577 12.8691C12.06 12.0551 12.683 11.2051 13.43 10.3431L13.663 10.0731C14.157 9.53206 14.685 8.97806 15.264 8.42406C14.669 8.27706 13.637 7.86006 12.737 6.69806C12.769 6.73906 12.031 7.81906 11.965 7.93306C11.699 8.39006 11.447 8.85506 11.214 9.32906C10.761 10.2551 10.38 11.2181 10.123 12.2151C9.621 14.1611 9.586 16.3351 10.407 18.2051C10.107 17.0481 10.16 15.3201 11.506 12.9931ZM11.185 23.6221C11.792 25.0191 13.256 25.8831 13.698 26.0631C14.929 24.3441 13.65 22.4051 13.637 22.3851L13.174 21.7001L13.932 22.0461C14.444 22.2801 14.937 22.3991 15.396 22.3991C16.691 22.3991 17.428 21.4741 17.675 21.0951C16.388 20.0421 15.109 19.5091 13.871 19.5091C12.604 19.5091 11.784 20.0861 11.635 20.1991C10.867 21.3901 10.715 22.5421 11.185 23.6221ZM0.99 9.46106C1.129 9.73506 1.858 10.8871 4.305 10.9631C4.305 10.9541 4.305 10.9501 4.305 10.9431C4.304 10.9031 4.303 10.8721 4.303 10.8491C4.303 10.8191 4.303 10.8041 4.303 10.8041C4.319 9.70006 4.47 8.60706 4.81 7.55406C4.964 7.07606 5.153 6.61006 5.375 6.15906C5.492 5.92206 5.774 5.20106 6.019 5.08806C4.205 5.92906 1.438 7.50606 0.99 9.46106ZM6.975 4.64606C5.55 6.22206 4.81 8.29506 4.774 10.8091C4.774 10.8111 4.773 10.9501 4.785 11.1871C4.87 12.9601 5.572 18.8091 10.964 20.2441L11.026 20.1611C10.981 20.1021 10.942 20.0431 10.899 19.9841C10.84 19.9041 10.781 19.8241 10.726 19.7441C9.383 17.7781 9.043 15.3261 9.459 13.0221C9.867 10.7611 10.914 8.58406 12.186 6.67506C12.204 6.64906 12.22 6.62506 12.237 6.60006C12.281 6.53506 12.326 6.46806 12.368 6.40606C12.396 6.36606 12.422 6.33006 12.449 6.29206C12.436 6.27206 12.423 6.25606 12.41 6.23606C11.342 4.55006 11.72 2.60006 11.97 1.74406C10.172 2.26306 8.333 3.14506 6.975 4.64606ZM18.515 4.89906C18.52 4.88706 18.525 4.87406 18.53 4.86206C18.455 4.91306 18.369 4.96406 18.272 5.01106C17.935 5.17306 17.56 5.26406 17.182 5.26406C16.987 5.26406 16.786 5.26006 16.603 5.19506C16.378 5.11606 16.497 4.74606 16.706 4.78606C17.166 4.87306 17.661 4.84406 18.077 4.63506C18.775 4.28406 18.846 3.77006 18.833 3.05206C18.819 2.37106 18.673 1.69606 18.43 1.05906C18.229 1.04606 17.828 1.02406 17.289 1.02406C16.243 1.02406 14.432 1.11206 12.511 1.59506C11.672 4.04106 12.487 6.88506 15.079 7.88306C15.739 8.13706 15.964 7.91406 16.472 7.52906C16.772 7.30106 17.053 7.05106 17.311 6.77806C17.824 6.23206 18.247 5.59706 18.515 4.89906ZM15.015 3.26506C14.631 3.26506 14.32 2.95806 14.32 2.58006C14.32 2.20106 14.631 1.89406 15.015 1.89406C15.399 1.89406 15.71 2.20106 15.71 2.58006C15.71 2.95806 15.399 3.26506 15.015 3.26506Z" fill="black"/>
</svg>
