<svg width="32" height="36" viewBox="0 0 32 36" fill="none" xmlns="http://www.w3.org/2000/svg">
<path fill-rule="evenodd" clip-rule="evenodd" d="M30.1837 12.937C31.0507 11.556 31.8127 9.55804 30.5997 8.13904C30.0647 7.51204 29.3707 6.92804 28.9517 6.21004C28.6057 5.61904 28.7637 4.88604 28.8637 4.24804L28.9997 3.38104L28.4277 4.04104C28.4187 4.05004 28.0307 4.50804 27.7467 5.18704L21.1847 10.81C20.9667 10.084 20.8617 9.26004 20.2767 8.72304C19.6937 8.18604 18.8807 8.15804 18.1647 7.93104L18.1597 7.92904C17.7727 7.80704 17.3837 7.61004 17.2357 7.19904C17.8677 7.03004 18.4877 6.76004 19.0817 6.37904L19.1987 6.30404L19.1997 6.16504C19.1997 6.04204 19.1847 5.06204 18.6967 4.63704C18.9057 3.99204 18.9217 3.31104 18.7517 2.65604C18.8677 2.60204 18.9777 2.54604 19.0777 2.48404L19.2597 2.37204L19.1817 2.17204C18.9077 1.47004 18.3167 0.831043 17.6777 0.464043C16.1787 -0.398957 14.4187 0.265043 13.0827 1.13404L12.9497 1.22104L12.9687 1.38004C12.9727 1.41304 13.3597 4.72404 11.5987 5.32104L11.1957 5.45704L11.5077 5.74904C11.5787 5.81504 13.2187 7.31804 15.5867 7.39304C15.5147 7.77604 15.3497 8.14504 15.0867 8.43304C14.8697 8.67004 14.3727 8.64704 14.0867 8.71804C13.1207 8.80404 12.4237 9.55504 11.8057 10.234C11.0957 11.013 10.4257 11.846 9.83469 12.723C9.28469 13.535 9.17869 14.689 10.2607 15.094C10.7547 15.278 11.3137 15.278 11.8317 15.316C12.7597 15.387 13.6887 15.44 14.6177 15.479C14.5967 16.033 14.5317 16.577 14.4117 17.102C13.8907 17.431 13.3387 17.741 12.7257 17.843C12.0627 17.953 11.3767 17.886 10.7147 17.801C9.50569 17.647 8.25169 17.423 7.08569 17.925C6.15769 16.889 4.11569 16.427 2.85669 16.949C1.80169 17.385 0.966692 18.122 0.633692 19.259C0.205692 20.719 0.835692 22.28 2.08969 23.111C2.53769 23.407 3.04969 23.79 3.14469 24.369C3.26169 25.079 2.56369 25.418 2.04169 24.939L1.62469 24.555L1.62269 25.126C1.61869 26.219 2.49669 26.94 3.53269 26.943H3.53669C4.22969 26.943 4.88569 26.539 5.26069 25.957C5.74269 25.208 5.61269 24.34 5.26469 23.565C4.91969 22.798 4.35069 22.034 4.38469 21.152C4.41569 20.355 4.91769 19.62 5.65869 19.344C5.21769 20.365 5.33369 21.602 5.47969 22.5L5.51569 22.723C5.67169 23.672 5.86169 24.685 5.60969 25.634C5.35169 26.603 4.44669 27.227 4.38669 28.27C4.33369 29.175 4.69969 30.031 4.60369 30.944C4.52069 31.723 4.41169 32.498 4.30369 33.273L4.14469 33.279L4.14569 34.973L6.74669 35.06L6.65069 34.187C6.61469 33.854 6.42569 33.571 6.15069 33.399C6.24369 32.053 6.49169 30.725 6.75169 29.404C6.99769 28.155 7.27369 27.003 8.04769 25.97C7.42569 27.207 7.22369 28.325 7.34469 29.705L7.66969 33.398L7.67069 34.973L10.2717 35.06L10.1757 34.187C10.1387 33.856 9.95169 33.574 9.67469 33.401C9.14169 31.709 8.90369 29.79 9.49769 28.081C10.2507 25.915 12.5847 24.828 13.2067 22.593C13.3507 22.574 13.4957 22.555 13.6357 22.526C13.4747 23.233 13.9087 23.992 14.4307 24.43C15.1287 25.018 16.0757 24.87 16.9157 24.927C16.4447 25.834 15.7697 26.628 14.9647 27.256L13.4567 27.258L13.3697 29.896L14.2057 29.801C14.6587 29.75 15.0227 29.42 15.1357 28.979C16.4467 28.26 17.6007 27.246 18.4897 26.034C18.9147 25.456 19.4267 24.752 19.5537 24.028C19.7067 23.161 19.0437 22.721 18.3617 22.419C18.4857 22.401 18.6187 22.386 18.7427 22.373L20.6727 22.823C21.1167 22.926 21.5497 23.085 21.5037 23.631C21.4627 24.104 21.1957 24.564 20.9777 24.975C20.4577 25.954 19.7907 26.865 18.9567 27.592L17.6167 27.593L17.5297 30.233L18.3657 30.138C18.7477 30.094 19.0697 29.842 19.2267 29.493C20.0787 28.969 20.8307 28.181 21.5067 27.443C22.5027 26.355 23.2957 25.03 23.8767 23.671C24.4397 22.354 24.3237 20.775 22.7877 20.265C21.4327 19.815 19.3147 20.212 19.0957 18.271L19.0927 18.054L19.0897 17.872L19.0887 17.831C19.0727 16.901 19.0997 16.065 19.1297 15.258L27.6097 21.737C27.8827 22.621 28.4167 23.255 28.4277 23.267L28.9997 23.927L28.8637 23.059C28.7737 22.482 28.6217 21.801 28.8757 21.244C29.1667 20.603 29.7877 20.093 30.2447 19.577C30.8957 18.842 31.3177 18.111 31.2287 17.088C31.1537 16.219 30.7887 15.391 30.3527 14.648L31.4987 13.851L30.1837 12.937ZM14.6667 28.782C14.6297 29.054 14.4177 29.265 14.1497 29.295L13.8917 29.324L13.9417 27.766L14.6417 27.765L14.6727 28.68C14.6737 28.715 14.6707 28.749 14.6667 28.782ZM18.8017 29.229L18.8007 29.23C18.7277 29.449 18.5347 29.606 18.3097 29.632L18.0507 29.661L18.1027 28.103L18.8017 28.102L18.8327 29.017C18.8357 29.087 18.8247 29.159 18.8017 29.229ZM28.2487 5.26504C28.2217 6.21704 28.5357 6.60204 29.3727 7.51904C29.7707 7.95404 30.2647 8.39404 30.5217 8.93504C30.7697 9.45904 30.7717 10.059 30.6527 10.618C30.4277 11.673 29.8357 12.66 29.1747 13.494L29.0527 13.649H27.9497V13.421C27.9947 13.38 28.0387 13.337 28.0827 13.296C29.3417 12.482 29.7277 10.68 29.2607 9.31004C28.9887 8.51404 28.2947 7.98004 28.0477 7.19104C27.8477 6.54804 27.9727 5.86304 28.2487 5.26504ZM30.0017 13.649C29.9907 13.538 29.9647 13.429 29.9297 13.322C30.0047 13.213 30.0857 13.093 30.1707 12.958V13.649H30.0017ZM30.1707 14.064V14.35C30.1067 14.25 30.0447 14.155 29.9827 14.064H30.1707ZM27.5357 14.195C27.7017 14.34 27.8557 14.496 28.0027 14.661C25.7227 14.961 23.3437 15.026 21.1927 14.064H27.4477V14.119L27.5357 14.195ZM27.5267 5.88804C27.4027 6.46904 27.4357 7.07804 27.6747 7.62604C27.9527 8.26404 28.4977 8.71304 28.7477 9.37304C29.1907 10.54 28.9127 12.148 27.8197 12.862C27.2477 12.979 26.5587 12.87 25.9697 12.896C25.2987 12.925 24.6167 12.957 23.9477 12.869C22.9487 12.737 21.8467 12.279 21.3757 11.313L27.5267 5.88804ZM27.4477 13.383V13.649H20.4447C20.2927 13.544 20.1457 13.433 20.0117 13.307C20.0417 13.336 20.1007 13.391 20.0097 13.306C19.9907 13.288 19.9957 13.292 20.0067 13.303C19.9437 13.243 19.8807 13.181 19.8227 13.115L19.7687 13.049L19.7517 13.029L19.7357 13.01C19.6927 12.964 19.6547 12.914 19.6197 12.862L20.9897 11.653C22.2747 13.981 25.3167 13.287 27.4477 13.383ZM19.4147 13.414L19.4497 13.457C19.5067 13.519 19.5677 13.581 19.6367 13.649H19.1807C19.1827 13.513 19.1857 13.379 19.1877 13.243L19.2387 13.198C19.2757 13.247 19.3147 13.294 19.3537 13.341L19.3967 13.38L19.3907 13.386C19.3987 13.395 19.4077 13.405 19.4147 13.414ZM12.1537 5.62204C13.6567 4.72704 13.5427 2.16204 13.4837 1.48004C14.4647 0.864043 15.6867 0.338043 16.8547 0.662043C17.6237 0.876043 18.2487 1.45304 18.6197 2.15804C17.6227 2.66004 16.3757 2.54104 15.4587 1.90304L15.1297 1.66404L15.0657 2.06904C14.7767 3.86204 15.0607 4.44204 15.0987 4.51004C15.5647 5.28704 16.2597 5.77304 17.1567 5.39604C17.4487 5.27304 18.0687 4.75804 18.3747 5.02004C18.6307 5.24004 18.6747 5.71104 18.6927 6.02404C17.8407 6.54604 16.8717 6.87004 15.8727 6.89004L15.7687 6.89104C14.0747 6.89104 12.7307 6.05104 12.1537 5.62204ZM18.2387 4.44004C18.1747 4.44504 18.1097 4.45004 18.0457 4.45504C17.4877 4.54804 17.0367 5.06904 16.4527 5.03204C16.0387 5.00504 15.7307 4.58504 15.5357 4.26004C15.5337 4.25604 15.3397 3.82804 15.5067 2.52204C16.3537 2.96904 17.3627 3.12504 18.2847 2.83904C18.4107 3.36404 18.3977 3.92404 18.2387 4.44004ZM15.4547 8.78004C15.7377 8.47104 15.5017 8.72804 15.4557 8.77904C15.7957 8.40604 16.0217 7.92004 16.1017 7.39104C16.3127 7.37804 16.5327 7.35104 16.7407 7.31504C16.9197 7.88604 17.4127 8.21604 17.9507 8.39604C18.2037 8.68004 19.4437 10.103 18.7887 11.902L18.7097 12.213C18.6927 12.457 18.6947 12.704 18.6907 12.948L18.2007 13.368C17.7607 13.269 17.2727 13.3 16.8237 13.281C16.1957 13.256 15.5677 13.232 14.9397 13.207C14.8477 12.768 14.7287 12.327 14.5617 11.911C14.9597 11.701 15.3817 11.383 15.5487 10.944C15.7717 10.31 15.7407 9.43104 15.1887 8.97404C15.2877 8.92604 15.3777 8.86304 15.4537 8.78104C15.4457 8.79004 15.4427 8.79404 15.4547 8.78004ZM14.9927 16.735C15.0617 16.331 15.1137 15.921 15.1297 15.502C15.8757 15.53 16.6227 15.55 17.3687 15.558H17.4957C17.8817 15.558 18.2857 15.529 18.6247 15.322C18.5977 16.047 18.5747 16.798 18.5837 17.622C17.3097 17.827 16.0247 18.009 14.9137 17.18C14.9197 17.153 14.9227 17.125 14.9277 17.099L15.0067 16.726L14.9927 16.735ZM18.5917 14.189L18.4307 14.064H18.4887C18.4897 14.064 18.4897 14.064 18.4897 14.065C18.5327 14.105 18.5637 14.147 18.5917 14.189ZM9.94169 14.216C9.94369 14.225 9.94369 14.225 9.94169 14.216V14.216ZM13.1767 14.898C12.4547 14.855 11.7277 14.818 11.0077 14.737C10.5637 14.686 10.0067 14.569 9.91069 14.045C9.82069 13.553 10.1497 13.142 10.4137 12.773C10.7837 12.255 11.1767 11.753 11.5827 11.263C12.2677 10.438 13.1357 9.21404 14.3207 9.21404L14.3757 9.21304C14.9977 9.21304 15.2127 9.79304 15.1667 10.346C15.1157 10.94 14.7007 11.314 14.1767 11.528L13.8787 11.596L13.8867 11.613C13.3847 11.782 12.8967 12.06 12.5247 12.444C12.1897 12.789 11.9457 13.596 12.6917 13.628L14.5237 13.701L14.7237 13.709C14.7547 13.71 14.7857 13.711 14.8167 13.712L15.0387 13.721C16.0017 13.758 16.9527 13.795 17.6627 13.826V13.829L17.4727 13.992L18.4977 14.775C18.2387 15.038 17.8387 15.049 17.4957 15.049H17.3727C15.9737 15.035 14.5737 14.981 13.1767 14.898ZM14.4157 13.187L12.7127 13.119L12.6787 13.055C12.7167 12.996 12.7607 12.938 12.8097 12.882C13.1377 12.501 13.6187 12.24 14.0847 12.084C14.2297 12.441 14.3317 12.81 14.4157 13.187ZM4.84869 19.218C4.92069 19.162 4.95469 19.136 4.84769 19.22C4.39469 19.575 4.69869 19.337 4.84769 19.22C4.33169 19.625 3.99169 20.244 3.90369 20.898C3.79269 21.727 4.15269 22.476 4.51969 23.192C4.84169 23.818 5.24369 24.554 5.02369 25.283C4.83069 25.921 4.20369 26.434 3.53669 26.434V26.688L3.53369 26.434C2.98069 26.432 2.40569 26.175 2.20369 25.618C2.85069 25.832 3.57569 25.447 3.64769 24.746C3.69669 24.267 3.53769 23.832 3.25369 23.452C2.83169 22.888 2.16369 22.636 1.71569 22.098C1.30769 21.609 1.01069 20.978 0.979692 20.331C0.920692 19.1 1.70369 18.049 2.76069 17.546C3.91369 16.998 5.65969 17.269 6.61369 18.162C6.38169 18.315 6.17469 18.505 6.00969 18.73C5.57869 18.793 5.17869 18.96 4.84869 19.218ZM6.15169 34.244L6.18369 34.532L4.64669 34.481V33.771L5.59369 33.737C5.87469 33.737 6.12069 33.96 6.15169 34.244ZM9.67669 34.244L9.70869 34.532L8.17169 34.481V33.771L9.11869 33.737C9.39769 33.737 9.64569 33.963 9.67669 34.244ZM11.7627 24.199C11.6687 24.312 11.7027 24.271 11.7607 24.201C10.6817 25.501 9.40969 26.541 8.92469 28.235C8.45869 29.863 8.63569 31.622 9.09669 33.229C9.09169 33.228 9.08669 33.228 9.08169 33.229L8.16169 33.261L7.84469 29.659C7.75569 28.656 7.79669 27.769 8.19669 26.835C8.55869 25.989 9.05669 25.21 9.38369 24.347C9.82469 23.789 10.2287 23.173 10.4337 22.482C11.1727 22.59 11.9237 22.685 12.6717 22.649C12.4977 23.157 12.1877 23.686 11.7637 24.198C11.8637 24.077 12.0267 23.88 11.7627 24.199ZM19.1767 19.686C20.0807 20.645 21.5107 20.366 22.6477 20.755C23.8147 21.154 23.8817 22.342 23.4657 23.351C22.5827 25.493 21.1377 27.383 19.3287 28.802L19.2997 27.968C20.2487 27.138 20.9917 26.084 21.5547 24.954C21.8067 24.45 22.1007 23.87 21.9877 23.287C21.8697 22.678 21.3197 22.451 20.7847 22.326L18.7757 21.858L18.7357 21.862C18.4617 21.888 17.5457 21.867 17.4487 22.263C17.2717 22.986 19.2787 22.879 19.0527 23.974C18.8697 24.863 18.1087 25.768 17.5267 26.426C16.8467 27.197 16.0477 27.861 15.1657 28.383L15.1447 27.77C15.7577 27.313 16.3017 26.761 16.7547 26.141C17.0127 25.788 17.9527 24.485 16.9417 24.418C16.2207 24.371 15.3177 24.535 14.7237 24.016C14.3077 23.652 13.8107 22.817 14.3027 22.316L14.6447 21.886C14.6447 21.886 13.4117 22.228 10.2847 21.946L10.0567 21.913L10.0037 22.14C9.57069 24.022 7.70369 25.129 6.93069 26.842C6.50369 27.786 6.34869 28.838 6.15269 29.85C5.93769 30.968 5.74269 32.094 5.65569 33.232C5.62369 33.23 5.59169 33.226 5.55769 33.229L4.81269 33.255C4.92169 32.469 5.03469 31.683 5.11369 30.893C5.20769 29.942 4.73069 28.985 4.91869 28.053C5.00569 27.621 5.28769 27.274 5.53269 26.924C5.82269 26.509 6.03769 26.068 6.13969 25.568C6.33869 24.6 6.16869 23.6 6.01069 22.639L5.97469 22.417C5.82769 21.512 5.73569 20.518 6.07269 19.644C6.44069 18.688 7.29969 18.239 8.26569 18.14C9.35769 18.028 10.4327 18.326 11.5177 18.39C12.6697 18.458 13.6227 18.191 14.6047 17.582C15.8067 18.484 17.1997 18.368 18.5927 18.137L18.5957 18.304C18.6597 18.888 18.8497 19.34 19.1767 19.686ZM18.8047 8.61604C19.2077 8.70604 19.6387 8.82404 19.9387 9.09904C19.8647 9.03104 19.8057 8.97604 19.9397 9.10004C20.1387 9.28304 20.0307 9.18304 19.9407 9.10104C20.4887 9.60604 20.5437 10.489 20.7767 11.16L19.3367 12.394C19.2967 12.317 19.2627 12.235 19.2297 12.154C19.2397 12.13 19.2517 12.103 19.2637 12.074C19.9417 10.622 19.3267 9.34204 18.8047 8.61604ZM27.4747 21.113L19.1527 14.627L19.1557 14.563L19.1517 14.562C19.1627 14.491 19.1657 14.418 19.1587 14.345H19.1627C19.1657 14.263 19.1687 14.164 19.1717 14.064H20.1517C22.4947 15.688 25.7067 15.489 28.3727 15.124C28.8997 15.891 29.1417 16.84 28.8437 17.749C28.6337 18.39 28.1667 18.811 27.8327 19.373C27.5217 19.898 27.4037 20.507 27.4747 21.113ZM30.2207 18.836C29.5087 19.668 28.3387 20.538 28.2537 21.721L28.0727 21.579C27.9287 21.103 27.8977 20.591 28.0487 20.112C28.2387 19.507 28.7287 19.096 29.0317 18.553C29.6557 17.431 29.5737 16.134 28.9127 15.05L28.9457 15.046L28.6897 14.699C28.5247 14.476 28.3327 14.266 28.1287 14.064H29.3647C30.2827 15.316 31.4417 17.406 30.2207 18.836Z" fill="black"/>
</svg>
