<svg width="32" height="36" viewBox="0 0 32 36" fill="none" xmlns="http://www.w3.org/2000/svg">
<path fill-rule="evenodd" clip-rule="evenodd" d="M30.1837 13.377C31.0507 11.996 31.8127 9.99798 30.5997 8.57899C30.0647 7.95199 29.3707 7.36798 28.9517 6.64998C28.6057 6.05898 28.7637 5.32598 28.8637 4.68798L28.9997 3.82099L28.4277 4.48098C28.4187 4.48998 28.0307 4.94798 27.7467 5.62698L21.1847 11.25C20.9667 10.524 20.8617 9.69998 20.2767 9.16298C19.6937 8.62599 18.8807 8.59798 18.1647 8.37098L18.1597 8.36898C17.7727 8.24698 17.3837 8.04998 17.2357 7.63898C17.8677 7.46998 18.4877 7.19998 19.0817 6.81898L19.1987 6.74398L19.1997 6.60498C19.1997 6.48198 19.1847 5.50199 18.6967 5.07698C18.9057 4.43198 18.9217 3.75098 18.7517 3.09598C18.8677 3.04199 18.9777 2.98599 19.0777 2.92399L19.2597 2.81199L19.1817 2.61198C18.9077 1.90998 18.3167 1.27098 17.6777 0.903985C16.1787 0.0409849 14.4187 0.704985 13.0827 1.57398L12.9497 1.66098L12.9687 1.81998C12.9727 1.85298 13.3597 5.16398 11.5987 5.76098L11.1957 5.89698L11.5077 6.18898C11.5787 6.25498 13.2187 7.75799 15.5867 7.83298C15.5147 8.21598 15.3497 8.58498 15.0867 8.87298C14.8697 9.10999 14.3727 9.08698 14.0867 9.15798C13.1207 9.24399 12.4237 9.99498 11.8057 10.674C11.0957 11.453 10.4257 12.286 9.83469 13.163C9.28469 13.975 9.17869 15.129 10.2607 15.534C10.7547 15.718 11.3137 15.718 11.8317 15.756C12.7597 15.827 13.6887 15.88 14.6177 15.919C14.5967 16.473 14.5317 17.017 14.4117 17.542C13.8907 17.871 13.3387 18.181 12.7257 18.283C12.0627 18.393 11.3767 18.326 10.7147 18.241C9.50569 18.087 8.25169 17.863 7.08569 18.365C6.15769 17.329 4.11569 16.867 2.85669 17.389C1.80169 17.825 0.966692 18.562 0.633692 19.699C0.205692 21.159 0.835692 22.72 2.08969 23.551C2.53769 23.847 3.04969 24.23 3.14469 24.809C3.26169 25.519 2.56369 25.858 2.04169 25.379L1.62469 24.995L1.62269 25.566C1.61869 26.659 2.49669 27.38 3.53269 27.383H3.53669C4.22969 27.383 4.88569 26.979 5.26069 26.397C5.74269 25.648 5.61269 24.78 5.26469 24.005C4.91969 23.238 4.35069 22.474 4.38469 21.592C4.41569 20.795 4.91769 20.06 5.65869 19.784C5.21769 20.805 5.33369 22.042 5.47969 22.94L5.51569 23.163C5.67169 24.112 5.86169 25.125 5.60969 26.074C5.35169 27.043 4.44669 27.667 4.38669 28.71C4.33369 29.615 4.69969 30.471 4.60369 31.384C4.52069 32.163 4.41169 32.938 4.30369 33.713L4.14469 33.719L4.14569 35.413L6.74669 35.5L6.65069 34.627C6.61469 34.294 6.42569 34.011 6.15069 33.839C6.24369 32.493 6.49169 31.165 6.75169 29.844C6.99769 28.595 7.27369 27.443 8.04769 26.41C7.42569 27.647 7.22369 28.765 7.34469 30.145L7.66969 33.838L7.67069 35.413L10.2717 35.5L10.1757 34.627C10.1387 34.296 9.95169 34.014 9.67469 33.841C9.14169 32.149 8.90369 30.23 9.49769 28.521C10.2507 26.355 12.5847 25.268 13.2067 23.033C13.3507 23.014 13.4957 22.995 13.6357 22.966C13.4747 23.673 13.9087 24.432 14.4307 24.87C15.1287 25.458 16.0757 25.31 16.9157 25.367C16.4447 26.274 15.7697 27.068 14.9647 27.696L13.4567 27.698L13.3697 30.336L14.2057 30.241C14.6587 30.19 15.0227 29.86 15.1357 29.419C16.4467 28.7 17.6007 27.686 18.4897 26.474C18.9147 25.896 19.4267 25.192 19.5537 24.468C19.7067 23.601 19.0437 23.161 18.3617 22.859C18.4857 22.841 18.6187 22.826 18.7427 22.813L20.6727 23.263C21.1167 23.366 21.5497 23.525 21.5037 24.071C21.4627 24.544 21.1957 25.004 20.9777 25.415C20.4577 26.394 19.7907 27.305 18.9567 28.032L17.6167 28.033L17.5297 30.673L18.3657 30.578C18.7477 30.534 19.0697 30.282 19.2267 29.933C20.0787 29.409 20.8307 28.621 21.5067 27.883C22.5027 26.795 23.2957 25.47 23.8767 24.111C24.4397 22.794 24.3237 21.215 22.7877 20.705C21.4327 20.255 19.3147 20.652 19.0957 18.711L19.0927 18.494L19.0897 18.312L19.0887 18.271C19.0727 17.341 19.0997 16.505 19.1297 15.698L27.6097 22.177C27.8827 23.061 28.4167 23.695 28.4277 23.707L28.9997 24.367L28.8637 23.499C28.7737 22.922 28.6217 22.241 28.8757 21.684C29.1667 21.043 29.7877 20.533 30.2447 20.017C30.8957 19.282 31.3177 18.551 31.2287 17.528C31.1537 16.659 30.7887 15.831 30.3527 15.088L31.4987 14.291L30.1837 13.377ZM14.6667 29.222C14.6297 29.494 14.4177 29.705 14.1497 29.735L13.8917 29.764L13.9417 28.206L14.6417 28.205L14.6727 29.12C14.6737 29.155 14.6707 29.189 14.6667 29.222ZM18.8017 29.669L18.8007 29.67C18.7277 29.889 18.5347 30.046 18.3097 30.072L18.0507 30.101L18.1027 28.543L18.8017 28.542L18.8327 29.457C18.8357 29.527 18.8247 29.599 18.8017 29.669ZM28.2487 5.70498C28.2217 6.65698 28.5357 7.04199 29.3727 7.95898C29.7707 8.39398 30.2647 8.83398 30.5217 9.37498C30.7697 9.89898 30.7717 10.499 30.6527 11.058C30.4277 12.113 29.8357 13.1 29.1747 13.934L29.0527 14.089H27.9497V13.861C27.9947 13.82 28.0387 13.777 28.0827 13.736C29.3417 12.922 29.7277 11.12 29.2607 9.74998C28.9887 8.95399 28.2947 8.41998 28.0477 7.63098C27.8477 6.98798 27.9727 6.30298 28.2487 5.70498ZM30.0017 14.089C29.9907 13.978 29.9647 13.869 29.9297 13.762C30.0047 13.653 30.0857 13.533 30.1707 13.398V14.089H30.0017ZM30.1707 14.504V14.79C30.1067 14.69 30.0447 14.595 29.9827 14.504H30.1707ZM27.5357 14.635C27.7017 14.78 27.8557 14.936 28.0027 15.101C25.7227 15.401 23.3437 15.466 21.1927 14.504H27.4477V14.559L27.5357 14.635ZM27.5267 6.32798C27.4027 6.90898 27.4357 7.51798 27.6747 8.06598C27.9527 8.70399 28.4977 9.15298 28.7477 9.81298C29.1907 10.98 28.9127 12.588 27.8197 13.302C27.2477 13.419 26.5587 13.31 25.9697 13.336C25.2987 13.365 24.6167 13.397 23.9477 13.309C22.9487 13.177 21.8467 12.719 21.3757 11.753L27.5267 6.32798ZM27.4477 13.823V14.089H20.4447C20.2927 13.984 20.1457 13.873 20.0117 13.747C20.0417 13.776 20.1007 13.831 20.0097 13.746C19.9907 13.728 19.9957 13.732 20.0067 13.743C19.9437 13.683 19.8807 13.621 19.8227 13.555L19.7687 13.489L19.7517 13.469L19.7357 13.45C19.6927 13.404 19.6547 13.354 19.6197 13.302L20.9897 12.093C22.2747 14.421 25.3167 13.727 27.4477 13.823ZM19.4147 13.854L19.4497 13.897C19.5067 13.959 19.5677 14.021 19.6367 14.089H19.1807C19.1827 13.953 19.1857 13.819 19.1877 13.683L19.2387 13.638C19.2757 13.687 19.3147 13.734 19.3537 13.781L19.3967 13.82L19.3907 13.826C19.3987 13.835 19.4077 13.845 19.4147 13.854ZM12.1537 6.06198C13.6567 5.16698 13.5427 2.60198 13.4837 1.91998C14.4647 1.30398 15.6867 0.777985 16.8547 1.10198C17.6237 1.31598 18.2487 1.89299 18.6197 2.59799C17.6227 3.09999 16.3757 2.98098 15.4587 2.34298L15.1297 2.10398L15.0657 2.50899C14.7767 4.30199 15.0607 4.88198 15.0987 4.94998C15.5647 5.72698 16.2597 6.21298 17.1567 5.83598C17.4487 5.71298 18.0687 5.19798 18.3747 5.45998C18.6307 5.67998 18.6747 6.15098 18.6927 6.46398C17.8407 6.98598 16.8717 7.30998 15.8727 7.32998L15.7687 7.33098C14.0747 7.33098 12.7307 6.49098 12.1537 6.06198ZM18.2387 4.87998C18.1747 4.88498 18.1097 4.88998 18.0457 4.89498C17.4877 4.98798 17.0367 5.50899 16.4527 5.47198C16.0387 5.44498 15.7307 5.02498 15.5357 4.69998C15.5337 4.69598 15.3397 4.26798 15.5067 2.96198C16.3537 3.40898 17.3627 3.56499 18.2847 3.27899C18.4107 3.80399 18.3977 4.36398 18.2387 4.87998ZM15.4547 9.21999C15.7377 8.91098 15.5017 9.16798 15.4557 9.21898C15.7957 8.84598 16.0217 8.35998 16.1017 7.83098C16.3127 7.81798 16.5327 7.79098 16.7407 7.75498C16.9197 8.32598 17.4127 8.65598 17.9507 8.83599C18.2037 9.11999 19.4437 10.543 18.7887 12.342L18.7097 12.653C18.6927 12.897 18.6947 13.144 18.6907 13.388L18.2007 13.808C17.7607 13.709 17.2727 13.74 16.8237 13.721C16.1957 13.696 15.5677 13.672 14.9397 13.647C14.8477 13.208 14.7287 12.767 14.5617 12.351C14.9597 12.141 15.3817 11.823 15.5487 11.384C15.7717 10.75 15.7407 9.87098 15.1887 9.41398C15.2877 9.36598 15.3777 9.30298 15.4537 9.22098C15.4457 9.22998 15.4427 9.23398 15.4547 9.21999ZM14.9927 17.175C15.0617 16.771 15.1137 16.361 15.1297 15.942C15.8757 15.97 16.6227 15.99 17.3687 15.998H17.4957C17.8817 15.998 18.2857 15.969 18.6247 15.762C18.5977 16.487 18.5747 17.238 18.5837 18.062C17.3097 18.267 16.0247 18.449 14.9137 17.62C14.9197 17.593 14.9227 17.565 14.9277 17.539L15.0067 17.166L14.9927 17.175ZM18.5917 14.629L18.4307 14.504H18.4887C18.4897 14.504 18.4897 14.504 18.4897 14.505C18.5327 14.545 18.5637 14.587 18.5917 14.629ZM9.94169 14.656C9.94369 14.665 9.94369 14.665 9.94169 14.656V14.656ZM13.1767 15.338C12.4547 15.295 11.7277 15.258 11.0077 15.177C10.5637 15.126 10.0067 15.009 9.91069 14.485C9.82069 13.993 10.1497 13.582 10.4137 13.213C10.7837 12.695 11.1767 12.193 11.5827 11.703C12.2677 10.878 13.1357 9.65399 14.3207 9.65399L14.3757 9.65298C14.9977 9.65298 15.2127 10.233 15.1667 10.786C15.1157 11.38 14.7007 11.754 14.1767 11.968L13.8787 12.036L13.8867 12.053C13.3847 12.222 12.8967 12.5 12.5247 12.884C12.1897 13.229 11.9457 14.036 12.6917 14.068L14.5237 14.141L14.7237 14.149C14.7547 14.15 14.7857 14.151 14.8167 14.152L15.0387 14.161C16.0017 14.198 16.9527 14.235 17.6627 14.266V14.269L17.4727 14.432L18.4977 15.215C18.2387 15.478 17.8387 15.489 17.4957 15.489H17.3727C15.9737 15.475 14.5737 15.421 13.1767 15.338ZM14.4157 13.627L12.7127 13.559L12.6787 13.495C12.7167 13.436 12.7607 13.378 12.8097 13.322C13.1377 12.941 13.6187 12.68 14.0847 12.524C14.2297 12.881 14.3317 13.25 14.4157 13.627ZM4.84869 19.658C4.92069 19.602 4.95469 19.576 4.84769 19.66C4.39469 20.015 4.69869 19.777 4.84769 19.66C4.33169 20.065 3.99169 20.684 3.90369 21.338C3.79269 22.167 4.15269 22.916 4.51969 23.632C4.84169 24.258 5.24369 24.994 5.02369 25.723C4.83069 26.361 4.20369 26.874 3.53669 26.874V27.128L3.53369 26.874C2.98069 26.872 2.40569 26.615 2.20369 26.058C2.85069 26.272 3.57569 25.887 3.64769 25.186C3.69669 24.707 3.53769 24.272 3.25369 23.892C2.83169 23.328 2.16369 23.076 1.71569 22.538C1.30769 22.049 1.01069 21.418 0.979692 20.771C0.920692 19.54 1.70369 18.489 2.76069 17.986C3.91369 17.438 5.65969 17.709 6.61369 18.602C6.38169 18.755 6.17469 18.945 6.00969 19.17C5.57869 19.233 5.17869 19.4 4.84869 19.658ZM6.15169 34.684L6.18369 34.972L4.64669 34.921V34.211L5.59369 34.177C5.87469 34.177 6.12069 34.4 6.15169 34.684ZM9.67669 34.684L9.70869 34.972L8.17169 34.921V34.211L9.11869 34.177C9.39769 34.177 9.64569 34.403 9.67669 34.684ZM11.7627 24.639C11.6687 24.752 11.7027 24.711 11.7607 24.641C10.6817 25.941 9.40969 26.981 8.92469 28.675C8.45869 30.303 8.63569 32.062 9.09669 33.669C9.09169 33.668 9.08669 33.668 9.08169 33.669L8.16169 33.701L7.84469 30.099C7.75569 29.096 7.79669 28.209 8.19669 27.275C8.55869 26.429 9.05669 25.65 9.38369 24.787C9.82469 24.229 10.2287 23.613 10.4337 22.922C11.1727 23.03 11.9237 23.125 12.6717 23.089C12.4977 23.597 12.1877 24.126 11.7637 24.638C11.8637 24.517 12.0267 24.32 11.7627 24.639ZM19.1767 20.126C20.0807 21.085 21.5107 20.806 22.6477 21.195C23.8147 21.594 23.8817 22.782 23.4657 23.791C22.5827 25.933 21.1377 27.823 19.3287 29.242L19.2997 28.408C20.2487 27.578 20.9917 26.524 21.5547 25.394C21.8067 24.89 22.1007 24.31 21.9877 23.727C21.8697 23.118 21.3197 22.891 20.7847 22.766L18.7757 22.298L18.7357 22.302C18.4617 22.328 17.5457 22.307 17.4487 22.703C17.2717 23.426 19.2787 23.319 19.0527 24.414C18.8697 25.303 18.1087 26.208 17.5267 26.866C16.8467 27.637 16.0477 28.301 15.1657 28.823L15.1447 28.21C15.7577 27.753 16.3017 27.201 16.7547 26.581C17.0127 26.228 17.9527 24.925 16.9417 24.858C16.2207 24.811 15.3177 24.975 14.7237 24.456C14.3077 24.092 13.8107 23.257 14.3027 22.756L14.6447 22.326C14.6447 22.326 13.4117 22.668 10.2847 22.386L10.0567 22.353L10.0037 22.58C9.57069 24.462 7.70369 25.569 6.93069 27.282C6.50369 28.226 6.34869 29.278 6.15269 30.29C5.93769 31.408 5.74269 32.534 5.65569 33.672C5.62369 33.67 5.59169 33.666 5.55769 33.669L4.81269 33.695C4.92169 32.909 5.03469 32.123 5.11369 31.333C5.20769 30.382 4.73069 29.425 4.91869 28.493C5.00569 28.061 5.28769 27.714 5.53269 27.364C5.82269 26.949 6.03769 26.508 6.13969 26.008C6.33869 25.04 6.16869 24.04 6.01069 23.079L5.97469 22.857C5.82769 21.952 5.73569 20.958 6.07269 20.084C6.44069 19.128 7.29969 18.679 8.26569 18.58C9.35769 18.468 10.4327 18.766 11.5177 18.83C12.6697 18.898 13.6227 18.631 14.6047 18.022C15.8067 18.924 17.1997 18.808 18.5927 18.577L18.5957 18.744C18.6597 19.328 18.8497 19.78 19.1767 20.126ZM18.8047 9.05598C19.2077 9.14598 19.6387 9.26398 19.9387 9.53898C19.8647 9.47098 19.8057 9.41599 19.9397 9.53998C20.1387 9.72298 20.0307 9.62298 19.9407 9.54099C20.4887 10.046 20.5437 10.929 20.7767 11.6L19.3367 12.834C19.2967 12.757 19.2627 12.675 19.2297 12.594C19.2397 12.57 19.2517 12.543 19.2637 12.514C19.9417 11.062 19.3267 9.78198 18.8047 9.05598ZM27.4747 21.553L19.1527 15.067L19.1557 15.003L19.1517 15.002C19.1627 14.931 19.1657 14.858 19.1587 14.785H19.1627C19.1657 14.703 19.1687 14.604 19.1717 14.504H20.1517C22.4947 16.128 25.7067 15.929 28.3727 15.564C28.8997 16.331 29.1417 17.28 28.8437 18.189C28.6337 18.83 28.1667 19.251 27.8327 19.813C27.5217 20.338 27.4037 20.947 27.4747 21.553ZM30.2207 19.276C29.5087 20.108 28.3387 20.978 28.2537 22.161L28.0727 22.019C27.9287 21.543 27.8977 21.031 28.0487 20.552C28.2387 19.947 28.7287 19.536 29.0317 18.993C29.6557 17.871 29.5737 16.574 28.9127 15.49L28.9457 15.486L28.6897 15.139C28.5247 14.916 28.3327 14.706 28.1287 14.504H29.3647C30.2827 15.756 31.4417 17.846 30.2207 19.276Z" fill="white"/>
</svg>
