<svg width="36" height="36" viewBox="0 0 36 36" fill="none" xmlns="http://www.w3.org/2000/svg">
<g clip-path="url(#clip0_81_2795)">
<path fill-rule="evenodd" clip-rule="evenodd" d="M36.0005 0.5L35.9975 1.131C35.9935 2.392 35.9735 3.754 35.2495 4.842C34.6795 5.698 33.7665 6.241 32.7265 6.131C32.2585 6.36 31.7735 6.415 31.2615 6.342C33.6905 7.386 32.1965 10.796 33.6255 12.49C34.2255 12.844 34.5575 13.085 34.5715 13.095L34.6265 13.136L34.6555 13.198C34.9875 13.914 34.5695 14.757 33.9265 15.129C33.2365 15.525 32.4205 15.463 31.6735 15.307L31.6245 15.309C31.1245 15.309 30.6055 15.13 30.1065 15.077C29.5195 15.013 28.9305 14.962 28.3445 14.892C29.7795 21.099 26.7595 27.436 28.2565 33.633C29.1095 33.927 29.4575 34.333 29.4025 35.25L29.3885 35.499H27.6595H27.1285H24.8545L24.7605 33.349L24.8775 33.345C24.4585 30.666 24.3095 27.916 24.4705 25.722C23.6055 25.213 22.8615 24.51 22.3025 23.675C21.1485 24.206 19.7995 24.409 18.4895 24.253C17.9185 25.145 17.1905 25.941 16.3365 26.569C15.4585 27.215 14.4245 27.631 13.5915 28.341C12.0125 29.687 11.9395 31.914 11.9945 33.837C12.0195 33.845 12.0425 33.854 12.0685 33.862L12.1225 33.884C12.5895 34.149 12.5325 35.205 12.5305 35.25L12.5145 35.499H10.7895H10.2595H8.0745L7.9815 33.366C7.74151 32.225 7.55851 31.049 7.68151 29.881C7.81151 28.649 8.3835 27.671 8.9445 26.599C9.5285 25.486 9.6375 24.418 9.2345 23.219C8.8505 22.075 8.2085 21.041 7.77551 19.917C6.91751 21.428 5.89451 23.585 4.01251 23.948C1.93651 24.349 1.0795 22.181 0.997505 20.497C0.255505 20.079 -0.193495 19.124 0.0855048 18.294C0.291505 17.682 1.4625 16.679 0.950505 15.984L0.411505 15.255L1.2575 15.576C1.8035 15.786 2.2855 16.238 2.5985 16.723C3.3455 17.882 3.2945 19.307 2.2815 20.272C2.5565 21.122 3.40251 21.958 4.36751 21.63C5.1845 21.352 5.51651 20.384 5.80751 19.657L5.9035 19.419C6.3655 18.289 7.0155 17.241 7.8385 16.303C8.7645 14.76 10.7535 14.188 12.4355 14.082C14.4835 13.951 16.7765 14.34 18.6055 13.173C20.2265 12.139 21.0925 10.282 22.1915 8.771C23.1145 7.504 24.3105 6.357 25.8065 5.819C25.8125 5.024 26.0695 4.221 26.8185 3.838C27.5885 3.444 28.4755 3.587 29.2855 3.75C30.3065 3.96 31.1795 3.986 32.0615 3.356C32.8995 2.759 33.4775 1.878 34.2075 1.166L34.6585 0.727L34.6565 1.358C34.6565 1.537 34.6545 1.723 34.6515 1.91C34.9425 1.579 35.2325 1.246 35.5485 0.939L36.0005 0.5ZM2.5235 17.938C2.3985 17.329 2.0735 16.775 1.5865 16.388C1.5595 17.236 0.840505 17.715 0.587505 18.464C0.604505 18.413 0.612505 18.389 0.587505 18.464C0.445505 18.887 0.545505 18.588 0.587505 18.464C0.348505 19.174 0.877505 20.009 1.5855 20.173C2.3415 19.59 2.7235 18.904 2.5235 17.938ZM7.3715 17.78C6.9835 18.362 6.65651 18.978 6.39451 19.621L6.2995 19.856C5.9305 20.778 5.47351 21.913 4.4015 22.173C3.28151 22.444 2.2425 21.65 1.8465 20.642C1.8335 20.652 1.8205 20.66 1.8085 20.67L1.7255 20.73L1.6245 20.718C1.5965 20.716 1.5685 20.711 1.5395 20.707C1.6265 21.906 2.1695 23.537 3.6455 23.456C4.9785 23.383 5.78251 22.16 6.4225 21.138C6.3115 21.316 6.1735 21.536 6.4295 21.127C6.5765 20.892 6.5165 20.987 6.4345 21.118C6.78251 20.562 7.18351 19.908 7.54551 19.238C7.4155 18.767 7.3395 18.269 7.3715 17.78ZM31.7775 14.786C32.0025 14.833 32.2215 14.869 32.4505 14.885C32.0185 14.593 31.6975 14.153 31.5725 13.643C31.5375 13.5 31.4505 12.513 31.8555 12.876C31.9955 13.003 31.9275 13.364 31.9665 13.538C32.0155 13.756 32.1035 13.965 32.2325 14.146C32.4775 14.491 32.8835 14.693 33.2765 14.815C33.4545 14.766 33.6205 14.702 33.7575 14.607C33.6915 14.653 33.7235 14.631 33.7575 14.607C33.8295 14.557 33.7945 14.582 33.7585 14.606C34.0985 14.37 34.3455 13.896 34.2005 13.483C34.0785 13.398 33.7715 13.19 33.3195 12.926C32.7485 12.64 31.9475 12.436 31.3575 12.782C31.1255 13.466 31.1815 14.308 31.7775 14.786ZM30.9735 14.663C30.6255 14.06 30.6015 13.184 30.8805 12.549C31.1395 11.96 32.2835 12.034 32.7905 12.161C32.3595 11.24 32.4035 10.202 32.3055 9.212C32.3075 9.237 32.3085 9.248 32.3045 9.209C32.2255 8.413 32.2905 9.071 32.3045 9.207C32.2045 8.212 31.8625 6.96 30.7355 6.725C29.3275 6.433 29.4085 8.215 28.3935 8.693C27.4305 9.146 26.0245 8.274 25.2155 9.048C24.4535 9.776 25.1775 11.128 26.2105 10.793L26.3785 11.297C25.5945 11.575 25.5645 12.697 25.9825 13.283C26.3935 13.86 27.0975 14.144 27.7695 14.275L27.9265 14.305C27.9305 14.306 27.9365 14.308 27.9415 14.308L28.0465 14.319C29.0185 14.455 30.0085 14.482 30.9735 14.663ZM27.6765 34.968H28.8795C28.8605 34.193 27.9905 34.033 27.3425 33.967C27.5835 34.225 27.6625 34.625 27.6765 34.968ZM27.6695 33.47C27.0225 30.495 27.3985 27.3 27.7645 24.205C27.6735 24.974 27.5845 25.72 27.7665 24.186C28.1355 21.068 28.5155 17.849 27.8215 14.932C27.5355 15.519 27.2405 16.119 27.1395 16.771C27.0135 17.584 27.2985 18.349 27.5105 19.122C27.9835 20.843 27.5715 22.551 27.3345 24.274C26.9225 27.277 26.6745 30.41 27.1895 33.416C27.3455 33.422 27.5155 33.441 27.6695 33.47ZM25.3615 34.968H27.1425C27.1325 34.775 27.1055 34.418 26.9175 34.299C26.4085 34.069 25.8755 33.906 25.3145 33.885L25.3615 34.968ZM10.8155 34.968H12.0035C11.9895 34.669 11.9245 34.427 11.8675 34.356L11.7945 34.33C11.7695 34.321 11.7425 34.313 11.7175 34.304L11.4845 34.224C11.1845 34.12 10.8785 34.014 10.5625 33.972C10.7985 34.235 10.8195 34.631 10.8155 34.968ZM10.4805 33.428C10.8145 33.456 11.1415 33.545 11.4585 33.653C11.4245 32.185 11.4785 30.62 12.1695 29.289C12.9435 27.8 14.4325 27.211 15.7545 26.329C15.6995 26.366 15.6815 26.378 15.7585 26.326C16.3735 25.915 15.9215 26.217 15.7595 26.325C16.5945 25.766 17.3355 25.025 17.9195 24.168C17.4765 24.08 17.0275 23.95 16.6105 23.777C15.7035 25.748 13.4285 26.457 11.9705 27.906C10.5235 29.344 10.3455 31.493 10.4805 33.428ZM8.5815 34.968H10.2825C10.2845 34.787 10.3155 34.432 10.1445 34.305C9.6135 34.14 9.0945 33.923 8.5335 33.886L8.5815 34.968ZM22.6295 9.072C21.8575 10.13 21.2195 11.286 20.3715 12.288C19.4005 13.436 18.1855 14.175 16.6985 14.423C14.1085 14.857 10.7815 13.935 8.7125 16.034C6.3205 18.46 9.8355 21.773 10.0245 24.386C10.1475 26.082 8.9705 27.258 8.4595 28.768C7.9585 30.249 8.1985 31.854 8.5175 33.346C9.0165 33.37 9.4965 33.529 9.9665 33.687C9.9655 33.682 9.9655 33.676 9.9655 33.67L9.9455 33.421H9.9495C9.8125 31.385 10.0285 29.151 11.5125 27.614C12.9485 26.127 15.4545 25.397 16.2215 23.332L16.3215 23.062L16.5815 23.184C18.3495 24.009 20.5385 23.975 22.2795 23.097L22.4955 22.987L22.6235 23.194C23.1775 24.089 23.9565 24.832 24.8765 25.342L25.0255 25.425L25.0115 25.596C24.8315 27.801 24.9775 30.615 25.4125 33.352C25.8405 33.375 26.2795 33.479 26.6815 33.627L26.6435 33.423H26.6535C26.1285 30.267 26.4085 26.979 26.8625 23.831C26.9975 22.897 27.1895 21.964 27.2145 21.017C27.2385 20.139 27.0175 19.355 26.7875 18.519C26.3995 17.115 26.7195 15.984 27.3345 14.72C25.9165 14.341 24.4385 12.82 25.5215 11.313C23.8265 10.857 24.1145 8.455 25.7865 8.241C26.5515 8.143 27.5565 8.591 28.2545 8.165C28.9105 7.766 28.9125 6.799 29.5965 6.383C29.1835 6.24 28.7575 6.132 28.3245 6.076C27.6175 6.417 27.9105 7.5 27.1015 7.685C26.2905 7.845 25.8905 7.054 25.8285 6.375C24.5075 6.898 23.4555 7.939 22.6295 9.072ZM31.2145 4.355C29.9645 4.689 28.7585 3.921 27.5135 4.159C26.3575 4.379 26.1335 5.706 26.4205 6.699C26.4905 6.941 26.6875 7.226 26.9795 7.174C27.1815 7.139 27.2215 6.855 27.2595 6.696C27.3875 6.166 27.6625 5.775 28.1735 5.557L28.2385 5.53L28.2515 5.531C28.9825 5.255 29.7205 5.409 30.4445 5.612C30.3935 5.598 30.3695 5.591 30.4465 5.613C31.5905 5.935 32.6155 5.933 33.3825 4.897C33.9895 4.077 34.0955 3.018 34.1195 2.029C33.2895 2.954 32.4715 4.019 31.2145 4.355ZM34.6135 2.747C34.5295 3.768 34.2475 4.803 33.5175 5.556C34.2005 5.363 34.8155 4.747 35.1285 3.921C35.3825 3.252 35.4445 2.525 35.4615 1.799C35.1765 2.113 34.9035 2.438 34.6135 2.747ZM15.7585 26.326C15.7575 26.327 15.7555 26.328 15.7545 26.329C15.7555 26.328 15.7585 26.326 15.7595 26.325C15.7595 26.326 15.7595 26.326 15.7585 26.326ZM31.3055 8.801C32.1845 8.801 32.1845 10.17 31.3055 10.17C30.4265 10.17 30.4265 8.801 31.3055 8.801ZM32.3045 9.209C32.3055 9.21 32.3055 9.211 32.3055 9.212C32.3055 9.211 32.3045 9.209 32.3045 9.207C32.3045 9.208 32.3045 9.209 32.3045 9.209ZM33.7905 13.551C34.3955 13.575 33.9335 14.392 33.6105 14.374C33.2435 14.353 33.2775 13.529 33.7905 13.551ZM33.7905 13.551C33.2185 13.527 34.3385 13.573 33.7905 13.551V13.551ZM33.7575 14.607C33.7575 14.607 33.7585 14.607 33.7585 14.606C33.7585 14.606 33.7585 14.607 33.7575 14.607ZM6.4295 21.127C6.42751 21.131 6.4245 21.134 6.4225 21.138C6.42651 21.131 6.4305 21.125 6.4345 21.118C6.43251 21.121 6.4305 21.125 6.4295 21.127Z" fill="white"/>
</g>
<defs>
<clipPath id="clip0_81_2795">
<rect width="36" height="35" fill="white" transform="translate(0 0.5)"/>
</clipPath>
</defs>
</svg>
