<svg width="36" height="36" viewBox="0 0 36 36" fill="none" xmlns="http://www.w3.org/2000/svg">
<g clip-path="url(#clip0_81_992)">
<path fill-rule="evenodd" clip-rule="evenodd" d="M36.0005 0.0600586L35.9975 0.691059C35.9935 1.95206 35.9735 3.31406 35.2495 4.40206C34.6795 5.25806 33.7665 5.80106 32.7265 5.69106C32.2585 5.92006 31.7735 5.97506 31.2615 5.90206C33.6905 6.94606 32.1965 10.3561 33.6255 12.0501C34.2255 12.4041 34.5575 12.6451 34.5715 12.6551L34.6265 12.6961L34.6555 12.7581C34.9875 13.4741 34.5695 14.3171 33.9265 14.6891C33.2365 15.0851 32.4205 15.0231 31.6735 14.8671L31.6245 14.8691C31.1245 14.8691 30.6055 14.6901 30.1065 14.6371C29.5195 14.5731 28.9305 14.5221 28.3445 14.4521C29.7795 20.6591 26.7595 26.9961 28.2565 33.1931C29.1095 33.4871 29.4575 33.8931 29.4025 34.8101L29.3885 35.0591H27.6595H27.1285H24.8545L24.7605 32.9091L24.8775 32.9051C24.4585 30.2261 24.3095 27.4761 24.4705 25.2821C23.6055 24.7731 22.8615 24.0701 22.3025 23.2351C21.1485 23.7661 19.7995 23.9691 18.4895 23.8131C17.9185 24.7051 17.1905 25.5011 16.3365 26.1291C15.4585 26.7751 14.4245 27.1911 13.5915 27.9011C12.0125 29.2471 11.9395 31.4741 11.9945 33.3971C12.0195 33.4051 12.0425 33.4141 12.0685 33.4221L12.1225 33.4441C12.5895 33.7091 12.5325 34.7651 12.5305 34.8101L12.5145 35.0591H10.7895H10.2595H8.0745L7.9815 32.9261C7.74151 31.7851 7.55851 30.6091 7.68151 29.4411C7.81151 28.2091 8.3835 27.2311 8.9445 26.1591C9.5285 25.0461 9.6375 23.9781 9.2345 22.7791C8.8505 21.6351 8.2085 20.6011 7.77551 19.4771C6.91751 20.9881 5.89451 23.1451 4.01251 23.5081C1.93651 23.9091 1.0795 21.7411 0.997505 20.0571C0.255505 19.6391 -0.193495 18.6841 0.0855048 17.8541C0.291505 17.2421 1.4625 16.2391 0.950505 15.5441L0.411505 14.8151L1.2575 15.1361C1.8035 15.3461 2.2855 15.7981 2.5985 16.2831C3.3455 17.4421 3.2945 18.8671 2.2815 19.8321C2.5565 20.6821 3.40251 21.5181 4.36751 21.1901C5.1845 20.9121 5.51651 19.9441 5.80751 19.2171L5.9035 18.9791C6.3655 17.8491 7.0155 16.8011 7.8385 15.8631C8.7645 14.3201 10.7535 13.7481 12.4355 13.6421C14.4835 13.5111 16.7765 13.9001 18.6055 12.7331C20.2265 11.6991 21.0925 9.84206 22.1915 8.33106C23.1145 7.06406 24.3105 5.91706 25.8065 5.37906C25.8125 4.58406 26.0695 3.78106 26.8185 3.39806C27.5885 3.00406 28.4755 3.14706 29.2855 3.31006C30.3065 3.52006 31.1795 3.54606 32.0615 2.91606C32.8995 2.31906 33.4775 1.43806 34.2075 0.726059L34.6585 0.287059L34.6565 0.918059C34.6565 1.09706 34.6545 1.28306 34.6515 1.47006C34.9425 1.13906 35.2325 0.806059 35.5485 0.499059L36.0005 0.0600586ZM2.5235 17.4981C2.3985 16.8891 2.0735 16.3351 1.5865 15.9481C1.5595 16.7961 0.840505 17.2751 0.587505 18.0241C0.604505 17.9731 0.612505 17.9491 0.587505 18.0241C0.445505 18.4471 0.545505 18.1481 0.587505 18.0241C0.348505 18.7341 0.877505 19.5691 1.5855 19.7331C2.3415 19.1501 2.7235 18.4641 2.5235 17.4981ZM7.3715 17.3401C6.9835 17.9221 6.65651 18.5381 6.39451 19.1811L6.2995 19.4161C5.9305 20.3381 5.47351 21.4731 4.4015 21.7331C3.28151 22.0041 2.2425 21.2101 1.8465 20.2021C1.8335 20.2121 1.8205 20.2201 1.8085 20.2301L1.7255 20.2901L1.6245 20.2781C1.5965 20.2761 1.5685 20.2711 1.5395 20.2671C1.6265 21.4661 2.1695 23.0971 3.6455 23.0161C4.9785 22.9431 5.78251 21.7201 6.4225 20.6981C6.3115 20.8761 6.1735 21.0961 6.4295 20.6871C6.5765 20.4521 6.5165 20.5471 6.4345 20.6781C6.78251 20.1221 7.18351 19.4681 7.54551 18.7981C7.4155 18.3271 7.3395 17.8291 7.3715 17.3401ZM31.7775 14.3461C32.0025 14.3931 32.2215 14.4291 32.4505 14.4451C32.0185 14.1531 31.6975 13.7131 31.5725 13.2031C31.5375 13.0601 31.4505 12.0731 31.8555 12.4361C31.9955 12.5631 31.9275 12.9241 31.9665 13.0981C32.0155 13.3161 32.1035 13.5251 32.2325 13.7061C32.4775 14.0511 32.8835 14.2531 33.2765 14.3751C33.4545 14.3261 33.6205 14.2621 33.7575 14.1671C33.6915 14.2131 33.7235 14.1911 33.7575 14.1671C33.8295 14.1171 33.7945 14.1421 33.7585 14.1661C34.0985 13.9301 34.3455 13.4561 34.2005 13.0431C34.0785 12.9581 33.7715 12.7501 33.3195 12.4861C32.7485 12.2001 31.9475 11.9961 31.3575 12.3421C31.1255 13.0261 31.1815 13.8681 31.7775 14.3461ZM30.9735 14.2231C30.6255 13.6201 30.6015 12.7441 30.8805 12.1091C31.1395 11.5201 32.2835 11.5941 32.7905 11.7211C32.3595 10.8001 32.4035 9.76206 32.3055 8.77206C32.3075 8.79706 32.3085 8.80806 32.3045 8.76906C32.2255 7.97306 32.2905 8.63106 32.3045 8.76706C32.2045 7.77206 31.8625 6.52006 30.7355 6.28506C29.3275 5.99306 29.4085 7.77506 28.3935 8.25306C27.4305 8.70606 26.0245 7.83406 25.2155 8.60806C24.4535 9.33606 25.1775 10.6881 26.2105 10.3531L26.3785 10.8571C25.5945 11.1351 25.5645 12.2571 25.9825 12.8431C26.3935 13.4201 27.0975 13.7041 27.7695 13.8351L27.9265 13.8651C27.9305 13.8661 27.9365 13.8681 27.9415 13.8681L28.0465 13.8791C29.0185 14.0151 30.0085 14.0421 30.9735 14.2231ZM27.6765 34.5281H28.8795C28.8605 33.7531 27.9905 33.5931 27.3425 33.5271C27.5835 33.7851 27.6625 34.1851 27.6765 34.5281ZM27.6695 33.0301C27.0225 30.0551 27.3985 26.8601 27.7645 23.7651C27.6735 24.5341 27.5845 25.2801 27.7665 23.7461C28.1355 20.6281 28.5155 17.4091 27.8215 14.4921C27.5355 15.0791 27.2405 15.6791 27.1395 16.3311C27.0135 17.1441 27.2985 17.9091 27.5105 18.6821C27.9835 20.4031 27.5715 22.1111 27.3345 23.8341C26.9225 26.8371 26.6745 29.9701 27.1895 32.9761C27.3455 32.9821 27.5155 33.0011 27.6695 33.0301ZM25.3615 34.5281H27.1425C27.1325 34.3351 27.1055 33.9781 26.9175 33.8591C26.4085 33.6291 25.8755 33.4661 25.3145 33.4451L25.3615 34.5281ZM10.8155 34.5281H12.0035C11.9895 34.2291 11.9245 33.9871 11.8675 33.9161L11.7945 33.8901C11.7695 33.8811 11.7425 33.8731 11.7175 33.8641L11.4845 33.7841C11.1845 33.6801 10.8785 33.5741 10.5625 33.5321C10.7985 33.7951 10.8195 34.1911 10.8155 34.5281ZM10.4805 32.9881C10.8145 33.0161 11.1415 33.1051 11.4585 33.2131C11.4245 31.7451 11.4785 30.1801 12.1695 28.8491C12.9435 27.3601 14.4325 26.7711 15.7545 25.8891C15.6995 25.9261 15.6815 25.9381 15.7585 25.8861C16.3735 25.4751 15.9215 25.7771 15.7595 25.8851C16.5945 25.3261 17.3355 24.5851 17.9195 23.7281C17.4765 23.6401 17.0275 23.5101 16.6105 23.3371C15.7035 25.3081 13.4285 26.0171 11.9705 27.4661C10.5235 28.9041 10.3455 31.0531 10.4805 32.9881ZM8.5815 34.5281H10.2825C10.2845 34.3471 10.3155 33.9921 10.1445 33.8651C9.6135 33.7001 9.0945 33.4831 8.5335 33.4461L8.5815 34.5281ZM22.6295 8.63206C21.8575 9.69006 21.2195 10.8461 20.3715 11.8481C19.4005 12.9961 18.1855 13.7351 16.6985 13.9831C14.1085 14.4171 10.7815 13.4951 8.7125 15.5941C6.3205 18.0201 9.8355 21.3331 10.0245 23.9461C10.1475 25.6421 8.9705 26.8181 8.4595 28.3281C7.9585 29.8091 8.1985 31.4141 8.5175 32.9061C9.0165 32.9301 9.4965 33.0891 9.9665 33.2471C9.9655 33.2421 9.9655 33.2361 9.9655 33.2301L9.9455 32.9811H9.9495C9.8125 30.9451 10.0285 28.7111 11.5125 27.1741C12.9485 25.6871 15.4545 24.9571 16.2215 22.8921L16.3215 22.6221L16.5815 22.7441C18.3495 23.5691 20.5385 23.5351 22.2795 22.6571L22.4955 22.5471L22.6235 22.7541C23.1775 23.6491 23.9565 24.3921 24.8765 24.9021L25.0255 24.9851L25.0115 25.1561C24.8315 27.3611 24.9775 30.1751 25.4125 32.9121C25.8405 32.9351 26.2795 33.0391 26.6815 33.1871L26.6435 32.9831H26.6535C26.1285 29.8271 26.4085 26.5391 26.8625 23.3911C26.9975 22.4571 27.1895 21.5241 27.2145 20.5771C27.2385 19.6991 27.0175 18.9151 26.7875 18.0791C26.3995 16.6751 26.7195 15.5441 27.3345 14.2801C25.9165 13.9011 24.4385 12.3801 25.5215 10.8731C23.8265 10.4171 24.1145 8.01506 25.7865 7.80106C26.5515 7.70306 27.5565 8.15106 28.2545 7.72506C28.9105 7.32606 28.9125 6.35906 29.5965 5.94306C29.1835 5.80006 28.7575 5.69206 28.3245 5.63606C27.6175 5.97706 27.9105 7.06006 27.1015 7.24506C26.2905 7.40506 25.8905 6.61406 25.8285 5.93506C24.5075 6.45806 23.4555 7.49906 22.6295 8.63206ZM31.2145 3.91506C29.9645 4.24906 28.7585 3.48106 27.5135 3.71906C26.3575 3.93906 26.1335 5.26606 26.4205 6.25906C26.4905 6.50106 26.6875 6.78606 26.9795 6.73406C27.1815 6.69906 27.2215 6.41506 27.2595 6.25606C27.3875 5.72606 27.6625 5.33506 28.1735 5.11706L28.2385 5.09006L28.2515 5.09106C28.9825 4.81506 29.7205 4.96906 30.4445 5.17206C30.3935 5.15806 30.3695 5.15106 30.4465 5.17306C31.5905 5.49506 32.6155 5.49306 33.3825 4.45706C33.9895 3.63706 34.0955 2.57806 34.1195 1.58906C33.2895 2.51406 32.4715 3.57906 31.2145 3.91506ZM34.6135 2.30706C34.5295 3.32806 34.2475 4.36306 33.5175 5.11606C34.2005 4.92306 34.8155 4.30706 35.1285 3.48106C35.3825 2.81206 35.4445 2.08506 35.4615 1.35906C35.1765 1.67306 34.9035 1.99806 34.6135 2.30706ZM15.7585 25.8861C15.7575 25.8871 15.7555 25.8881 15.7545 25.8891C15.7555 25.8881 15.7585 25.8861 15.7595 25.8851C15.7595 25.8861 15.7595 25.8861 15.7585 25.8861ZM31.3055 8.36106C32.1845 8.36106 32.1845 9.73006 31.3055 9.73006C30.4265 9.73006 30.4265 8.36106 31.3055 8.36106ZM32.3045 8.76906C32.3055 8.77006 32.3055 8.77106 32.3055 8.77206C32.3055 8.77106 32.3045 8.76906 32.3045 8.76706C32.3045 8.76806 32.3045 8.76906 32.3045 8.76906ZM33.7905 13.1111C34.3955 13.1351 33.9335 13.9521 33.6105 13.9341C33.2435 13.9131 33.2775 13.0891 33.7905 13.1111ZM33.7905 13.1111C33.2185 13.0871 34.3385 13.1331 33.7905 13.1111V13.1111ZM33.7575 14.1671C33.7575 14.1671 33.7585 14.1671 33.7585 14.1661C33.7585 14.1661 33.7585 14.1671 33.7575 14.1671ZM6.4295 20.6871C6.42751 20.6911 6.4245 20.6941 6.4225 20.6981C6.42651 20.6911 6.4305 20.6851 6.4345 20.6781C6.43251 20.6811 6.4305 20.6851 6.4295 20.6871Z" fill="black"/>
</g>
<defs>
<clipPath id="clip0_81_992">
<rect width="36" height="35" fill="white" transform="translate(0 0.0600586)"/>
</clipPath>
</defs>
</svg>
