<svg width="28" height="36" viewBox="0 0 28 36" fill="none" xmlns="http://www.w3.org/2000/svg">
<path fill-rule="evenodd" clip-rule="evenodd" d="M27.1934 33.817C26.3574 33.315 25.3764 33.152 24.5134 32.709C24.3744 32.472 24.1004 32.369 23.8604 32.257C23.6504 32.034 23.4744 31.785 23.2594 31.568C24.0174 31.752 24.7294 31.046 24.9074 30.382C25.1484 29.481 24.6624 28.567 24.2234 27.806L24.0034 27.427C25.8764 26.76 27.7154 24.901 26.9774 22.801L26.8214 22.357L26.5194 22.722C25.6944 23.722 24.3654 22.623 23.9594 21.83C23.3984 20.733 23.1724 19.435 23.0364 18.228C22.7334 15.531 23.0474 12.818 23.0794 10.116C23.1084 7.71704 23.0124 5.03804 21.6854 2.93204C20.4564 0.981035 17.9694 -0.198964 15.7594 0.964036C13.7784 0.641035 11.6474 1.75804 10.8594 3.56604L10.7514 3.81604L11.0114 3.91004C11.3064 4.01604 11.6214 4.08904 11.9444 4.14404C11.4454 5.73304 11.0344 8.09004 12.1294 9.54104C12.0334 10.114 11.9194 10.618 11.7834 11.073C11.1394 10.991 10.4604 10.999 9.90543 11.371C9.32043 11.761 9.02943 12.43 8.77943 13.051L6.49743 18.711C5.60843 17.347 5.10543 15.75 5.03543 14.135C5.00043 13.327 5.07443 12.515 5.26043 11.726C5.45643 10.891 5.80043 10.039 5.65343 9.16804C7.19943 8.40604 8.11743 6.68304 8.30843 5.05704C8.47343 3.65304 8.07843 1.85204 6.62343 1.21204C5.09343 0.538036 3.51543 1.62504 2.68843 2.83204C1.66743 4.32404 1.25643 6.49604 2.17043 8.13004C1.36143 8.98004 1.52043 10.031 2.03043 10.98C1.89743 11.355 0.806434 13.78 2.02043 13.78C2.46043 13.769 2.72343 13.338 2.89443 12.997C3.32343 14.474 3.41743 16.02 3.51443 17.544C3.59643 18.822 3.54043 20.318 4.23143 21.458C4.78343 22.368 5.82643 22.669 6.81843 22.25C7.45643 21.98 7.93443 21.509 8.36343 20.99C8.63343 20.664 9.02343 19.989 9.45843 19.861C9.89943 20.684 10.2274 21.548 10.4964 22.438C10.7784 23.37 11.3344 24.499 10.4534 25.271L10.4494 25.276C9.62043 26.001 8.40043 26.345 7.41943 26.833C6.18943 27.445 4.99143 28.118 3.83243 28.851C2.68043 29.58 0.843434 30.494 0.541434 31.943C0.197434 33.594 2.06943 34.273 3.41743 34.18C4.45443 35.39 6.61043 35.403 8.09643 35.473C10.0524 35.566 12.0084 35.404 13.9534 35.216C15.8954 35.028 17.8394 34.808 19.7934 34.78C20.7524 34.766 21.7134 34.8 22.6664 34.908C23.6374 35.02 24.6004 35.294 25.5814 35.294H25.6504C26.1694 35.285 26.6974 35.18 27.1564 34.937C27.5924 34.704 27.6204 34.072 27.1934 33.817C27.3934 33.937 26.6764 33.507 27.1934 33.817ZM18.7694 31.96C17.7514 31.823 16.7854 31.45 15.7904 31.212C15.8004 31.2 15.8104 31.19 15.8204 31.179C16.7944 31.272 17.8784 31.159 18.5834 30.425C19.3234 29.654 20.1694 31.303 20.7464 31.656C20.3814 31.887 19.9004 31.999 19.3194 32.008C19.1434 32 18.9624 31.986 18.7694 31.96C18.9624 31.986 18.1364 31.875 18.7694 31.96ZM21.4474 31.328C21.4294 31.349 21.4084 31.367 21.3884 31.385L21.3674 31.404L21.3384 31.39C20.5064 30.968 20.1454 29.971 19.2154 29.719C19.7244 29.252 20.0704 28.684 20.2264 28.018C20.5904 28.027 20.9534 28.009 21.3164 27.976C21.5344 28.513 21.7514 29.05 21.9644 29.589C22.1554 30.071 22.2854 30.675 22.5834 31.103C22.1754 30.945 21.7444 30.983 21.4474 31.328C21.6294 31.117 21.4294 31.349 21.4474 31.328ZM19.9714 25.962C19.4584 25.095 18.4654 24.827 17.6594 24.304C16.8104 23.752 16.7194 22.861 16.7824 21.936C16.8884 20.349 17.3484 18.671 17.9744 17.204C18.4614 18.938 18.7144 20.729 19.2334 22.455C19.7464 24.162 20.4454 25.824 21.1144 27.477C20.8314 27.499 20.5704 27.51 20.3114 27.505C20.3504 26.978 20.2434 26.422 19.9714 25.962ZM17.2794 1.01704C19.4374 0.790036 21.1204 2.56404 21.8124 4.37504C22.7154 6.74004 22.5984 9.41304 22.4974 11.892C22.3934 14.425 22.2114 16.992 22.6914 19.501C22.8894 20.537 23.1554 21.688 23.7894 22.564C24.3854 23.387 25.6004 23.947 26.5714 23.359C26.8364 25.113 25.2854 26.448 23.7434 26.973C22.9544 25.6 22.1724 24.185 21.7204 22.665C21.4664 21.809 21.3254 20.902 21.3624 20.01C21.4054 19.012 21.6624 18.038 21.7814 17.049C21.9494 15.671 21.7834 14.04 20.6334 13.071C20.0034 12.54 19.1434 12.476 18.4784 12.011C17.9014 11.608 17.4574 10.996 17.2894 10.321C17.3134 9.80604 17.3634 9.29404 17.4464 8.78404C17.8244 8.47904 18.1794 8.13904 18.5044 7.78104C18.6274 7.85504 18.7574 7.92504 18.8884 7.98604L19.0714 8.07304L19.2044 7.92304C20.8804 6.03004 20.3474 2.15104 17.5064 1.58504L17.5394 1.53604L17.2504 1.41804C17.0314 1.32904 16.8104 1.24404 16.5854 1.16904C16.8174 1.09104 17.0484 1.04104 17.2794 1.01704C18.6034 0.877036 17.0484 1.04104 17.2794 1.01704ZM16.5374 3.01604C16.5484 2.90804 16.5704 2.79404 16.6014 2.68304V2.68204C16.6644 2.45804 16.7904 2.18304 17.0534 2.09104L17.0854 2.08404C17.6144 1.96504 18.2734 2.44104 18.6234 2.77304C19.0484 3.17704 19.3514 3.69104 19.5114 4.24704C19.8204 5.31604 19.6254 6.53504 18.9334 7.42704C17.3574 6.57004 16.3544 4.77604 16.5374 3.01604C16.5484 2.90804 16.3714 4.61704 16.5374 3.01604ZM15.0734 1.42304C15.6094 1.42304 16.1164 1.55004 16.6154 1.73104C16.3674 1.90404 16.2024 2.19004 16.1134 2.46904C14.8734 3.58604 13.0904 3.98804 11.4724 3.51504C12.1424 2.27104 13.5814 1.42304 15.0734 1.42304ZM12.4674 4.21504C12.6034 4.22504 12.7384 4.21904 12.8744 4.23004C13.9874 4.23004 15.0894 3.88004 15.9894 3.23904C15.9234 4.85704 16.7434 6.49804 18.0554 7.48104C17.3714 8.22604 16.5764 8.85404 15.6734 9.33204C14.9374 9.72104 13.9324 10.099 13.1134 9.71603C12.2764 9.32403 12.0624 8.26504 12.0254 7.44804C11.9754 6.35504 12.1304 5.25804 12.4674 4.21504C12.5494 4.22104 12.1244 5.27504 12.4674 4.21504ZM14.5954 10.501C14.2894 11.305 13.2514 11.291 12.5274 11.181L12.3164 11.148C12.4184 10.798 12.5074 10.421 12.5854 10.009C13.1774 10.432 13.9684 10.456 14.6574 10.288C14.6434 10.36 14.6224 10.432 14.5954 10.501ZM2.47443 4.45204C2.85943 3.29604 3.69043 2.08904 4.90943 1.66004C6.08443 1.24504 7.14643 1.90804 7.56743 2.98704C8.04643 4.21404 7.81543 5.66804 7.22243 6.81804C6.65643 7.91504 5.47743 9.16903 4.07943 8.95704H4.07643C3.78843 8.91304 3.52143 8.80204 3.28443 8.63504C3.06943 8.48104 2.87943 8.28104 2.72143 8.03804L2.71943 8.03504C2.13243 7.13204 2.03843 5.76004 2.47443 4.45204C3.03843 2.75704 2.03843 5.76004 2.47443 4.45204ZM2.46843 8.58204C2.56643 8.70004 2.69243 8.83004 2.81043 8.92804C2.62843 9.38204 2.45143 9.83804 2.28043 10.295C2.03343 9.71404 2.05643 9.09004 2.46843 8.58204C2.48943 8.60804 2.20143 8.91104 2.46843 8.58204ZM2.27743 13.019C2.13143 13.233 2.03843 13.259 2.02343 13.262C1.78243 13.092 2.23143 12.04 2.28543 11.875C2.57343 10.982 2.91143 10.102 3.25943 9.23003C3.39743 9.30203 3.54443 9.36104 3.69443 9.40504C3.48343 10.029 3.26543 10.653 3.03543 11.272C2.81943 11.849 2.63343 12.506 2.27743 13.019C2.34243 12.926 2.13143 13.233 2.27743 13.019ZM8.06743 20.524C7.47943 21.235 6.55943 22.226 5.49343 21.872C4.68343 21.604 4.39043 20.679 4.26043 19.941C3.81043 17.383 4.11343 14.762 3.21543 12.271C3.58743 11.357 3.90843 10.424 4.22343 9.49203C4.26943 9.48804 4.31543 9.48904 4.36143 9.49604C4.62543 9.46404 4.89243 9.45304 5.14843 9.37604C5.23943 10.291 4.80343 11.2 4.64343 12.089C4.49543 12.915 4.46043 13.759 4.53443 14.594C4.68843 16.318 5.30943 18.005 6.34443 19.414L6.62843 19.801L9.27343 13.24C9.47943 12.729 9.70843 12.148 10.1814 11.814C10.6764 11.465 11.3274 11.525 11.8964 11.608L12.4454 11.692C12.6904 11.729 12.9414 11.753 13.1884 11.753C14.2584 11.732 15.1204 11.213 15.2244 10.109C15.7974 9.88904 16.3424 9.57604 16.8454 9.23104C16.8004 9.59904 16.7734 9.97004 16.7564 10.34L16.7554 10.374L16.7634 10.409C16.8624 10.83 17.0584 11.233 17.3184 11.592V11.593C17.6714 12.086 18.1654 12.505 18.7314 12.75C19.4354 13.056 20.1414 13.189 20.6304 13.822C21.5004 14.948 21.3604 16.454 21.1394 17.758C20.8584 19.421 20.6964 20.969 21.1544 22.621C21.6254 24.321 22.5064 25.888 23.3864 27.414L23.7604 28.06C24.0704 28.597 24.4044 29.18 24.4334 29.81C24.4554 30.299 24.1704 30.979 23.6024 31.072C22.9754 31.174 22.8294 30.347 22.6704 29.939C22.4074 29.261 22.1344 28.586 21.8614 27.912L21.7344 27.597C20.7234 25.104 19.7564 22.636 19.1734 20.011C19.0334 19.379 18.8974 18.744 18.7504 18.112C18.6414 17.645 18.5834 16.866 18.2814 16.474C17.7994 15.846 17.1344 17.941 17.0414 18.239C17.0794 17.919 17.1314 16.735 16.7484 16.633C16.2554 16.5 16.6064 17.881 16.5854 18.121C16.4644 19.487 15.0514 20.427 13.7124 19.997C12.3694 19.565 11.7874 18.039 12.5064 16.847C12.6144 16.669 12.8994 16.414 12.6364 16.224C12.3684 16.031 12.1064 16.614 12.0224 16.78C11.6934 17.439 11.6384 18.235 11.9044 18.924C10.9234 19.516 8.97043 19.78 8.69743 18.258C8.45143 16.888 9.88543 15.862 10.2644 14.649C10.2864 14.474 10.0644 14.425 9.93643 14.482C9.76043 14.56 9.71043 14.825 9.62943 14.979C9.32143 15.567 8.88343 16.078 8.57443 16.664C8.06643 17.629 8.03243 18.846 9.04443 19.507C8.73643 19.716 8.41843 20.098 8.06743 20.524C8.41843 20.098 7.95243 20.663 8.06743 20.524ZM26.9014 34.483C26.5544 34.667 26.1184 34.769 25.6424 34.776H25.5814C24.8624 34.776 24.1594 34.601 23.4524 34.492C22.7094 34.377 21.9604 34.309 21.2094 34.279C19.5764 34.213 17.9434 34.32 16.3184 34.467C13.0934 34.758 9.83443 35.232 6.59643 34.828C5.48443 34.688 3.95643 34.547 3.50143 33.351C3.09243 32.277 4.10343 31.307 4.87843 30.697C7.34543 28.76 10.1224 27.133 12.9664 25.782C12.9984 25.767 13.0284 25.75 13.0594 25.735L13.0694 25.728H11.8844C9.76243 26.789 7.72443 28.01 5.79443 29.377C4.50743 30.288 2.17143 31.805 3.06643 33.68C2.15443 33.715 0.873434 33.189 1.05543 32.104C1.23243 31.054 2.47843 30.369 3.29143 29.825C4.38643 29.094 5.51943 28.416 6.68443 27.797C7.80143 27.202 8.99843 26.748 10.1034 26.137C10.4614 25.941 10.8204 25.706 11.0684 25.382L11.0724 25.378C11.1174 25.318 11.1634 25.256 11.2254 25.178C11.7614 24.336 11.3124 23.322 11.0564 22.46C10.7914 21.569 10.4794 20.696 10.0534 19.863C10.7834 19.945 11.4954 19.695 12.1124 19.33C13.2414 21.107 15.9824 20.868 16.8294 18.977C16.5754 19.932 16.3624 20.904 16.2624 21.885C16.1614 22.976 16.3374 24.047 17.3194 24.704C18.1764 25.278 19.3584 25.543 19.6924 26.626C20.4004 28.921 17.8234 30.357 15.8744 30.606L15.7504 30.622C15.7104 30.628 15.6684 30.631 15.6274 30.637L15.5834 30.632L15.5744 30.643C15.0324 30.717 14.4794 30.766 13.9384 30.809L13.5264 30.843C11.7824 30.984 9.85543 31.296 8.62743 32.637L8.98543 33.016C10.2174 32.111 11.7404 31.594 13.2764 31.503C13.7204 31.477 14.1624 31.488 14.5894 31.529L14.5704 31.543L15.1304 31.664C16.5074 31.962 17.8254 32.535 19.2584 32.535C19.2984 32.535 19.3374 32.532 19.3764 32.526C20.3924 32.559 21.1714 32.32 21.7074 31.803L21.7474 31.767C22.0534 31.488 22.2044 31.449 22.5724 31.679L23.4974 32.639C23.6994 32.849 23.9464 33.001 24.2044 33.138L24.8044 33.461L24.7834 33.402C25.2274 33.577 25.6874 33.709 26.1324 33.881C26.2414 33.924 27.2564 34.292 26.9014 34.483C26.9664 34.448 26.5544 34.667 26.9014 34.483Z" fill="white"/>
</svg>
