<svg width="28" height="36" viewBox="0 0 28 36" fill="none" xmlns="http://www.w3.org/2000/svg">
<g clip-path="url(#clip0_81_1032)">
<path fill-rule="evenodd" clip-rule="evenodd" d="M27.1934 33.3771C26.3574 32.8751 25.3764 32.7121 24.5134 32.2691C24.3744 32.0321 24.1004 31.9291 23.8604 31.8171C23.6504 31.5941 23.4744 31.3451 23.2594 31.1281C24.0174 31.3121 24.7294 30.6061 24.9074 29.9421C25.1484 29.0411 24.6624 28.1271 24.2234 27.3661L24.0034 26.9871C25.8764 26.3201 27.7154 24.4611 26.9774 22.3611L26.8214 21.9171L26.5194 22.2821C25.6944 23.2821 24.3654 22.1831 23.9594 21.3901C23.3984 20.2931 23.1724 18.9951 23.0364 17.7881C22.7334 15.0911 23.0474 12.3781 23.0794 9.67609C23.1084 7.27709 23.0124 4.59809 21.6854 2.49209C20.4564 0.541094 17.9694 -0.638906 15.7594 0.524094C13.7784 0.201094 11.6474 1.31809 10.8594 3.12609L10.7514 3.37609L11.0114 3.47009C11.3064 3.57609 11.6214 3.64909 11.9444 3.70409C11.4454 5.29309 11.0344 7.65009 12.1294 9.10109C12.0334 9.67409 11.9194 10.1781 11.7834 10.6331C11.1394 10.5511 10.4604 10.5591 9.90543 10.9311C9.32043 11.3211 9.02943 11.9901 8.77943 12.6111L6.49743 18.2711C5.60843 16.9071 5.10543 15.3101 5.03543 13.6951C5.00043 12.8871 5.07443 12.0751 5.26043 11.2861C5.45643 10.4511 5.80043 9.59909 5.65343 8.72809C7.19943 7.96609 8.11743 6.24309 8.30843 4.61709C8.47343 3.21309 8.07843 1.41209 6.62343 0.772094C5.09343 0.0980941 3.51543 1.18509 2.68843 2.39209C1.66743 3.88409 1.25643 6.05609 2.17043 7.69009C1.36143 8.54009 1.52043 9.59109 2.03043 10.5401C1.89743 10.9151 0.806434 13.3401 2.02043 13.3401C2.46043 13.3291 2.72343 12.8981 2.89443 12.5571C3.32343 14.0341 3.41743 15.5801 3.51443 17.1041C3.59643 18.3821 3.54043 19.8781 4.23143 21.0181C4.78343 21.9281 5.82643 22.2291 6.81843 21.8101C7.45643 21.5401 7.93443 21.0691 8.36343 20.5501C8.63343 20.2241 9.02343 19.5491 9.45843 19.4211C9.89943 20.2441 10.2274 21.1081 10.4964 21.9981C10.7784 22.9301 11.3344 24.0591 10.4534 24.8311L10.4494 24.8361C9.62043 25.5611 8.40043 25.9051 7.41943 26.3931C6.18943 27.0051 4.99143 27.6781 3.83243 28.4111C2.68043 29.1401 0.843434 30.0541 0.541434 31.5031C0.197434 33.1541 2.06943 33.8331 3.41743 33.7401C4.45443 34.9501 6.61043 34.9631 8.09643 35.0331C10.0524 35.1261 12.0084 34.9641 13.9534 34.7761C15.8954 34.5881 17.8394 34.3681 19.7934 34.3401C20.7524 34.3261 21.7134 34.3601 22.6664 34.4681C23.6374 34.5801 24.6004 34.8541 25.5814 34.8541H25.6504C26.1694 34.8451 26.6974 34.7401 27.1564 34.4971C27.5924 34.2641 27.6204 33.6321 27.1934 33.3771C27.3934 33.4971 26.6764 33.0671 27.1934 33.3771ZM18.7694 31.5201C17.7514 31.3831 16.7854 31.0101 15.7904 30.7721C15.8004 30.7601 15.8104 30.7501 15.8204 30.7391C16.7944 30.8321 17.8784 30.7191 18.5834 29.9851C19.3234 29.2141 20.1694 30.8631 20.7464 31.2161C20.3814 31.4471 19.9004 31.5591 19.3194 31.5681C19.1434 31.5601 18.9624 31.5461 18.7694 31.5201C18.9624 31.5461 18.1364 31.4351 18.7694 31.5201ZM21.4474 30.8881C21.4294 30.9091 21.4084 30.9271 21.3884 30.9451L21.3674 30.9641L21.3384 30.9501C20.5064 30.5281 20.1454 29.5311 19.2154 29.2791C19.7244 28.8121 20.0704 28.2441 20.2264 27.5781C20.5904 27.5871 20.9534 27.5691 21.3164 27.5361C21.5344 28.0731 21.7514 28.6101 21.9644 29.1491C22.1554 29.6311 22.2854 30.2351 22.5834 30.6631C22.1754 30.5051 21.7444 30.5431 21.4474 30.8881C21.6294 30.6771 21.4294 30.9091 21.4474 30.8881ZM19.9714 25.5221C19.4584 24.6551 18.4654 24.3871 17.6594 23.8641C16.8104 23.3121 16.7194 22.4211 16.7824 21.4961C16.8884 19.9091 17.3484 18.2311 17.9744 16.7641C18.4614 18.4981 18.7144 20.2891 19.2334 22.0151C19.7464 23.7221 20.4454 25.3841 21.1144 27.0371C20.8314 27.0591 20.5704 27.0701 20.3114 27.0651C20.3504 26.5381 20.2434 25.9821 19.9714 25.5221ZM17.2794 0.577094C19.4374 0.350094 21.1204 2.12409 21.8124 3.93509C22.7154 6.30009 22.5984 8.97309 22.4974 11.4521C22.3934 13.9851 22.2114 16.5521 22.6914 19.0611C22.8894 20.0971 23.1554 21.2481 23.7894 22.1241C24.3854 22.9471 25.6004 23.5071 26.5714 22.9191C26.8364 24.6731 25.2854 26.0081 23.7434 26.5331C22.9544 25.1601 22.1724 23.7451 21.7204 22.2251C21.4664 21.3691 21.3254 20.4621 21.3624 19.5701C21.4054 18.5721 21.6624 17.5981 21.7814 16.6091C21.9494 15.2311 21.7834 13.6001 20.6334 12.6311C20.0034 12.1001 19.1434 12.0361 18.4784 11.5711C17.9014 11.1681 17.4574 10.5561 17.2894 9.88109C17.3134 9.36609 17.3634 8.85409 17.4464 8.34409C17.8244 8.03909 18.1794 7.69909 18.5044 7.34109C18.6274 7.41509 18.7574 7.48509 18.8884 7.54609L19.0714 7.63309L19.2044 7.48309C20.8804 5.59009 20.3474 1.71109 17.5064 1.14509L17.5394 1.09609L17.2504 0.978094C17.0314 0.889094 16.8104 0.804094 16.5854 0.729094C16.8174 0.651094 17.0484 0.601094 17.2794 0.577094C18.6034 0.437094 17.0484 0.601094 17.2794 0.577094ZM16.5374 2.57609C16.5484 2.46809 16.5704 2.35409 16.6014 2.24309V2.24209C16.6644 2.01809 16.7904 1.74309 17.0534 1.65109L17.0854 1.64409C17.6144 1.52509 18.2734 2.00109 18.6234 2.33309C19.0484 2.73709 19.3514 3.25109 19.5114 3.80709C19.8204 4.87609 19.6254 6.09509 18.9334 6.98709C17.3574 6.13009 16.3544 4.33609 16.5374 2.57609C16.5484 2.46809 16.3714 4.17709 16.5374 2.57609ZM15.0734 0.983094C15.6094 0.983094 16.1164 1.11009 16.6154 1.29109C16.3674 1.46409 16.2024 1.75009 16.1134 2.02909C14.8734 3.14609 13.0904 3.54809 11.4724 3.07509C12.1424 1.83109 13.5814 0.983094 15.0734 0.983094ZM12.4674 3.77509C12.6034 3.78509 12.7384 3.77909 12.8744 3.79009C13.9874 3.79009 15.0894 3.44009 15.9894 2.79909C15.9234 4.41709 16.7434 6.05809 18.0554 7.04109C17.3714 7.78609 16.5764 8.41409 15.6734 8.89209C14.9374 9.28109 13.9324 9.65909 13.1134 9.27609C12.2764 8.88409 12.0624 7.82509 12.0254 7.00809C11.9754 5.91509 12.1304 4.81809 12.4674 3.77509C12.5494 3.78109 12.1244 4.83509 12.4674 3.77509ZM14.5954 10.0611C14.2894 10.8651 13.2514 10.8511 12.5274 10.7411L12.3164 10.7081C12.4184 10.3581 12.5074 9.98109 12.5854 9.56909C13.1774 9.99209 13.9684 10.0161 14.6574 9.84809C14.6434 9.92009 14.6224 9.99209 14.5954 10.0611ZM2.47443 4.01209C2.85943 2.85609 3.69043 1.64909 4.90943 1.22009C6.08443 0.805094 7.14643 1.46809 7.56743 2.54709C8.04643 3.77409 7.81543 5.22809 7.22243 6.37809C6.65643 7.47509 5.47743 8.72909 4.07943 8.51709H4.07643C3.78843 8.47309 3.52143 8.36209 3.28443 8.19509C3.06943 8.04109 2.87943 7.84109 2.72143 7.59809L2.71943 7.59509C2.13243 6.69209 2.03843 5.32009 2.47443 4.01209C3.03843 2.31709 2.03843 5.32009 2.47443 4.01209ZM2.46843 8.14209C2.56643 8.26009 2.69243 8.39009 2.81043 8.48809C2.62843 8.94209 2.45143 9.39809 2.28043 9.85509C2.03343 9.27409 2.05643 8.65009 2.46843 8.14209C2.48943 8.16809 2.20143 8.47109 2.46843 8.14209ZM2.27743 12.5791C2.13143 12.7931 2.03843 12.8191 2.02343 12.8221C1.78243 12.6521 2.23143 11.6001 2.28543 11.4351C2.57343 10.5421 2.91143 9.66209 3.25943 8.79009C3.39743 8.86209 3.54443 8.92109 3.69443 8.96509C3.48343 9.58909 3.26543 10.2131 3.03543 10.8321C2.81943 11.4091 2.63343 12.0661 2.27743 12.5791C2.34243 12.4861 2.13143 12.7931 2.27743 12.5791ZM8.06743 20.0841C7.47943 20.7951 6.55943 21.7861 5.49343 21.4321C4.68343 21.1641 4.39043 20.2391 4.26043 19.5011C3.81043 16.9431 4.11343 14.3221 3.21543 11.8311C3.58743 10.9171 3.90843 9.98409 4.22343 9.05209C4.26943 9.04809 4.31543 9.04909 4.36143 9.05609C4.62543 9.02409 4.89243 9.01309 5.14843 8.93609C5.23943 9.85109 4.80343 10.7601 4.64343 11.6491C4.49543 12.4751 4.46043 13.3191 4.53443 14.1541C4.68843 15.8781 5.30943 17.5651 6.34443 18.9741L6.62843 19.3611L9.27343 12.8001C9.47943 12.2891 9.70843 11.7081 10.1814 11.3741C10.6764 11.0251 11.3274 11.0851 11.8964 11.1681L12.4454 11.2521C12.6904 11.2891 12.9414 11.3131 13.1884 11.3131C14.2584 11.2921 15.1204 10.7731 15.2244 9.66909C15.7974 9.44909 16.3424 9.13609 16.8454 8.79109C16.8004 9.15909 16.7734 9.53009 16.7564 9.90009L16.7554 9.93409L16.7634 9.96909C16.8624 10.3901 17.0584 10.7931 17.3184 11.1521V11.1531C17.6714 11.6461 18.1654 12.0651 18.7314 12.3101C19.4354 12.6161 20.1414 12.7491 20.6304 13.3821C21.5004 14.5081 21.3604 16.0141 21.1394 17.3181C20.8584 18.9811 20.6964 20.5291 21.1544 22.1811C21.6254 23.8811 22.5064 25.4481 23.3864 26.9741L23.7604 27.6201C24.0704 28.1571 24.4044 28.7401 24.4334 29.3701C24.4554 29.8591 24.1704 30.5391 23.6024 30.6321C22.9754 30.7341 22.8294 29.9071 22.6704 29.4991C22.4074 28.8211 22.1344 28.1461 21.8614 27.4721L21.7344 27.1571C20.7234 24.6641 19.7564 22.1961 19.1734 19.5711C19.0334 18.9391 18.8974 18.3041 18.7504 17.6721C18.6414 17.2051 18.5834 16.4261 18.2814 16.0341C17.7994 15.4061 17.1344 17.5011 17.0414 17.7991C17.0794 17.4791 17.1314 16.2951 16.7484 16.1931C16.2554 16.0601 16.6064 17.4411 16.5854 17.6811C16.4644 19.0471 15.0514 19.9871 13.7124 19.5571C12.3694 19.1251 11.7874 17.5991 12.5064 16.4071C12.6144 16.2291 12.8994 15.9741 12.6364 15.7841C12.3684 15.5911 12.1064 16.1741 12.0224 16.3401C11.6934 16.9991 11.6384 17.7951 11.9044 18.4841C10.9234 19.0761 8.97043 19.3401 8.69743 17.8181C8.45143 16.4481 9.88543 15.4221 10.2644 14.2091C10.2864 14.0341 10.0644 13.9851 9.93643 14.0421C9.76043 14.1201 9.71043 14.3851 9.62943 14.5391C9.32143 15.1271 8.88343 15.6381 8.57443 16.2241C8.06643 17.1891 8.03243 18.4061 9.04443 19.0671C8.73643 19.2761 8.41843 19.6581 8.06743 20.0841C8.41843 19.6581 7.95243 20.2231 8.06743 20.0841ZM26.9014 34.0431C26.5544 34.2271 26.1184 34.3291 25.6424 34.3361H25.5814C24.8624 34.3361 24.1594 34.1611 23.4524 34.0521C22.7094 33.9371 21.9604 33.8691 21.2094 33.8391C19.5764 33.7731 17.9434 33.8801 16.3184 34.0271C13.0934 34.3181 9.83443 34.7921 6.59643 34.3881C5.48443 34.2481 3.95643 34.1071 3.50143 32.9111C3.09243 31.8371 4.10343 30.8671 4.87843 30.2571C7.34543 28.3201 10.1224 26.6931 12.9664 25.3421C12.9984 25.3271 13.0284 25.3101 13.0594 25.2951L13.0694 25.2881H11.8844C9.76243 26.3491 7.72443 27.5701 5.79443 28.9371C4.50743 29.8481 2.17143 31.3651 3.06643 33.2401C2.15443 33.2751 0.873434 32.7491 1.05543 31.6641C1.23243 30.6141 2.47843 29.9291 3.29143 29.3851C4.38643 28.6541 5.51943 27.9761 6.68443 27.3571C7.80143 26.7621 8.99843 26.3081 10.1034 25.6971C10.4614 25.5011 10.8204 25.2661 11.0684 24.9421L11.0724 24.9381C11.1174 24.8781 11.1634 24.8161 11.2254 24.7381C11.7614 23.8961 11.3124 22.8821 11.0564 22.0201C10.7914 21.1291 10.4794 20.2561 10.0534 19.4231C10.7834 19.5051 11.4954 19.2551 12.1124 18.8901C13.2414 20.6671 15.9824 20.4281 16.8294 18.5371C16.5754 19.4921 16.3624 20.4641 16.2624 21.4451C16.1614 22.5361 16.3374 23.6071 17.3194 24.2641C18.1764 24.8381 19.3584 25.1031 19.6924 26.1861C20.4004 28.4811 17.8234 29.9171 15.8744 30.1661L15.7504 30.1821C15.7104 30.1881 15.6684 30.1911 15.6274 30.1971L15.5834 30.1921L15.5744 30.2031C15.0324 30.2771 14.4794 30.3261 13.9384 30.3691L13.5264 30.4031C11.7824 30.5441 9.85543 30.8561 8.62743 32.1971L8.98543 32.5761C10.2174 31.6711 11.7404 31.1541 13.2764 31.0631C13.7204 31.0371 14.1624 31.0481 14.5894 31.0891L14.5704 31.1031L15.1304 31.2241C16.5074 31.5221 17.8254 32.0951 19.2584 32.0951C19.2984 32.0951 19.3374 32.0921 19.3764 32.0861C20.3924 32.1191 21.1714 31.8801 21.7074 31.3631L21.7474 31.3271C22.0534 31.0481 22.2044 31.0091 22.5724 31.2391L23.4974 32.1991C23.6994 32.4091 23.9464 32.5611 24.2044 32.6981L24.8044 33.0211L24.7834 32.9621C25.2274 33.1371 25.6874 33.2691 26.1324 33.4411C26.2414 33.4841 27.2564 33.8521 26.9014 34.0431C26.9664 34.0081 26.5544 34.2271 26.9014 34.0431Z" fill="black"/>
</g>
<defs>
<clipPath id="clip0_81_1032">
<rect width="27" height="35" fill="white" transform="translate(0.5 0.0600586)"/>
</clipPath>
</defs>
</svg>
